<svg xmlns="http://www.w3.org/2000/svg" width="520.758" height="145.194" viewBox="0 0 520.758 145.194">
  <title>som-igs-logo</title>
  <g>
    <g>
      <g>
        <path d="M72.574,113.354c-.42-.211-.449-.33-.449-1.141,0-1.5.119-2.7.149-3.176.031-.33.089-.482.242-.482.177,0,.207.091.207.33a5.288,5.288,0,0,0,.09,1.111c.453,2.217,2.429,3.057,4.439,3.057a4,4,0,0,0,4.287-3.987c0-2.068-.869-3.269-3.447-5.4l-1.35-1.109c-3.179-2.61-3.9-4.467-3.9-6.506,0-3.207,2.4-5.4,6.2-5.4a11.631,11.631,0,0,1,2.789.3,4.984,4.984,0,0,0,1.049.151c.24,0,.3.06.3.208s-.124,1.141-.124,3.178c0,.483-.058.692-.207.692-.179,0-.209-.151-.242-.391a5.259,5.259,0,0,0-.386-1.5c-.182-.33-.993-1.59-3.75-1.59a3.409,3.409,0,0,0-3.688,3.479c0,1.709.779,2.789,3.658,5.037l.84.658c3.537,2.789,4.377,4.648,4.377,7.047a6.208,6.208,0,0,1-2.549,4.978,7.887,7.887,0,0,1-4.525,1.26A9.12,9.12,0,0,1,72.574,113.354Z" fill="#a7a9ac"/>
        <path d="M91.113,111.344a9.556,9.556,0,0,1-3.209-7.557,10.062,10.062,0,0,1,2.969-6.955c1.588-1.527,3.988-2.726,8.037-2.726a25.978,25.978,0,0,1,3.838.3,18.425,18.425,0,0,0,2.7.391c.272,0,.33.121.33.271,0,.21-.058.508-.119,1.438-.031.84-.031,2.248-.062,2.611-.029.387-.149.539-.3.539-.182,0-.211-.181-.211-.539a3.327,3.327,0,0,0-1.109-2.551,8.574,8.574,0,0,0-5.188-1.41c-3.387,0-5.006.9-5.937,1.77-1.948,1.8-2.368,4.078-2.368,6.658a9.261,9.261,0,0,0,9.5,9.232c1.979,0,3.3-.148,4.348-1.2a4.746,4.746,0,0,0,1.02-2.129c.06-.271.089-.359.269-.359.121,0,.24.178.24.359a26.431,26.431,0,0,1-.631,3.268c-.148.48-.209.57-.658.75a15.593,15.593,0,0,1-4.767.57C95.852,114.074,93.182,113.143,91.113,111.344Z" fill="#a7a9ac"/>
        <path d="M128.246,106.336c0,2.459.029,4.469.149,5.518.089.75.148,1.23.959,1.349a10.518,10.518,0,0,0,1.17.121.211.211,0,0,1,.238.209c0,.119-.149.211-.449.211-1.438,0-3.118-.092-3.268-.092-.119,0-1.83.092-2.607.092-.3,0-.42-.06-.42-.211a.2.2,0,0,1,.209-.209,3.564,3.564,0,0,0,.779-.121c.539-.119.631-.629.721-1.379.119-1.049.119-2.968.119-5.425v-2.551c0-.119-.059-.149-.149-.149h-11c-.089,0-.15.03-.15.149V106.4c0,2.457,0,4.406.119,5.455.09.75.18,1.23.959,1.349a11.021,11.021,0,0,0,1.2.121.2.2,0,0,1,.209.209c0,.119-.119.211-.416.211-1.47,0-3.15-.092-3.269-.092-.153,0-1.828.092-2.641.092-.267,0-.418-.06-.418-.211a.2.2,0,0,1,.209-.209,3.871,3.871,0,0,0,.811-.121c.508-.119.568-.6.687-1.349a51.007,51.007,0,0,0,.153-5.518v-4.5c0-3.957,0-4.678-.061-5.486-.06-.87-.211-1.29-1.08-1.413-.209-.027-.658-.058-.9-.058a.255.255,0,0,1-.209-.209c0-.149.121-.209.418-.209,1.2,0,2.878.06,3.031.06.119,0,1.8-.06,2.607-.06.3,0,.42.06.42.209a.255.255,0,0,1-.211.209,3.036,3.036,0,0,0-.658.058c-.721.153-.869.512-.932,1.413-.027.808-.027,1.589-.027,5.546v.539c0,.151.061.151.15.151h11c.09,0,.149,0,.149-.151V101.9c0-3.957-.03-4.738-.059-5.546-.06-.87-.181-1.29-1.049-1.413-.211-.027-.66-.058-.9-.058a.224.224,0,0,1-.209-.209c0-.149.119-.209.42-.209,1.168,0,2.879.06,3,.06.15,0,1.83-.06,2.609-.06.3,0,.45.06.45.209a.257.257,0,0,1-.241.209,3.174,3.174,0,0,0-.658.058c-.691.153-.84.512-.9,1.413-.059.808-.059,1.529-.059,5.486Z" fill="#a7a9ac"/>
        <path d="M144.6,94.106c5.933,0,10.433,3.626,10.433,9.562a10.213,10.213,0,0,1-10.586,10.406c-7.226,0-10.314-5.428-10.314-10.015A10.093,10.093,0,0,1,144.6,94.106Zm.6,18.918c2.367,0,7.137-1.26,7.137-8.635,0-6.115-3.719-9.325-7.887-9.325-4.406,0-7.586,2.76-7.586,8.307C136.863,109.305,140.434,113.024,145.2,113.024Z" fill="#a7a9ac"/>
        <path d="M168.84,94.106c5.934,0,10.434,3.626,10.434,9.562a10.213,10.213,0,0,1-10.586,10.406c-7.227,0-10.315-5.428-10.315-10.015A10.093,10.093,0,0,1,168.84,94.106Zm.6,18.918c2.367,0,7.136-1.26,7.136-8.635,0-6.115-3.718-9.325-7.886-9.325-4.407,0-7.586,2.76-7.586,8.307C161.1,109.305,164.672,113.024,169.438,113.024Z" fill="#a7a9ac"/>
        <path d="M187.2,106.4c0,3.745.061,5.275.539,5.726.42.42,1.44.6,3.508.6,1.381,0,2.549-.03,3.18-.778a3.125,3.125,0,0,0,.629-1.441c.029-.178.119-.33.269-.33.119,0,.18.119.18.39a15.965,15.965,0,0,1-.391,2.549c-.177.6-.267.69-1.677.69-1.889,0-3.36-.029-4.586-.088-1.2-.031-2.1-.063-2.879-.063-.121,0-.571,0-1.082.032-.539.031-1.108.06-1.528.06-.269,0-.42-.06-.42-.211a.2.2,0,0,1,.209-.209,3.842,3.842,0,0,0,.811-.121c.51-.119.568-.6.689-1.349a51.68,51.68,0,0,0,.151-5.518v-4.5c0-3.957,0-4.678-.061-5.486-.06-.87-.211-1.29-1.078-1.413-.211-.027-.66-.058-.9-.058a.253.253,0,0,1-.207-.209c0-.149.119-.209.418-.209,1.2,0,2.847.06,3,.06.119,0,2.1-.06,2.908-.06.268,0,.42.06.42.209,0,.09-.121.182-.211.182-.18,0-.57.027-.869.058-.781.15-.93.539-.99,1.44-.03.808-.03,1.529-.03,5.486Z" fill="#a7a9ac"/>
        <path d="M218.07,94.106c5.934,0,10.432,3.626,10.432,9.562a10.212,10.212,0,0,1-10.584,10.406c-7.227,0-10.314-5.428-10.314-10.015A10.092,10.092,0,0,1,218.07,94.106Zm.6,18.918c2.367,0,7.137-1.26,7.137-8.635,0-6.115-3.719-9.325-7.887-9.325-4.406,0-7.586,2.76-7.586,8.307C210.332,109.305,213.9,113.024,218.668,113.024Z" fill="#a7a9ac"/>
        <path d="M234.035,101.84c0-3.957,0-4.678-.062-5.486-.061-.87-.209-1.29-1.078-1.413-.211-.027-.661-.058-.9-.058a.257.257,0,0,1-.209-.209c0-.149.123-.209.42-.209,1.2,0,2.85.06,3,.06.508,0,6.237.03,6.836,0a5.61,5.61,0,0,0,1.2-.123c.149-.029.27-.148.36-.148.119,0,.179.119.179.238,0,.182-.119.483-.209,1.2-.029.239-.06,1.375-.119,1.676-.031.121-.121.272-.24.272s-.209-.119-.209-.3a2.8,2.8,0,0,0-.242-.959,1.98,1.98,0,0,0-1.8-.75l-4.32-.061c-.149,0-.209.061-.209.272V102.8c0,.15,0,.24.181.24l3.6-.031c.449,0,.838,0,1.2-.027.629-.063.989-.153,1.227-.45.121-.152.242-.271.33-.271.123,0,.152.09.152.209a10.231,10.231,0,0,0-.24,1.41c-.061.51-.09,1.529-.09,1.707,0,.242-.06.512-.242.512-.148,0-.178-.121-.178-.241a3.542,3.542,0,0,0-.181-.929c-.12-.36-.539-.69-1.35-.809-.658-.09-3.775-.06-4.225-.06-.152,0-.181.06-.181.238v2.039c0,2.52,0,4.529.119,5.518.09.75.24,1.23.961,1.349a11.015,11.015,0,0,0,1.2.121.2.2,0,0,1,.211.209c0,.119-.119.211-.418.211-1.471,0-3.178-.092-3.3-.092-.15,0-1.8.092-2.609.092-.27,0-.42-.06-.42-.211a.2.2,0,0,1,.209-.209,7.4,7.4,0,0,0,.812-.121c.508-.09.569-.6.688-1.349a51.341,51.341,0,0,0,.152-5.518Z" fill="#a7a9ac"/>
        <path d="M282.828,109.877c.119,1.078.33,2.756,1.621,3.176a6.476,6.476,0,0,0,1.95.271c.148,0,.238.03.238.149,0,.179-.27.271-.629.271-.66,0-3.9-.092-5.008-.182-.689-.058-.84-.148-.84-.3,0-.119.061-.178.209-.209s.182-.539.119-1.08L279.051,96.5h-.09l-7.346,15.592c-.631,1.32-.72,1.59-.99,1.59-.209,0-.359-.3-.93-1.381-.777-1.467-3.355-6.654-3.507-6.955-.27-.539-3.629-7.735-3.957-8.545h-.122l-1.2,13.912c-.033.48-.033,1.019-.033,1.529a.967.967,0,0,0,.781.932,5.581,5.581,0,0,0,1.139.148c.123,0,.242.059.242.149,0,.211-.182.271-.541.271-1.109,0-2.547-.092-2.789-.092-.27,0-1.709.092-2.518.092-.3,0-.509-.06-.509-.271,0-.09.148-.149.3-.149a3.849,3.849,0,0,0,.9-.09c.99-.181,1.078-1.351,1.2-2.488l2.16-19.551c.028-.33.149-.539.328-.539s.3.119.45.45l9.175,18.859,8.817-18.828c.119-.272.238-.481.449-.481s.3.24.357.809Z" fill="#a7a9ac"/>
        <path d="M291.334,101.84c0-3.957,0-4.678-.06-5.486-.063-.87-.211-1.29-1.081-1.413-.209-.027-.658-.058-.9-.058a.257.257,0,0,1-.211-.209c0-.149.123-.209.422-.209,1.2,0,2.91.06,3.059.06.179,0,5.7.03,6.3,0,.51-.033.989-.123,1.2-.152.123-.029.242-.119.361-.119.09,0,.121.119.121.238,0,.182-.15.483-.211,1.2-.029.239-.09,1.375-.148,1.676-.031.121-.123.272-.242.272-.149,0-.211-.119-.211-.331a2.772,2.772,0,0,0-.149-.9c-.179-.42-.449-.6-1.888-.779-.45-.061-3.51-.09-3.807-.09-.121,0-.152.09-.152.271v6.926c0,.178,0,.268.152.268.33,0,3.807,0,4.406-.059.631-.06,1.02-.09,1.289-.359.182-.18.3-.33.391-.33s.148.06.148.209-.148.57-.209,1.41c-.06.51-.119,1.469-.119,1.648,0,.211-.062.481-.24.481-.119,0-.18-.092-.18-.24a2.278,2.278,0,0,0-.119-.84c-.092-.36-.33-.659-1.351-.779-.719-.09-3.538-.12-3.987-.12a.158.158,0,0,0-.181.178v2.129c0,.871-.028,3.838,0,4.348.062,1.71.541,2.039,3.15,2.039a8.836,8.836,0,0,0,2.637-.268,1.94,1.94,0,0,0,1.2-1.771c.058-.3.119-.391.269-.391s.18.211.18.391a21.1,21.1,0,0,1-.361,2.459c-.178.66-.449.66-1.467.66-1.981,0-3.508-.059-4.588-.088-1.111-.063-1.8-.063-2.189-.063-.059,0-.571,0-1.141.032-.508.031-1.109.06-1.527.06-.27,0-.422-.06-.422-.211a.2.2,0,0,1,.211-.209,7.441,7.441,0,0,0,.81-.121c.508-.09.569-.6.69-1.349a52.023,52.023,0,0,0,.15-5.518Z" fill="#a7a9ac"/>
        <path d="M307.863,101.84c0-3.957,0-4.678-.062-5.486-.061-.87-.209-1.29-1.078-1.413-.211-.027-.66-.058-.9-.058a.257.257,0,0,1-.209-.209c0-.149.123-.209.42-.209,1.2,0,2.91.06,3.059.06.3,0,1.98-.06,3.539-.06,2.639,0,7.465-.24,10.586,2.906a8.971,8.971,0,0,1,2.578,6.477,10.2,10.2,0,0,1-2.85,7.166c-1.14,1.17-3.509,2.939-8,2.939-1.141,0-2.549-.09-3.69-.15-1.137-.088-2.037-.151-2.158-.151-.059,0-.539.032-1.078.032-.539.031-1.17.06-1.59.06-.27,0-.42-.06-.42-.211a.2.2,0,0,1,.209-.209,3.9,3.9,0,0,0,.813-.121c.507-.119.568-.6.687-1.349a51.341,51.341,0,0,0,.152-5.518Zm2.4,2.758c0,2.7,0,5.068.029,5.546a4.8,4.8,0,0,0,.3,1.829c.328.482,1.26,1.021,4.377,1.021a8.846,8.846,0,0,0,6.178-2.31c1.379-1.29,2.07-3.717,2.07-6.057a8.841,8.841,0,0,0-2.492-6.387c-2.487-2.517-5.4-2.846-8.543-2.846a7.148,7.148,0,0,0-1.59.178.447.447,0,0,0-.33.51Z" fill="#a7a9ac"/>
        <path d="M334.262,106.336c0,2.459,0,4.469.119,5.518.09.75.182,1.23.959,1.349a11.07,11.07,0,0,0,1.2.121.2.2,0,0,1,.211.209c0,.119-.121.211-.422.211-1.467,0-3.176-.092-3.295-.092-.15,0-1.8.092-2.609.092-.27,0-.42-.06-.42-.211a.2.2,0,0,1,.209-.209,3.88,3.88,0,0,0,.811-.121c.511-.119.6-.6.689-1.349.119-1.049.15-3.059.15-5.518v-4.5c0-3.957,0-4.678-.06-5.486-.061-.87-.268-1.26-.84-1.379a4.673,4.673,0,0,0-.809-.092.223.223,0,0,1-.209-.209c0-.149.12-.209.42-.209.869,0,2.518.06,2.668.06.119,0,1.828-.06,2.637-.06.3,0,.42.06.42.209a.253.253,0,0,1-.211.209,3.04,3.04,0,0,0-.658.058c-.721.153-.869.512-.93,1.413-.029.808-.029,1.529-.029,5.486Z" fill="#a7a9ac"/>
        <path d="M343.324,111.344a9.552,9.552,0,0,1-3.211-7.557,10.062,10.062,0,0,1,2.969-6.955c1.59-1.527,3.988-2.726,8.037-2.726a25.978,25.978,0,0,1,3.838.3,18.425,18.425,0,0,0,2.7.391c.272,0,.33.121.33.271,0,.21-.058.508-.119,1.438-.029.84-.029,2.248-.06,2.611-.031.387-.151.539-.3.539-.182,0-.209-.181-.209-.539a3.329,3.329,0,0,0-1.111-2.551A8.581,8.581,0,0,0,351,95.152c-3.389,0-5.008.9-5.937,1.77-1.95,1.8-2.37,4.078-2.37,6.658a9.262,9.262,0,0,0,9.506,9.232c1.977,0,3.3-.148,4.348-1.2a4.761,4.761,0,0,0,1.018-2.129c.06-.271.089-.359.271-.359.119,0,.238.178.238.359a26.727,26.727,0,0,1-.629,3.268c-.148.48-.211.57-.66.75a15.585,15.585,0,0,1-4.767.57C348.061,114.074,345.391,113.143,343.324,111.344Z" fill="#a7a9ac"/>
        <path d="M366.75,106.336c0,2.459,0,4.469.119,5.518.09.75.18,1.23.959,1.349a11.021,11.021,0,0,0,1.2.121.2.2,0,0,1,.209.209c0,.119-.119.211-.416.211-1.47,0-3.179-.092-3.3-.092-.153,0-1.8.092-2.612.092-.267,0-.418-.06-.418-.211a.2.2,0,0,1,.209-.209,3.871,3.871,0,0,0,.811-.121c.508-.119.6-.6.687-1.349.121-1.049.153-3.059.153-5.518v-4.5c0-3.957,0-4.678-.061-5.486-.06-.87-.271-1.26-.84-1.379a4.673,4.673,0,0,0-.808-.092.221.221,0,0,1-.209-.209c0-.149.119-.209.418-.209.871,0,2.517.06,2.67.06.119,0,1.828-.06,2.636-.06.3,0,.42.06.42.209a.255.255,0,0,1-.211.209,3.036,3.036,0,0,0-.658.058c-.721.153-.869.512-.932,1.413-.027.808-.027,1.529-.027,5.486Z" fill="#a7a9ac"/>
        <path d="M376.531,110.266c.063,2.1.3,2.728,1.022,2.91a6.285,6.285,0,0,0,1.318.148.2.2,0,0,1,.209.209c0,.151-.18.211-.48.211-1.5,0-2.549-.092-2.787-.092s-1.348.092-2.551.092c-.268,0-.418-.029-.418-.211a.2.2,0,0,1,.209-.209,4.18,4.18,0,0,0,1.08-.148c.66-.182.75-.873.75-3.18v-14.6c0-1.021.15-1.288.359-1.288.3,0,.75.507,1.02.777.418.422,4.258,4.5,8.336,8.7,2.607,2.7,5.427,5.725,6.236,6.564l-.269-12.773c-.032-1.648-.18-2.219-.991-2.367a8.458,8.458,0,0,0-1.289-.121.21.21,0,0,1-.211-.239c0-.152.211-.179.512-.179,1.2,0,2.457.06,2.758.06s1.17-.06,2.248-.06c.271,0,.482.027.482.179a.3.3,0,0,1-.3.239,3.086,3.086,0,0,0-.631.058c-.869.182-.93.692-.93,2.221l-.059,14.932c0,1.68-.031,1.83-.209,1.83-.271,0-.543-.209-2.009-1.561-.272-.238-4.08-3.988-6.87-6.9-3.054-3.207-6.023-6.326-6.835-7.227Z" fill="#a7a9ac"/>
        <path d="M399.813,101.84c0-3.957,0-4.678-.061-5.486-.061-.87-.209-1.29-1.08-1.413-.209-.027-.658-.058-.9-.058a.253.253,0,0,1-.207-.209c0-.149.119-.209.418-.209,1.2,0,2.91.06,3.058.06.182,0,5.7.03,6.3,0,.51-.033.988-.123,1.2-.152a1.8,1.8,0,0,1,.364-.119c.089,0,.119.119.119.238,0,.182-.151.483-.211,1.2-.03.239-.09,1.375-.149,1.676-.031.121-.123.272-.242.272-.148,0-.209-.119-.209-.331a2.822,2.822,0,0,0-.148-.9c-.182-.42-.45-.6-1.891-.779-.449-.061-3.508-.09-3.809-.09-.119,0-.148.09-.148.271v6.926c0,.178,0,.268.148.268.332,0,3.809,0,4.411-.059.629-.06,1.017-.09,1.289-.359.179-.18.3-.33.39-.33s.149.06.149.209-.149.57-.211,1.41c-.061.51-.119,1.469-.119,1.648,0,.211-.061.481-.241.481-.119,0-.179-.092-.179-.24a2.278,2.278,0,0,0-.119-.84c-.092-.36-.33-.659-1.35-.779-.721-.09-3.539-.12-3.988-.12-.151,0-.18.09-.18.178v2.129c0,.871-.029,3.838,0,4.348.061,1.71.539,2.039,3.148,2.039a8.823,8.823,0,0,0,2.637-.268,1.934,1.934,0,0,0,1.2-1.771c.059-.3.119-.391.27-.391s.18.211.18.391a20.5,20.5,0,0,1-.362,2.459c-.177.66-.449.66-1.467.66-1.98,0-3.507-.059-4.587-.088-1.11-.063-1.8-.063-2.19-.063-.058,0-.568,0-1.141.032-.507.031-1.107.06-1.527.06-.269,0-.42-.06-.42-.211a.2.2,0,0,1,.209-.209,7.386,7.386,0,0,0,.811-.121c.511-.09.57-.6.689-1.349a51.68,51.68,0,0,0,.151-5.518Z" fill="#a7a9ac"/>
      </g>
      <g>
        <g>
          <path d="M71.856,63.043c0-5.8,0-6.844-.073-8.031-.076-1.266-.373-1.862-1.6-2.121a6.9,6.9,0,0,0-1.264-.112c-.15,0-.3-.076-.3-.224,0-.223.186-.3.594-.3,1.676,0,3.943.109,4.277.109s2.569-.109,3.684-.109c.408,0,.594.072.594.3,0,.148-.149.224-.3.224a5.462,5.462,0,0,0-.932.112c-1,.148-1.3.818-1.375,2.121-.074,1.187-.074,2.23-.074,8.031V68.25c0,5.357,1.189,7.664,2.789,9.187A7.271,7.271,0,0,0,83.5,79.484a7.806,7.806,0,0,0,5.84-2.679c1.713-2.119,2.16-5.281,2.16-9.112v-4.65c0-5.8,0-6.844-.076-8.031-.074-1.266-.371-1.862-1.6-2.121a6.883,6.883,0,0,0-1.265-.112c-.149,0-.3-.076-.3-.224,0-.223.187-.3.6-.3,1.673,0,3.72.109,3.943.109.262,0,2.008-.109,3.125-.109.406,0,.6.072.6.3,0,.148-.151.224-.3.224a5.465,5.465,0,0,0-.93.112c-1.006.222-1.3.818-1.377,2.121-.072,1.187-.072,2.23-.072,8.031v3.982c0,4.016-.447,8.479-3.424,11.119A10.891,10.891,0,0,1,82.754,80.9c-1.264,0-5.021-.148-7.66-2.64-1.824-1.748-3.238-4.352-3.238-9.781Z" fill="#a7a9ac"/>
          <path d="M102.063,76.062c.072,2.6.371,3.385,1.263,3.606a7.722,7.722,0,0,0,1.635.188.254.254,0,0,1,.262.259c0,.186-.223.262-.6.262-1.859,0-3.162-.111-3.459-.111s-1.672.111-3.162.111c-.334,0-.52-.039-.52-.262a.254.254,0,0,1,.262-.259,5.124,5.124,0,0,0,1.338-.188c.816-.221.93-1.078.93-3.941V57.613c0-1.265.185-1.6.447-1.6.371,0,.93.632,1.264.966.519.524,5.281,5.579,10.339,10.788,3.235,3.345,6.731,7.1,7.737,8.146l-.334-15.844c-.039-2.046-.225-2.754-1.229-2.941a10.681,10.681,0,0,0-1.6-.149c-.223,0-.26-.185-.26-.3,0-.186.26-.223.631-.223,1.49,0,3.051.074,3.424.074s1.451-.074,2.787-.074c.336,0,.6.037.6.223a.37.37,0,0,1-.371.3,3.571,3.571,0,0,0-.781.077c-1.08.222-1.152.853-1.152,2.752l-.076,18.523c0,2.082-.038,2.268-.262,2.268-.334,0-.67-.262-2.49-1.934-.334-.3-5.059-4.947-8.518-8.555-3.8-3.98-7.477-7.847-8.479-8.962Z" fill="#a7a9ac"/>
          <path d="M133.9,71.189c0,3.049,0,5.543.151,6.844.111.93.22,1.526,1.191,1.672a12.95,12.95,0,0,0,1.487.151.251.251,0,0,1,.259.259c0,.151-.148.262-.521.262-1.822,0-3.944-.111-4.092-.111-.186,0-2.23.111-3.234.111-.336,0-.52-.076-.52-.262a.25.25,0,0,1,.258-.259,4.621,4.621,0,0,0,1.006-.151c.633-.146.742-.742.853-1.672.151-1.3.188-3.8.188-6.844V65.611c0-4.91,0-5.8-.074-6.806-.077-1.078-.334-1.563-1.043-1.711a5.839,5.839,0,0,0-1-.114.278.278,0,0,1-.26-.257c0-.188.148-.262.521-.262,1.079,0,3.123.074,3.309.074.148,0,2.27-.074,3.273-.074.372,0,.52.074.52.262a.314.314,0,0,1-.258.257,3.52,3.52,0,0,0-.818.077c-.893.185-1.078.632-1.155,1.748-.037,1-.037,1.9-.037,6.806Z" fill="#a7a9ac"/>
          <path d="M152.578,76.248c1.9-4.24,6.172-15.025,6.881-17.3a5.416,5.416,0,0,0,.3-1.191.665.665,0,0,0-.447-.668,3.72,3.72,0,0,0-1.116-.114c-.187,0-.371-.109-.371-.257,0-.188.221-.262.742-.262,1.3,0,2.79.074,3.2.074.187,0,1.6-.074,2.568-.074.334,0,.52.074.52.223s-.112.3-.371.3a3.014,3.014,0,0,0-1.563.375c-.445.3-.967.743-1.824,2.9-.371.9-1.969,4.685-3.645,8.555-2.006,4.613-3.459,8.033-4.2,9.595-.892,1.9-1.08,2.381-1.414,2.381-.371,0-.6-.408-1.228-1.933l-8.032-19.379c-.744-1.784-1.191-2.118-2.269-2.379a6.207,6.207,0,0,0-1.266-.114.281.281,0,0,1-.258-.3c0-.186.334-.223.854-.223,1.562,0,3.424.074,3.83.074.336,0,1.785-.074,3.051-.074.593,0,.892.074.892.223a.3.3,0,0,1-.334.3,4.075,4.075,0,0,0-1.191.149.522.522,0,0,0-.371.56,13.275,13.275,0,0,0,.892,2.639Z" fill="#a7a9ac"/>
          <path d="M169.688,65.611c0-4.91,0-5.8-.073-6.806-.076-1.078-.261-1.6-1.34-1.748a10.276,10.276,0,0,0-1.115-.077.316.316,0,0,1-.26-.257c0-.188.149-.262.52-.262,1.486,0,3.609.074,3.8.074.223,0,7.064.039,7.809,0,.632-.037,1.228-.148,1.49-.187.146-.036.295-.149.443-.149.113,0,.151.149.151.3,0,.225-.186.6-.26,1.488-.039.3-.112,1.709-.188,2.084-.037.149-.146.334-.295.334-.189,0-.261-.15-.261-.41a3.489,3.489,0,0,0-.186-1.115c-.225-.522-.559-.742-2.344-.969-.556-.072-4.351-.111-4.724-.111-.149,0-.186.111-.186.338v8.59c0,.222,0,.335.186.335.41,0,4.724,0,5.468-.076.782-.074,1.266-.111,1.6-.445.223-.225.371-.41.484-.41s.184.074.184.262-.184.7-.26,1.748c-.074.633-.15,1.82-.15,2.043,0,.261-.072.595-.295.595-.148,0-.225-.109-.225-.3a2.816,2.816,0,0,0-.148-1.041c-.113-.445-.408-.816-1.672-.966-.9-.112-4.391-.149-4.949-.149a.2.2,0,0,0-.223.223v2.64c0,1.08-.035,4.762,0,5.393.076,2.121.67,2.531,3.906,2.531a10.845,10.845,0,0,0,3.272-.336,2.4,2.4,0,0,0,1.49-2.2c.072-.373.149-.482.334-.482s.223.259.223.482a25.864,25.864,0,0,1-.448,3.051c-.222.816-.556.816-1.82.816-2.457,0-4.353-.072-5.691-.111-1.377-.072-2.233-.072-2.715-.072-.076,0-.709,0-1.414.035-.633.037-1.377.076-1.9.076-.334,0-.521-.076-.521-.262a.251.251,0,0,1,.26-.259,8.917,8.917,0,0,0,1.006-.151c.632-.109.705-.742.855-1.672a65.247,65.247,0,0,0,.184-6.844Z" fill="#a7a9ac"/>
          <path d="M187.211,65.611c0-4.91,0-5.8-.074-6.806-.074-1.078-.262-1.6-1.34-1.748a10.258,10.258,0,0,0-1.115-.077.314.314,0,0,1-.26-.257c0-.188.148-.262.519-.262,1.489,0,3.684.074,3.868.074.338,0,3.09-.074,4.093-.074,2.082,0,4.389.185,6.1,1.377a5.542,5.542,0,0,1,2.268,4.314c0,2.344-.965,4.612-4.016,7.215,2.676,3.346,4.947,6.211,6.844,8.184,1.748,1.783,2.828,2.082,3.644,2.193a6,6,0,0,0,1.153.112.289.289,0,0,1,.3.259c0,.186-.185.262-.781.262h-2.047a6.59,6.59,0,0,1-3.5-.633c-1.412-.744-2.6-2.269-4.463-4.65-1.377-1.709-2.826-3.754-3.531-4.612a.5.5,0,0,0-.447-.185l-4.166-.074c-.149,0-.225.074-.225.259v.745c0,3.048,0,5.5.151,6.806.111.93.3,1.526,1.3,1.672a11.75,11.75,0,0,0,1.45.151.232.232,0,0,1,.261.259c0,.151-.148.262-.519.262-1.785,0-3.871-.111-4.02-.111-.035,0-2.23.111-3.234.111-.334,0-.52-.076-.52-.262a.25.25,0,0,1,.258-.259,4.585,4.585,0,0,0,1.006-.151c.633-.146.705-.742.855-1.672a64.548,64.548,0,0,0,.186-6.844Zm2.826,2.678a.465.465,0,0,0,.225.408,11.038,11.038,0,0,0,3.6.483,4.266,4.266,0,0,0,2.457-.555c1.116-.746,1.971-2.42,1.971-4.838,0-3.943-2.156-6.211-5.652-6.211a14.409,14.409,0,0,0-2.344.186.407.407,0,0,0-.262.375Z" fill="#a7a9ac"/>
          <path d="M208.377,79.93c-.447-.225-.482-.334-.482-1.192,0-1.558.148-2.824.185-3.347,0-.334.076-.52.26-.52s.3.113.3.371a4.882,4.882,0,0,0,.109,1.157c.524,2.3,2.977,3.12,5.172,3.12,3.234,0,4.908-1.82,4.908-4.2,0-2.267-1.226-3.347-4.127-5.506l-1.49-1.115c-3.531-2.642-4.684-4.576-4.684-6.769,0-3.719,2.936-5.951,7.252-5.951a15.972,15.972,0,0,1,3.385.371,4.215,4.215,0,0,0,1.152.15c.262,0,.334.037.334.225,0,.148-.148,1.187-.148,3.347,0,.483-.037.7-.26.7s-.261-.15-.3-.408a5.822,5.822,0,0,0-.484-1.562c-.225-.373-1.3-1.563-4.24-1.563-2.381,0-4.35,1.19-4.35,3.42,0,2.01,1,3.162,4.238,5.357l.93.633c3.979,2.715,5.356,4.909,5.356,7.623a6.157,6.157,0,0,1-3.049,5.393,10.026,10.026,0,0,1-5.207,1.117A12.029,12.029,0,0,1,208.377,79.93Z" fill="#a7a9ac"/>
          <path d="M230.621,71.189c0,3.049,0,5.543.149,6.844.113.93.222,1.526,1.191,1.672a12.987,12.987,0,0,0,1.488.151.253.253,0,0,1,.26.259c0,.151-.148.262-.521.262-1.823,0-3.944-.111-4.092-.111-.186,0-2.233.111-3.237.111-.334,0-.519-.076-.519-.262a.251.251,0,0,1,.26-.259,4.621,4.621,0,0,0,1.006-.151c.632-.146.742-.742.853-1.672.15-1.3.186-3.8.186-6.844V65.611c0-4.91,0-5.8-.073-6.806-.076-1.078-.334-1.563-1.043-1.711a5.818,5.818,0,0,0-1-.114.278.278,0,0,1-.259-.257c0-.188.148-.262.521-.262,1.076,0,3.123.074,3.309.074.148,0,2.269-.074,3.273-.074.371,0,.52.074.52.262a.316.316,0,0,1-.258.257,3.516,3.516,0,0,0-.818.077c-.895.185-1.079.632-1.155,1.748-.037,1-.037,1.9-.037,6.806Z" fill="#a7a9ac"/>
          <path d="M248.512,71.189c0,3.049,0,5.543.148,6.844.114.93.262,1.526,1.266,1.672a12.228,12.228,0,0,0,1.488.151.231.231,0,0,1,.26.259c0,.151-.15.262-.522.262-1.783,0-3.867-.111-4.054-.111-.149,0-2.416.111-3.383.111-.371,0-.52-.076-.52-.262,0-.111.073-.221.258-.221a4.4,4.4,0,0,0,.969-.15c.67-.148.855-.781.967-1.711.15-1.3.15-3.8.15-6.844V57.91l-4.724.076c-2.047.038-2.829.26-3.311,1a5.053,5.053,0,0,0-.52,1c-.076.26-.187.3-.335.3a.246.246,0,0,1-.225-.26c0-.336.67-3.16.709-3.422.072-.185.223-.595.334-.595a11.314,11.314,0,0,0,1.451.373c.93.111,2.193.148,2.565.148h12.349a16.41,16.41,0,0,0,2.344-.148c.482-.075.781-.149.928-.149s.148.186.148.371c0,.967-.109,3.235-.109,3.61,0,.258-.151.406-.3.406s-.225-.109-.262-.555l-.035-.336c-.113-.966-.818-1.673-3.943-1.748l-4.092-.076Z" fill="#a7a9ac"/>
          <path d="M270.014,72.156a5.62,5.62,0,0,0-.709-3.234c-.258-.486-4.684-7.516-5.8-9.188a8.207,8.207,0,0,0-2.158-2.306,3.2,3.2,0,0,0-1.377-.448.326.326,0,0,1-.334-.3c0-.149.111-.223.41-.223.633,0,3.086.074,3.234.074.225,0,1.563-.074,2.829-.074.373,0,.447.074.447.223,0,.111-.223.224-.522.335a.548.548,0,0,0-.41.52,2.62,2.62,0,0,0,.447,1.229l5.95,9.857c.671-1.342,4.761-8.109,5.357-9.152a3.358,3.358,0,0,0,.559-1.635c0-.447-.149-.709-.522-.819-.3-.074-.484-.224-.484-.373,0-.111.187-.185.523-.185.854,0,2.006.074,2.268.074.22,0,2.564-.074,3.2-.074.223,0,.41.074.41.185a.379.379,0,0,1-.41.334,3.367,3.367,0,0,0-1.525.411,5.692,5.692,0,0,0-1.635,1.562c-1.08,1.266-5.692,8.7-6.361,10.043a6.326,6.326,0,0,0-.409,3.16v2.715c0,.52,0,1.861.112,3.162.076.93.3,1.526,1.263,1.672a12.29,12.29,0,0,0,1.491.151.249.249,0,0,1,.257.259c0,.151-.185.262-.519.262-1.824,0-3.943-.111-4.129-.111-.148,0-2.23.111-3.2.111-.375,0-.524-.076-.524-.262a.253.253,0,0,1,.262-.259,4.283,4.283,0,0,0,.967-.151c.67-.146.892-.742.967-1.672.076-1.3.076-2.642.076-3.162Z" fill="#a7a9ac"/>
        </g>
        <g>
          <path d="M350.168,75.611c.148,1.33.406,3.4,1.994,3.916a8.021,8.021,0,0,0,2.4.332c.183,0,.3.037.3.184,0,.223-.333.332-.776.332-.812,0-4.8-.109-6.166-.221-.85-.076-1.035-.185-1.035-.371,0-.146.072-.219.26-.256s.22-.666.144-1.33l-1.771-19.056h-.11l-9.045,19.205c-.777,1.623-.89,1.955-1.222,1.955-.258,0-.442-.367-1.141-1.7-.963-1.809-4.137-8.2-4.322-8.567-.332-.664-4.467-9.527-4.875-10.523h-.147l-1.476,17.134c-.037.592-.037,1.256-.037,1.883a1.18,1.18,0,0,0,.959,1.145,6.928,6.928,0,0,0,1.4.185c.147,0,.3.075.3.184,0,.258-.223.332-.664.332-1.367,0-3.141-.109-3.436-.109-.332,0-2.1.109-3.1.109-.367,0-.627-.074-.627-.332,0-.109.185-.184.369-.184a4.658,4.658,0,0,0,1.109-.113c1.217-.219,1.33-1.66,1.477-3.062l2.658-24.079c.037-.4.186-.664.408-.664s.368.149.555.555l11.3,23.227L346.7,52.533c.149-.332.3-.592.555-.592s.371.3.443,1Z" fill="#a7a9ac"/>
          <path d="M366.393,57.26c.4-1.033.554-1.219.775-1.219.332,0,.443.443.775,1.145.59,1.328,5.8,14.291,7.793,19.052,1.182,2.809,2.069,3.213,2.768,3.436a4.584,4.584,0,0,0,1.293.185c.184,0,.406.075.406.258s-.367.258-.738.258c-.481,0-2.879,0-5.133-.074-.627-.035-1.144-.035-1.144-.223,0-.144.072-.144.222-.219a.591.591,0,0,0,.295-.849l-2.918-7.2c-.072-.149-.109-.184-.295-.184H363a.344.344,0,0,0-.334.258l-1.846,5.023a6.5,6.5,0,0,0-.478,2.1c0,.627.553.849,1.1.849h.3c.26,0,.332.11.332.258,0,.184-.181.258-.476.258-.778,0-2.551-.109-2.918-.109-.332,0-1.959.109-3.287.109-.408,0-.627-.074-.627-.258a.284.284,0,0,1,.3-.258,9.06,9.06,0,0,0,.959-.076c1.478-.181,2.1-1.291,2.732-2.877Zm3.619,13.07c.148,0,.148-.072.111-.219L366.91,61.5q-.277-.715-.554,0l-3.028,8.607c-.035.147,0,.219.11.219Z" fill="#a7a9ac"/>
          <path d="M383.016,65.717c0-4.877,0-5.762-.073-6.758-.074-1.072-.259-1.59-1.328-1.736a10.476,10.476,0,0,0-1.109-.074.317.317,0,0,1-.258-.258c0-.186.149-.258.518-.258,1.476,0,3.654.072,3.84.072.332,0,3.064-.072,4.062-.072,2.066,0,4.356.183,6.055,1.367a5.5,5.5,0,0,1,2.254,4.281c0,2.326-.963,4.58-3.991,7.164,2.659,3.324,4.913,6.166,6.8,8.125,1.737,1.772,2.809,2.067,3.618,2.176a5.886,5.886,0,0,0,1.146.113.284.284,0,0,1,.295.258c0,.184-.184.258-.774.258h-2.031a6.529,6.529,0,0,1-3.472-.629c-1.4-.736-2.586-2.25-4.43-4.613-1.367-1.7-2.809-3.731-3.51-4.58a.5.5,0,0,0-.441-.186l-4.135-.074c-.15,0-.223.074-.223.26v.74c0,3.027,0,5.463.147,6.754.111.926.3,1.517,1.293,1.664a12.311,12.311,0,0,0,1.441.148.229.229,0,0,1,.256.258c0,.149-.146.258-.516.258-1.771,0-3.839-.109-3.988-.109-.037,0-2.215.109-3.213.109-.332,0-.515-.074-.515-.258a.249.249,0,0,1,.259-.258,4.788,4.788,0,0,0,1-.148c.627-.147.7-.738.848-1.664a64.226,64.226,0,0,0,.184-6.791Zm2.808,2.658a.46.46,0,0,0,.223.406,11,11,0,0,0,3.58.481,4.221,4.221,0,0,0,2.438-.555c1.107-.74,1.957-2.4,1.957-4.8,0-3.914-2.143-6.166-5.612-6.166a14.156,14.156,0,0,0-2.328.184.4.4,0,0,0-.258.371Z" fill="#a7a9ac"/>
          <path d="M410.131,72.215a5.618,5.618,0,0,0-.7-3.213c-.258-.481-4.653-7.459-5.762-9.121a8.2,8.2,0,0,0-2.141-2.289,3.2,3.2,0,0,0-1.367-.443.327.327,0,0,1-.332-.3c0-.149.11-.221.405-.221.626,0,3.066.072,3.212.072.223,0,1.551-.072,2.809-.072.367,0,.441.072.441.221,0,.111-.218.222-.517.332a.545.545,0,0,0-.4.517,2.579,2.579,0,0,0,.443,1.219l5.908,9.785c.664-1.33,4.727-8.049,5.316-9.084A3.333,3.333,0,0,0,417.994,58c0-.445-.146-.7-.515-.814-.295-.073-.481-.221-.481-.37,0-.111.186-.183.518-.183.849,0,1.994.072,2.25.072.222,0,2.55-.072,3.177-.072.221,0,.409.072.409.183a.38.38,0,0,1-.409.333,3.328,3.328,0,0,0-1.513.406,5.641,5.641,0,0,0-1.625,1.55c-1.071,1.258-5.649,8.643-6.315,9.971a6.278,6.278,0,0,0-.406,3.139V74.91c0,.518,0,1.846.111,3.137.073.926.3,1.517,1.254,1.664a12.882,12.882,0,0,0,1.481.148.25.25,0,0,1,.256.258c0,.149-.184.258-.516.258-1.811,0-3.916-.109-4.1-.109-.148,0-2.216.109-3.175.109-.37,0-.518-.074-.518-.258a.249.249,0,0,1,.26-.258,4.424,4.424,0,0,0,.959-.148c.666-.147.885-.738.961-1.664.074-1.291.074-2.619.074-3.137Z" fill="#a7a9ac"/>
          <path d="M430.668,71.328c0,4.615.074,6.5.666,7.055.516.516,1.772.736,4.318.736,1.7,0,3.141-.037,3.914-.959a3.818,3.818,0,0,0,.778-1.773c.035-.221.148-.405.332-.405.148,0,.221.147.221.479a19.7,19.7,0,0,1-.481,3.141c-.221.736-.332.847-2.068.847-2.326,0-4.135-.039-5.649-.111-1.476-.037-2.586-.072-3.545-.072-.146,0-.7,0-1.328.035-.666.037-1.367.074-1.885.074-.332,0-.515-.074-.515-.258a.25.25,0,0,1,.258-.258,4.778,4.778,0,0,0,1-.148c.629-.147.7-.738.851-1.664a64.929,64.929,0,0,0,.182-6.791V65.717c0-4.877,0-5.762-.072-6.758-.075-1.072-.26-1.59-1.328-1.736a10.477,10.477,0,0,0-1.11-.074.317.317,0,0,1-.258-.258c0-.186.149-.258.518-.258,1.477,0,3.508.072,3.691.072.149,0,2.584-.072,3.58-.072.332,0,.52.072.52.258,0,.109-.148.222-.26.222-.22,0-.7.036-1.068.073-.963.183-1.147.664-1.223,1.773-.035,1-.035,1.881-.035,6.758Z" fill="#a7a9ac"/>
          <path d="M453.5,57.26c.406-1.033.555-1.219.778-1.219.332,0,.441.443.773,1.145.592,1.328,5.8,14.291,7.793,19.052,1.182,2.809,2.068,3.213,2.769,3.436a4.576,4.576,0,0,0,1.291.185c.186,0,.409.075.409.258s-.369.258-.741.258c-.478,0-2.878,0-5.13-.074-.629-.035-1.147-.035-1.147-.223,0-.144.074-.144.223-.219a.589.589,0,0,0,.3-.849l-2.918-7.2c-.073-.149-.11-.184-.3-.184H450.1a.345.345,0,0,0-.336.258l-1.844,5.023a6.435,6.435,0,0,0-.481,2.1c0,.627.553.849,1.108.849h.3c.258,0,.332.11.332.258,0,.184-.184.258-.479.258-.775,0-2.548-.109-2.918-.109-.332,0-1.957.109-3.285.109-.408,0-.627-.074-.627-.258a.283.283,0,0,1,.295-.258,9.081,9.081,0,0,0,.959-.076c1.477-.181,2.106-1.291,2.733-2.877Zm3.619,13.07c.149,0,.149-.072.112-.219L454.016,61.5c-.188-.477-.369-.477-.555,0l-3.027,8.607c-.037.147,0,.219.109.219Z" fill="#a7a9ac"/>
          <path d="M472.965,76.092c.074,2.586.369,3.359,1.254,3.582a7.874,7.874,0,0,0,1.627.185.254.254,0,0,1,.26.258c0,.184-.223.258-.592.258-1.848,0-3.139-.109-3.436-.109s-1.662.109-3.138.109c-.332,0-.516-.037-.516-.258a.251.251,0,0,1,.26-.258,5.213,5.213,0,0,0,1.328-.185c.812-.223.922-1.072.922-3.914V57.777c0-1.256.185-1.589.445-1.589.367,0,.922.628,1.254.961.517.519,5.244,5.539,10.266,10.708,3.21,3.323,6.683,7.053,7.681,8.086l-.334-15.73c-.037-2.031-.221-2.733-1.219-2.916a10.368,10.368,0,0,0-1.587-.148c-.221,0-.258-.184-.258-.3,0-.186.258-.221.627-.221,1.476,0,3.027.072,3.4.072s1.442-.072,2.77-.072c.332,0,.589.035.589.221a.365.365,0,0,1-.369.3,3.654,3.654,0,0,0-.775.074c-1.07.222-1.145.849-1.145,2.732L492.2,78.346c0,2.064-.037,2.252-.258,2.252-.332,0-.664-.26-2.474-1.92-.332-.3-5.022-4.912-8.457-8.494-3.768-3.954-7.422-7.79-8.418-8.9Z" fill="#a7a9ac"/>
          <path d="M498.676,65.717c0-4.877,0-5.762-.074-6.758-.073-1.072-.258-1.59-1.328-1.736a10.439,10.439,0,0,0-1.108-.074.317.317,0,0,1-.26-.258c0-.186.149-.258.518-.258,1.478,0,3.582.072,3.767.072.37,0,2.438-.072,4.356-.072,3.25,0,9.195-.3,13.035,3.58a11.03,11.03,0,0,1,3.176,7.976,12.574,12.574,0,0,1-3.508,8.827c-1.4,1.439-4.32,3.617-9.859,3.617-1.4,0-3.139-.109-4.543-.184-1.4-.111-2.51-.183-2.657-.183-.076,0-.666.035-1.33.035-.664.037-1.441.074-1.959.074-.332,0-.515-.074-.515-.258a.251.251,0,0,1,.26-.258,4.778,4.778,0,0,0,1-.148c.627-.147.7-.738.849-1.664a64.226,64.226,0,0,0,.184-6.791Zm2.953,3.4c0,3.324,0,6.239.037,6.83a5.946,5.946,0,0,0,.371,2.254c.4.59,1.551,1.254,5.391,1.254a10.9,10.9,0,0,0,7.607-2.842c1.7-1.59,2.547-4.58,2.547-7.46a10.879,10.879,0,0,0-3.064-7.864c-3.065-3.1-6.647-3.508-10.526-3.508a8.513,8.513,0,0,0-1.955.223.551.551,0,0,0-.408.627Z" fill="#a7a9ac"/>
        </g>
        <g>
          <path d="M299.412,68.695a8.778,8.778,0,0,1-1.125,4.211,8.534,8.534,0,0,1-3.142,3.3,7.545,7.545,0,0,1-3.916,1.219,4.256,4.256,0,0,1-3.168-1.241,4.364,4.364,0,0,1-1.227-3.212,8.379,8.379,0,0,1,1.2-4.182,9.08,9.08,0,0,1,3.2-3.32,7.476,7.476,0,0,1,3.879-1.219,4.141,4.141,0,0,1,3.086,1.232A4.381,4.381,0,0,1,299.412,68.695Zm-2.353-.98a2.883,2.883,0,0,0-.645-2.02,2.162,2.162,0,0,0-1.668-.7q-2.082,0-3.834,2.986a11.628,11.628,0,0,0-1.754,5.934,2.941,2.941,0,0,0,.682,2.078,2.244,2.244,0,0,0,1.717.731q2,0,3.752-2.973A11.746,11.746,0,0,0,297.059,67.715Z" fill="#a7a9ac"/>
          <path d="M308.533,64.6l-.254.935h-2.07l-1.56,6.2a37.218,37.218,0,0,1-2.084,6.339,10.958,10.958,0,0,1-3.206,4.367,4.5,4.5,0,0,1-2.609.922,2.156,2.156,0,0,1-1.449-.509,1.132,1.132,0,0,1-.44-.922,1.033,1.033,0,0,1,.362-.787,1.259,1.259,0,0,1,.886-.334.918.918,0,0,1,.647.242.732.732,0,0,1,.262.551.783.783,0,0,1-.3.584c-.151.132-.227.23-.227.3a.236.236,0,0,0,.1.2.64.64,0,0,0,.394.1,2.624,2.624,0,0,0,1.286-.383,3.711,3.711,0,0,0,1.2-1.142,8.733,8.733,0,0,0,.994-2.193q.2-.593,1.062-3.928l2.469-9.6h-2.469l.2-.935a5.577,5.577,0,0,0,1.646-.164,2,2,0,0,0,.858-.623,9.406,9.406,0,0,0,1.011-1.723,14.007,14.007,0,0,1,1.606-2.639,7.748,7.748,0,0,1,2.2-1.892,4.56,4.56,0,0,1,2.178-.633,2.616,2.616,0,0,1,1.732.547,1.551,1.551,0,0,1,.65,1.183,1.168,1.168,0,0,1-.326.838,1.1,1.1,0,0,1-.836.34,1.016,1.016,0,0,1-.716-.256.8.8,0,0,1-.276-.609,1.226,1.226,0,0,1,.184-.561,1.236,1.236,0,0,0,.183-.447.352.352,0,0,0-.127-.3.875.875,0,0,0-.539-.142,2.506,2.506,0,0,0-1.6.566,6.463,6.463,0,0,0-1.705,2.357q-.381.832-1.4,4.155Z" fill="#a7a9ac"/>
        </g>
      </g>
      <g>
        <g>
          <path d="M7.447,57.711v47.834q3.78,2.121,7.67,3.99l.145-57.316S9.738,50.973,7.447,57.711Z" fill="#a7a9ac"/>
          <path d="M23.141,57.711V113.1q3.782,1.526,7.656,2.8l.16-63.685S25.434,50.973,23.141,57.711Z" fill="#a7a9ac"/>
          <path d="M38.84,57.711v60.564q3.784.983,7.641,1.723l.173-67.779S41.127,50.973,38.84,57.711Z" fill="#a7a9ac"/>
        </g>
        <path d="M0,0V8.494c19.426,2.389,37.887,9.531,54.465,20.055V27.291C37.887,14.566,19.426,4.967,0,0Z" fill="#a7a9ac"/>
        <path d="M13.516,33.434s4.765-2.524,13.6-2.524a39.836,39.836,0,0,1,16.766,3.51,42.971,42.971,0,0,1,10.578,6.791V34.762C37.887,24.238,19.426,17.094,0,14.7V41.109A44.567,44.567,0,0,1,13.516,33.434Z" fill="#a7a9ac"/>
        <polygon points="27.291 37.264 4.361 47.779 50.486 47.779 27.291 37.264" fill="#a7a9ac"/>
        <path d="M0,109.43c16.578,12.724,35.047,22.324,54.465,27.293v-8.494C35.047,125.838,16.578,118.691,0,108.172Z" fill="#a7a9ac"/>
      </g>
    </g>
    <g>
      <path d="M75.954,128.982v16.1H73.241v-16.1Z" fill="#a7a9ac"/>
      <path d="M82.854,128.982l8.623,11.567V128.982h2.668v16.1H91.477L82.9,133.535v11.544H80.187v-16.1Z" fill="#a7a9ac"/>
      <path d="M103.484,131.42c-1.586,0-2.621.6-2.621,1.679,0,3.518,8.692,1.632,8.669,7.427,0,2.874-2.53,4.645-6.071,4.645a9.9,9.9,0,0,1-6.577-2.553l1.173-2.345a8.485,8.485,0,0,0,5.45,2.345c1.886,0,3.013-.712,3.013-1.954,0-3.587-8.693-1.587-8.693-7.312,0-2.76,2.369-4.485,5.864-4.485a10.482,10.482,0,0,1,5.634,1.656l-1.127,2.392A9.621,9.621,0,0,0,103.484,131.42Z" fill="#a7a9ac"/>
      <path d="M123.7,128.982v2.438h-5.1v13.659h-2.714V131.42H110.8v-2.438Z" fill="#a7a9ac"/>
      <path d="M128.738,128.982v16.1h-2.713v-16.1Z" fill="#a7a9ac"/>
      <path d="M143.962,128.982v2.438h-5.1v13.659h-2.713V131.42h-5.082v-2.438Z" fill="#a7a9ac"/>
      <path d="M153,142.757a3.965,3.965,0,0,0,4.254-4.347v-9.428h2.713v9.428c0,4.208-2.644,6.784-6.99,6.784s-7.014-2.576-7.014-6.784v-9.428h2.714v9.428A4.017,4.017,0,0,0,153,142.757Z" fill="#a7a9ac"/>
      <path d="M174.851,128.982v2.438h-5.1v13.659h-2.713V131.42h-5.082v-2.438Z" fill="#a7a9ac"/>
      <path d="M188.673,128.982v2.438H179.89v4.369h7.864V138.2H179.89v4.439h9.06v2.437H177.176v-16.1Z" fill="#a7a9ac"/>
      <path d="M209.971,128.982l-.022,2.438h-8.072v4.645h7.313v2.415h-7.313v6.6h-2.713v-16.1Z" fill="#a7a9ac"/>
      <path d="M228.117,137.031a8.542,8.542,0,1,1-8.532-8.117A8.237,8.237,0,0,1,228.117,137.031Zm-14.3,0a5.771,5.771,0,0,0,5.8,5.726,5.7,5.7,0,1,0-5.8-5.726Z" fill="#a7a9ac"/>
      <path d="M241.228,145.079l-2.943-4.875a7.308,7.308,0,0,1-.736.024h-3.817v4.851h-2.714v-16.1h6.531c4.117,0,6.485,2,6.485,5.5A5.172,5.172,0,0,1,240.7,139.7l3.609,5.381Zm-3.679-7.289c2.484,0,3.91-1.059,3.91-3.242,0-2.116-1.426-3.128-3.91-3.128h-3.817v6.37Z" fill="#a7a9ac"/>
      <path d="M265.562,137.169h2.369V143.1a10.925,10.925,0,0,1-6.256,2.092,8.206,8.206,0,0,1-8.462-8.163c0-4.6,3.748-8.117,8.623-8.117a9.667,9.667,0,0,1,6.187,2.253l-1.542,2a7,7,0,0,0-4.645-1.84,5.717,5.717,0,1,0,.023,11.429,7.5,7.5,0,0,0,3.7-1.1Z" fill="#a7a9ac"/>
      <path d="M283.273,128.982v2.438h-8.786v4.369h7.866V138.2h-7.866v4.439h9.061v2.437H271.774v-16.1Z" fill="#a7a9ac"/>
      <path d="M289.528,128.982l8.623,11.567V128.982h2.668v16.1h-2.668l-8.576-11.544v11.544H286.86v-16.1Z" fill="#a7a9ac"/>
      <path d="M320.806,137.031a8.542,8.542,0,1,1-8.532-8.117A8.237,8.237,0,0,1,320.806,137.031Zm-14.3,0a5.771,5.771,0,0,0,5.8,5.726,5.7,5.7,0,1,0-5.8-5.726Z" fill="#a7a9ac"/>
      <path d="M326.927,128.982l5.312,10.693,5.289-10.693h3.2v16.1h-2.506l-.024-12.026L333.112,143.4h-1.769l-5.082-10.347v12.026h-2.553v-16.1Z" fill="#a7a9ac"/>
      <path d="M356.48,128.982v2.438H347.7v4.369h7.864V138.2H347.7v4.439h9.059v2.437H344.981v-16.1Z" fill="#a7a9ac"/>
      <path d="M372.052,131.42c-1.588,0-2.621.6-2.621,1.679,0,3.518,8.691,1.632,8.668,7.427,0,2.874-2.53,4.645-6.071,4.645a9.9,9.9,0,0,1-6.576-2.553l1.172-2.345a8.489,8.489,0,0,0,5.451,2.345c1.885,0,3.012-.712,3.012-1.954,0-3.587-8.691-1.587-8.691-7.312,0-2.76,2.367-4.485,5.863-4.485a10.478,10.478,0,0,1,5.633,1.656l-1.127,2.392A9.612,9.612,0,0,0,372.052,131.42Z" fill="#a7a9ac"/>
      <path d="M388.45,131.328a5.669,5.669,0,1,0,0,11.337,6.656,6.656,0,0,0,4.485-1.909l1.609,1.794a9.141,9.141,0,0,1-6.232,2.644,8.145,8.145,0,1,1,.091-16.28,8.885,8.885,0,0,1,6.118,2.483l-1.586,1.978A6.29,6.29,0,0,0,388.45,131.328Z" fill="#a7a9ac"/>
      <path d="M400.021,128.982v16.1h-2.715v-16.1Z" fill="#a7a9ac"/>
      <path d="M415.749,128.982v2.438h-8.783v4.369h7.863V138.2h-7.863v4.439h9.058v2.437H404.251v-16.1Z" fill="#a7a9ac"/>
      <path d="M422.007,128.982l8.623,11.567V128.982H433.3v16.1H430.63l-8.576-11.544v11.544h-2.715v-16.1Z" fill="#a7a9ac"/>
      <path d="M444.73,131.328a5.669,5.669,0,1,0,0,11.337,6.655,6.655,0,0,0,4.484-1.909l1.609,1.794a9.14,9.14,0,0,1-6.23,2.644,8.145,8.145,0,1,1,.092-16.28A8.88,8.88,0,0,1,450.8,131.4l-1.586,1.978A6.286,6.286,0,0,0,444.73,131.328Z" fill="#a7a9ac"/>
      <path d="M465.085,128.982v2.438H456.3v4.369h7.865V138.2H456.3v4.439h9.06v2.437H453.587v-16.1Z" fill="#a7a9ac"/>
      <path d="M473.755,131.42c-1.586,0-2.621.6-2.621,1.679,0,3.518,8.693,1.632,8.67,7.427,0,2.874-2.53,4.645-6.071,4.645a9.9,9.9,0,0,1-6.578-2.553l1.174-2.345a8.48,8.48,0,0,0,5.449,2.345c1.887,0,3.012-.712,3.012-1.954,0-3.587-8.691-1.587-8.691-7.312,0-2.76,2.369-4.485,5.863-4.485a10.48,10.48,0,0,1,5.635,1.656l-1.127,2.392A9.624,9.624,0,0,0,473.755,131.42Z" fill="#a7a9ac"/>
    </g>
  </g>
</svg>
