<?xml version="1.0" encoding="UTF-8" standalone="no"?>
<svg
   xmlns:dc="http://purl.org/dc/elements/1.1/"
   xmlns:cc="http://creativecommons.org/ns#"
   xmlns:rdf="http://www.w3.org/1999/02/22-rdf-syntax-ns#"
   xmlns:svg="http://www.w3.org/2000/svg"
   xmlns="http://www.w3.org/2000/svg"
   xmlns:sodipodi="http://sodipodi.sourceforge.net/DTD/sodipodi-0.dtd"
   xmlns:inkscape="http://www.inkscape.org/namespaces/inkscape"
   width="54.465"
   height="136.723"
   viewBox="0 0 54.465 136.723"
   version="1.1"
   id="svg22"
   sodipodi:docname="som_igs_icon.svg"
   inkscape:version="0.92.2 5c3e80d, 2017-08-06">
  <metadata
     id="metadata28">
    <rdf:RDF>
      <cc:Work
         rdf:about="">
        <dc:format>image/svg+xml</dc:format>
        <dc:type
           rdf:resource="http://purl.org/dc/dcmitype/StillImage" />
        <dc:title>umb-graphic</dc:title>
      </cc:Work>
    </rdf:RDF>
  </metadata>
  <defs
     id="defs26" />
  <sodipodi:namedview
     pagecolor="#ffffff"
     bordercolor="#666666"
     borderopacity="1"
     objecttolerance="10"
     gridtolerance="10"
     guidetolerance="10"
     inkscape:pageopacity="0"
     inkscape:pageshadow="2"
     inkscape:window-width="774"
     inkscape:window-height="480"
     id="namedview24"
     showgrid="false"
     inkscape:zoom="1.7261177"
     inkscape:cx="37.707077"
     inkscape:cy="155.38821"
     inkscape:window-x="0"
     inkscape:window-y="0"
     inkscape:window-maximized="0"
     inkscape:current-layer="g20" />
  <title
     id="title2">umb-graphic</title>
  <g
     id="g20">
    <g
       id="g10"
       style="fill:#ffffff">
      <path
         d="M7.447,57.711v47.834q3.78,2.121,7.67,3.99l.145-57.316S9.738,50.973,7.447,57.711Z"
         fill="#a7a9ac"
         id="path4"
         style="fill:#ffffff" />
      <path
         d="M23.141,57.711V113.1q3.782,1.526,7.656,2.8l.16-63.685S25.434,50.973,23.141,57.711Z"
         fill="#a7a9ac"
         id="path6"
         style="fill:#ffffff" />
      <path
         d="M38.84,57.711v60.564q3.784.983,7.641,1.723l.173-67.779S41.127,50.973,38.84,57.711Z"
         fill="#a7a9ac"
         id="path8"
         style="fill:#ffffff" />
    </g>
    <path
       d="M0,0V8.494c19.426,2.389,37.887,9.531,54.465,20.055V27.291C37.887,14.566,19.426,4.967,0,0Z"
       fill="#a7a9ac"
       id="path12"
       style="fill:#ffffff" />
    <path
       d="M13.516,33.434s4.765-2.524,13.6-2.524a39.836,39.836,0,0,1,16.766,3.51,42.971,42.971,0,0,1,10.578,6.791V34.762C37.887,24.238,19.426,17.094,0,14.7V41.109A44.567,44.567,0,0,1,13.516,33.434Z"
       fill="#a7a9ac"
       id="path14"
       style="fill:#ffffff" />
    <polygon
       points="27.291 37.264 4.361 47.779 50.486 47.779 27.291 37.264"
       fill="#a7a9ac"
       id="polygon16"
       style="fill:#ffffff" />
    <path
       d="M0,109.43c16.578,12.724,35.047,22.324,54.465,27.293v-8.494C35.047,125.838,16.578,118.691,0,108.172Z"
       fill="#a7a9ac"
       id="path18"
       style="fill:#ffffff" />
  </g>
</svg>
