<?xml version="1.0" encoding="UTF-8" standalone="no"?>
<svg
   xmlns:dc="http://purl.org/dc/elements/1.1/"
   xmlns:cc="http://creativecommons.org/ns#"
   xmlns:rdf="http://www.w3.org/1999/02/22-rdf-syntax-ns#"
   xmlns:svg="http://www.w3.org/2000/svg"
   xmlns="http://www.w3.org/2000/svg"
   xmlns:sodipodi="http://sodipodi.sourceforge.net/DTD/sodipodi-0.dtd"
   xmlns:inkscape="http://www.inkscape.org/namespaces/inkscape"
   width="189.023"
   height="52.727"
   viewBox="0 0 189.023 52.727"
   version="1.1"
   id="svg5281"
   sodipodi:docname="som_igs_logo.svg"
   inkscape:version="0.92.2 5c3e80d, 2017-08-06">
  <metadata
     id="metadata5287">
    <rdf:RDF>
      <cc:Work
         rdf:about="">
        <dc:format>image/svg+xml</dc:format>
        <dc:type
           rdf:resource="http://purl.org/dc/dcmitype/StillImage" />
      </cc:Work>
    </rdf:RDF>
  </metadata>
  <defs
     id="defs5285" />
  <sodipodi:namedview
     pagecolor="#ffffff"
     bordercolor="#666666"
     borderopacity="1"
     objecttolerance="10"
     gridtolerance="10"
     guidetolerance="10"
     inkscape:pageopacity="0"
     inkscape:pageshadow="2"
     inkscape:window-width="1630"
     inkscape:window-height="1005"
     id="namedview5283"
     showgrid="false"
     inkscape:zoom="4.3094599"
     inkscape:cx="81.802552"
     inkscape:cy="17.081595"
     inkscape:window-x="50"
     inkscape:window-y="1"
     inkscape:window-maximized="1"
     inkscape:current-layer="g5223" />
  <title
     id="title5121">gray-som-logo</title>
  <g
     id="g5279"
     style="fill:#ffffff;fill-opacity:0.98571426">
    <g
       id="g5223"
       style="fill:#ffffff;fill-opacity:0.98571426">
      <g
         id="g5155"
         style="fill:#f5f5f5;fill-opacity:0.94761902" />
      <g
         id="g5203"
         style="fill:#f5f5f5;fill-opacity:0.94761902">
        <g
           id="g5177"
           style="fill:#f5f5f5;fill-opacity:0.94761902" />
        <g
           id="g5195"
           style="fill:#f5f5f5;fill-opacity:0.94761902" />
        <g
           id="g5201"
           style="fill:#f5f5f5;fill-opacity:0.94761902" />
      </g>
      <g
         id="g5221"
         style="fill:#f5f5f5;fill-opacity:0.94761902">
        <g
           id="g5211"
           style="fill:#f5f5f5;fill-opacity:0.94761902" />
        <path
           id="path5219"
           style="fill:#202020;fill-opacity:0.91428572"
           d="m 0,39.72 a 55.271,55.271 0 0 0 19.769,9.907 V 46.544 A 47.933,47.933 0 0 1 0,39.264 Z M 9.906,13.526 1.583,17.343 h 16.742 z m -5,-1.39 a 11.353,11.353 0 0 1 4.938,-0.916 14.466,14.466 0 0 1 6.086,1.274 15.582,15.582 0 0 1 3.839,2.465 V 12.618 A 47.891,47.891 0 0 0 0,5.337 v 9.585 A 16.172,16.172 0 0 1 4.906,12.136 Z M 0,0 v 3.083 a 47.875,47.875 0 0 1 19.769,7.28 V 9.906 A 55.228,55.228 0 0 0 0,0 Z m 14.1,20.948 v 21.983 q 1.374,0.357 2.773,0.625 l 0.063,-24.6 c 0,0 -2.008,-0.456 -2.836,1.992 z m -5.7,0 v 20.1 c 0.915,0.37 1.843,0.707 2.779,1.018 L 11.237,18.95 c 0,0 -2.005,-0.45 -2.837,1.998 z m -5.7,0 V 38.31 q 1.373,0.771 2.784,1.449 l 0.053,-20.8 c 0,0 -2.002,-0.459 -2.837,1.989 z m 109.29,2.499 -0.092,0.339 h -0.752 l -0.566,2.25 a 13.48,13.48 0 0 1 -0.756,2.3 3.984,3.984 0 0 1 -1.164,1.585 1.635,1.635 0 0 1 -0.947,0.334 0.779,0.779 0 0 1 -0.526,-0.185 0.408,0.408 0 0 1 -0.159,-0.334 0.375,0.375 0 0 1 0.131,-0.286 0.457,0.457 0 0 1 0.322,-0.121 0.332,0.332 0 0 1 0.234,0.088 0.266,0.266 0 0 1 0.095,0.2 0.286,0.286 0 0 1 -0.108,0.212 c -0.055,0.048 -0.083,0.083 -0.083,0.107 a 0.087,0.087 0 0 0 0.037,0.073 0.235,0.235 0 0 0 0.144,0.036 0.952,0.952 0 0 0 0.466,-0.139 1.353,1.353 0 0 0 0.435,-0.415 3.134,3.134 0 0 0 0.36,-0.8 q 0.073,-0.215 0.386,-1.426 l 0.9,-3.485 h -0.9 l 0.072,-0.339 a 2,2 0 0 0 0.6,-0.06 0.721,0.721 0 0 0 0.311,-0.226 3.362,3.362 0 0 0 0.368,-0.625 5.089,5.089 0 0 1 0.582,-0.958 2.816,2.816 0 0 1 0.8,-0.687 1.658,1.658 0 0 1 0.79,-0.23 0.95,0.95 0 0 1 0.629,0.2 0.562,0.562 0 0 1 0.236,0.429 0.426,0.426 0 0 1 -0.118,0.3 0.4,0.4 0 0 1 -0.3,0.123 0.371,0.371 0 0 1 -0.261,-0.093 0.292,0.292 0 0 1 -0.1,-0.221 0.442,0.442 0 0 1 0.067,-0.2 0.44,0.44 0 0 0 0.067,-0.162 0.129,0.129 0 0 0 -0.046,-0.108 0.32,0.32 0 0 0 -0.2,-0.052 0.909,0.909 0 0 0 -0.581,0.206 2.338,2.338 0 0 0 -0.619,0.856 c -0.092,0.2 -0.263,0.7 -0.509,1.508 z m -3.311,1.488 a 3.189,3.189 0 0 1 -0.408,1.528 3.1,3.1 0 0 1 -1.141,1.2 2.74,2.74 0 0 1 -1.421,0.442 1.545,1.545 0 0 1 -1.15,-0.45 1.585,1.585 0 0 1 -0.445,-1.166 3.039,3.039 0 0 1 0.434,-1.518 3.3,3.3 0 0 1 1.164,-1.205 2.714,2.714 0 0 1 1.408,-0.443 1.5,1.5 0 0 1 1.12,0.448 1.592,1.592 0 0 1 0.439,1.164 z m -0.854,-0.356 a 1.046,1.046 0 0 0 -0.234,-0.733 0.786,0.786 0 0 0 -0.6,-0.255 q -0.756,0 -1.392,1.084 a 4.218,4.218 0 0 0 -0.637,2.154 1.064,1.064 0 0 0 0.248,0.754 0.813,0.813 0 0 0 0.623,0.265 q 0.726,0 1.362,-1.079 a 4.261,4.261 0 0 0 0.63,-2.19 z m 73.182,-0.725 c 0,-1.771 0,-2.092 -0.027,-2.453 -0.026,-0.39 -0.093,-0.577 -0.482,-0.631 a 3.9,3.9 0 0 0 -0.4,-0.026 A 0.115,0.115 0 0 1 180,20.65 c 0,-0.067 0.054,-0.094 0.188,-0.094 0.537,0 1.3,0.027 1.367,0.027 0.134,0 0.885,-0.027 1.581,-0.027 1.18,0 3.338,-0.107 4.732,1.3 a 4,4 0 0 1 1.153,2.895 4.564,4.564 0 0 1 -1.274,3.2 4.74,4.74 0 0 1 -3.578,1.313 c -0.51,0 -1.14,-0.04 -1.649,-0.067 -0.509,-0.027 -0.911,-0.067 -0.965,-0.067 -0.027,0 -0.241,0.013 -0.482,0.013 -0.241,0 -0.524,0.027 -0.711,0.027 -0.121,0 -0.188,-0.027 -0.188,-0.093 a 0.091,0.091 0 0 1 0.095,-0.094 1.742,1.742 0 0 0 0.361,-0.054 c 0.228,-0.053 0.255,-0.268 0.309,-0.6 a 23.581,23.581 0 0 0 0.066,-2.465 z m 1.072,1.232 c 0,1.207 0,2.265 0.014,2.48 a 2.168,2.168 0 0 0 0.134,0.818 c 0.147,0.214 0.563,0.455 1.957,0.455 a 3.955,3.955 0 0 0 2.761,-1.032 3.835,3.835 0 0 0 0.925,-2.708 3.948,3.948 0 0 0 -1.113,-2.854 4.869,4.869 0 0 0 -3.82,-1.273 3.036,3.036 0 0 0 -0.71,0.081 0.2,0.2 0 0 0 -0.148,0.227 z m -10.404,2.533 c 0.027,0.939 0.134,1.22 0.455,1.3 a 2.852,2.852 0 0 0 0.59,0.067 0.092,0.092 0 0 1 0.095,0.094 c 0,0.066 -0.081,0.093 -0.215,0.093 -0.671,0 -1.139,-0.04 -1.247,-0.04 -0.108,0 -0.6,0.04 -1.139,0.04 -0.121,0 -0.187,-0.013 -0.187,-0.093 a 0.091,0.091 0 0 1 0.094,-0.094 1.888,1.888 0 0 0 0.482,-0.067 c 0.295,-0.081 0.334,-0.39 0.334,-1.421 v -6.526 c 0,-0.456 0.068,-0.577 0.162,-0.577 0.133,0 0.335,0.228 0.455,0.349 0.188,0.188 1.9,2.01 3.726,3.887 1.166,1.206 2.426,2.56 2.789,2.935 l -0.122,-5.71 c -0.013,-0.737 -0.08,-0.992 -0.442,-1.059 a 3.785,3.785 0 0 0 -0.576,-0.053 c -0.08,0 -0.094,-0.067 -0.094,-0.108 0,-0.067 0.094,-0.08 0.228,-0.08 0.536,0 1.1,0.027 1.233,0.027 0.133,0 0.523,-0.027 1.006,-0.027 0.12,0 0.214,0.013 0.214,0.08 a 0.133,0.133 0 0 1 -0.134,0.108 1.372,1.372 0 0 0 -0.282,0.026 c -0.388,0.081 -0.415,0.309 -0.415,0.992 l -0.027,6.676 c 0,0.749 -0.014,0.817 -0.094,0.817 -0.12,0 -0.241,-0.094 -0.9,-0.7 -0.121,-0.107 -1.823,-1.783 -3.07,-3.083 -1.367,-1.435 -2.694,-2.827 -3.055,-3.23 z m -7.067,-6.835 c 0.148,-0.375 0.2,-0.442 0.282,-0.442 0.121,0 0.16,0.16 0.281,0.415 0.215,0.482 2.105,5.187 2.829,6.916 0.429,1.019 0.75,1.166 1,1.247 a 1.657,1.657 0 0 0 0.469,0.067 c 0.067,0 0.148,0.027 0.148,0.094 0,0.067 -0.134,0.093 -0.269,0.093 -0.174,0 -1.045,0 -1.862,-0.027 -0.229,-0.013 -0.416,-0.013 -0.416,-0.081 0,-0.052 0.026,-0.052 0.08,-0.079 a 0.213,0.213 0 0 0 0.107,-0.308 L 166.2,26.065 c -0.026,-0.054 -0.039,-0.067 -0.107,-0.067 h -2.72 a 0.126,0.126 0 0 0 -0.122,0.094 l -0.669,1.823 a 2.332,2.332 0 0 0 -0.175,0.764 c 0,0.227 0.2,0.308 0.4,0.308 h 0.107 c 0.094,0 0.121,0.04 0.121,0.094 0,0.054 -0.067,0.093 -0.174,0.093 -0.281,0 -0.925,-0.04 -1.059,-0.04 -0.134,0 -0.71,0.04 -1.192,0.04 -0.148,0 -0.228,-0.027 -0.228,-0.093 a 0.1,0.1 0 0 1 0.107,-0.094 3.146,3.146 0 0 0 0.348,-0.028 c 0.536,-0.066 0.764,-0.468 0.992,-1.044 z m 1.314,4.744 c 0.054,0 0.054,-0.026 0.04,-0.079 L 164.8,22.324 c -0.068,-0.173 -0.134,-0.173 -0.2,0 l -1.1,3.125 c -0.013,0.053 0,0.079 0.04,0.079 z m -9.6,0.362 c 0,1.676 0.027,2.36 0.242,2.561 0.187,0.187 0.643,0.267 1.567,0.267 0.617,0 1.14,-0.013 1.421,-0.348 a 1.385,1.385 0 0 0 0.282,-0.643 c 0.013,-0.081 0.054,-0.147 0.121,-0.147 0.067,0 0.08,0.053 0.08,0.173 a 7.074,7.074 0 0 1 -0.175,1.14 c -0.08,0.268 -0.12,0.308 -0.75,0.308 -0.845,0 -1.5,-0.014 -2.051,-0.04 -0.551,-0.026 -0.938,-0.027 -1.286,-0.027 -0.054,0 -0.255,0 -0.482,0.013 -0.227,0.013 -0.5,0.027 -0.685,0.027 -0.12,0 -0.187,-0.027 -0.187,-0.093 a 0.091,0.091 0 0 1 0.094,-0.094 1.742,1.742 0 0 0 0.361,-0.054 c 0.229,-0.053 0.255,-0.268 0.31,-0.6 a 23.943,23.943 0 0 0 0.065,-2.465 v -2.01 c 0,-1.771 0,-2.092 -0.026,-2.453 -0.027,-0.39 -0.094,-0.577 -0.482,-0.631 a 3.918,3.918 0 0 0 -0.4,-0.026 0.115,0.115 0 0 1 -0.093,-0.094 c 0,-0.067 0.054,-0.094 0.188,-0.094 0.536,0 1.273,0.027 1.34,0.027 0.067,0 0.938,-0.027 1.3,-0.027 0.121,0 0.189,0.027 0.189,0.094 0,0.04 -0.054,0.081 -0.095,0.081 -0.08,0 -0.254,0.013 -0.387,0.026 -0.35,0.067 -0.417,0.241 -0.444,0.644 -0.013,0.361 -0.013,0.682 -0.013,2.453 z m -7.454,0.322 a 2.033,2.033 0 0 0 -0.255,-1.166 c -0.094,-0.174 -1.689,-2.707 -2.091,-3.311 a 2.992,2.992 0 0 0 -0.777,-0.831 1.165,1.165 0 0 0 -0.5,-0.16 0.119,0.119 0 0 1 -0.12,-0.108 c 0,-0.053 0.04,-0.08 0.147,-0.08 0.227,0 1.113,0.027 1.166,0.027 0.081,0 0.563,-0.027 1.019,-0.027 0.134,0 0.161,0.027 0.161,0.08 0,0.053 -0.08,0.081 -0.188,0.121 a 0.2,0.2 0 0 0 -0.147,0.188 0.934,0.934 0 0 0 0.161,0.442 l 2.144,3.552 c 0.241,-0.483 1.716,-2.922 1.93,-3.3 a 1.211,1.211 0 0 0 0.2,-0.589 c 0,-0.162 -0.053,-0.256 -0.187,-0.3 -0.107,-0.026 -0.175,-0.08 -0.175,-0.134 0,-0.054 0.068,-0.067 0.188,-0.067 0.308,0 0.724,0.027 0.817,0.027 0.093,0 0.926,-0.027 1.153,-0.027 0.08,0 0.148,0.027 0.148,0.067 a 0.137,0.137 0 0 1 -0.148,0.121 1.208,1.208 0 0 0 -0.549,0.147 2.029,2.029 0 0 0 -0.59,0.563 c -0.389,0.456 -2.05,3.137 -2.292,3.619 a 2.28,2.28 0 0 0 -0.148,1.139 v 0.979 c 0,0.187 0,0.67 0.041,1.138 0.026,0.336 0.107,0.551 0.455,0.6 a 4.719,4.719 0 0 0 0.537,0.054 0.091,0.091 0 0 1 0.093,0.094 c 0,0.053 -0.066,0.093 -0.187,0.093 -0.657,0 -1.421,-0.04 -1.488,-0.04 -0.067,0 -0.8,0.04 -1.153,0.04 -0.134,0 -0.188,-0.027 -0.188,-0.093 a 0.091,0.091 0 0 1 0.095,-0.094 1.614,1.614 0 0 0 0.348,-0.054 c 0.242,-0.053 0.321,-0.268 0.349,-0.6 0.027,-0.468 0.027,-0.951 0.027,-1.138 z m -9.843,-2.358 c 0,-1.771 0,-2.092 -0.026,-2.453 -0.027,-0.39 -0.094,-0.577 -0.482,-0.631 a 3.937,3.937 0 0 0 -0.4,-0.026 0.115,0.115 0 0 1 -0.093,-0.094 c 0,-0.067 0.054,-0.094 0.188,-0.094 0.536,0 1.326,0.027 1.393,0.027 0.121,0 1.113,-0.027 1.475,-0.027 a 3.856,3.856 0 0 1 2.2,0.5 2,2 0 0 1 0.818,1.554 3.333,3.333 0 0 1 -1.448,2.6 c 0.964,1.207 1.783,2.238 2.466,2.949 a 2.236,2.236 0 0 0 1.729,0.831 0.1,0.1 0 0 1 0.107,0.094 c 0,0.066 -0.067,0.093 -0.281,0.093 h -0.737 a 2.362,2.362 0 0 1 -1.26,-0.228 5.99,5.99 0 0 1 -1.608,-1.675 c -0.5,-0.616 -1.02,-1.354 -1.274,-1.662 a 0.18,0.18 0 0 0 -0.16,-0.067 l -1.5,-0.027 c -0.055,0 -0.081,0.027 -0.081,0.094 v 0.269 c 0,1.1 0,1.983 0.053,2.451 0.04,0.336 0.107,0.551 0.469,0.6 a 4.5,4.5 0 0 0 0.524,0.054 0.083,0.083 0 0 1 0.092,0.094 c 0,0.053 -0.053,0.093 -0.187,0.093 -0.643,0 -1.394,-0.04 -1.447,-0.04 -0.014,0 -0.8,0.04 -1.167,0.04 -0.12,0 -0.187,-0.027 -0.187,-0.093 a 0.091,0.091 0 0 1 0.095,-0.094 1.752,1.752 0 0 0 0.361,-0.054 c 0.228,-0.053 0.254,-0.268 0.308,-0.6 a 23.581,23.581 0 0 0 0.066,-2.465 z m 1.02,0.964 a 0.166,0.166 0 0 0 0.081,0.148 3.983,3.983 0 0 0 1.3,0.174 1.53,1.53 0 0 0 0.885,-0.2 2.035,2.035 0 0 0 0.71,-1.743 1.969,1.969 0 0 0 -2.037,-2.238 5.127,5.127 0 0 0 -0.845,0.067 0.147,0.147 0 0 0 -0.093,0.135 z m -7.053,-4.034 c 0.146,-0.375 0.2,-0.442 0.281,-0.442 0.121,0 0.161,0.16 0.282,0.415 0.214,0.482 2.1,5.187 2.828,6.916 0.429,1.019 0.751,1.166 1,1.247 a 1.662,1.662 0 0 0 0.469,0.067 c 0.067,0 0.148,0.027 0.148,0.094 0,0.067 -0.134,0.093 -0.268,0.093 -0.175,0 -1.045,0 -1.864,-0.027 -0.227,-0.013 -0.415,-0.013 -0.415,-0.081 0,-0.052 0.026,-0.052 0.081,-0.079 a 0.215,0.215 0 0 0 0.107,-0.308 l -1.059,-2.614 c -0.026,-0.054 -0.04,-0.067 -0.107,-0.067 h -2.721 a 0.124,0.124 0 0 0 -0.121,0.094 l -0.67,1.823 a 2.353,2.353 0 0 0 -0.174,0.764 c 0,0.227 0.2,0.308 0.4,0.308 h 0.107 c 0.095,0 0.121,0.04 0.121,0.094 0,0.054 -0.066,0.093 -0.173,0.093 -0.282,0 -0.926,-0.04 -1.059,-0.04 -0.133,0 -0.711,0.04 -1.194,0.04 -0.148,0 -0.227,-0.027 -0.227,-0.093 a 0.1,0.1 0 0 1 0.107,-0.094 3.127,3.127 0 0 0 0.348,-0.028 c 0.537,-0.066 0.764,-0.468 0.992,-1.044 z m 1.313,4.744 c 0.054,0 0.054,-0.026 0.041,-0.079 l -1.166,-3.125 c -0.068,-0.173 -0.134,-0.173 -0.2,0 l -1.1,3.125 c -0.012,0.053 0,0.079 0.04,0.079 z m -7.205,1.917 c 0.053,0.483 0.147,1.234 0.723,1.422 a 2.93,2.93 0 0 0 0.872,0.12 c 0.066,0 0.107,0.013 0.107,0.067 0,0.08 -0.121,0.12 -0.282,0.12 -0.295,0 -1.742,-0.04 -2.238,-0.08 -0.308,-0.028 -0.376,-0.067 -0.376,-0.135 0,-0.053 0.027,-0.079 0.095,-0.092 0.068,-0.013 0.08,-0.242 0.052,-0.483 l -0.643,-6.917 h -0.04 l -3.283,6.971 c -0.282,0.589 -0.323,0.709 -0.443,0.709 -0.094,0 -0.161,-0.133 -0.415,-0.617 -0.349,-0.656 -1.5,-2.974 -1.568,-3.109 -0.121,-0.241 -1.622,-3.458 -1.77,-3.82 h -0.053 l -0.536,6.22 c -0.013,0.215 -0.013,0.456 -0.013,0.683 a 0.428,0.428 0 0 0 0.348,0.416 2.509,2.509 0 0 0 0.509,0.067 c 0.054,0 0.107,0.027 0.107,0.067 0,0.093 -0.08,0.12 -0.241,0.12 -0.5,0 -1.14,-0.04 -1.247,-0.04 -0.107,0 -0.763,0.04 -1.126,0.04 -0.133,0 -0.228,-0.027 -0.228,-0.12 0,-0.04 0.068,-0.067 0.134,-0.067 a 1.694,1.694 0 0 0 0.4,-0.041 c 0.442,-0.079 0.483,-0.6 0.536,-1.112 l 0.965,-8.739 c 0.013,-0.147 0.067,-0.242 0.148,-0.242 0.081,0 0.133,0.054 0.2,0.2 l 4.1,8.431 3.94,-8.418 c 0.054,-0.12 0.108,-0.215 0.2,-0.215 0.092,0 0.135,0.108 0.161,0.363 z M 98.008,26.191 a 2.038,2.038 0 0 0 -0.257,-1.174 c -0.093,-0.177 -1.7,-2.728 -2.105,-3.335 a 2.993,2.993 0 0 0 -0.784,-0.837 1.152,1.152 0 0 0 -0.5,-0.162 0.119,0.119 0 0 1 -0.121,-0.108 c 0,-0.054 0.041,-0.081 0.149,-0.081 0.23,0 1.12,0.027 1.174,0.027 0.082,0 0.567,-0.027 1.027,-0.027 0.135,0 0.162,0.027 0.162,0.081 0,0.054 -0.081,0.081 -0.189,0.122 a 0.2,0.2 0 0 0 -0.149,0.188 0.942,0.942 0 0 0 0.162,0.446 l 2.16,3.578 c 0.243,-0.487 1.728,-2.943 1.944,-3.322 a 1.217,1.217 0 0 0 0.2,-0.593 c 0,-0.163 -0.054,-0.258 -0.189,-0.3 -0.108,-0.027 -0.176,-0.082 -0.176,-0.136 0,-0.054 0.068,-0.067 0.19,-0.067 0.31,0 0.728,0.027 0.823,0.027 0.08,0 0.931,-0.027 1.16,-0.027 0.081,0 0.149,0.027 0.149,0.067 a 0.138,0.138 0 0 1 -0.149,0.122 1.229,1.229 0 0 0 -0.553,0.148 2.074,2.074 0 0 0 -0.594,0.568 c -0.392,0.459 -2.066,3.159 -2.309,3.645 a 2.3,2.3 0 0 0 -0.148,1.147 v 0.985 c 0,0.189 0,0.676 0.041,1.148 0.027,0.338 0.107,0.554 0.458,0.607 a 4.4,4.4 0 0 0 0.541,0.055 0.09,0.09 0 0 1 0.094,0.094 c 0,0.054 -0.068,0.1 -0.189,0.1 -0.662,0 -1.431,-0.041 -1.5,-0.041 -0.069,0 -0.809,0.041 -1.16,0.041 -0.136,0 -0.19,-0.028 -0.19,-0.1 a 0.092,0.092 0 0 1 0.095,-0.094 1.535,1.535 0 0 0 0.351,-0.055 c 0.243,-0.053 0.324,-0.269 0.351,-0.607 0.027,-0.472 0.027,-0.959 0.027,-1.148 z M 90.2,25.84 c 0,1.107 0,2.012 0.054,2.484 0.041,0.338 0.095,0.554 0.459,0.607 a 4.365,4.365 0 0 0 0.54,0.055 0.084,0.084 0 0 1 0.095,0.094 c 0,0.054 -0.055,0.1 -0.19,0.1 -0.647,0 -1.4,-0.041 -1.472,-0.041 -0.053,0 -0.876,0.041 -1.227,0.041 -0.135,0 -0.189,-0.028 -0.189,-0.1 0,-0.041 0.026,-0.08 0.094,-0.08 a 1.591,1.591 0 0 0 0.351,-0.055 c 0.243,-0.054 0.311,-0.283 0.351,-0.621 0.055,-0.472 0.055,-1.377 0.055,-2.484 v -4.82 l -1.715,0.028 c -0.743,0.013 -1.027,0.094 -1.2,0.364 a 1.767,1.767 0 0 0 -0.188,0.364 c -0.028,0.095 -0.068,0.108 -0.122,0.108 A 0.09,0.09 0 0 1 85.814,21.79 c 0,-0.122 0.243,-1.147 0.257,-1.242 0.027,-0.068 0.081,-0.216 0.122,-0.216 a 4.022,4.022 0 0 0 0.526,0.135 c 0.338,0.04 0.8,0.054 0.931,0.054 h 4.483 a 5.93,5.93 0 0 0 0.851,-0.054 c 0.175,-0.027 0.283,-0.054 0.336,-0.054 0.053,0 0.054,0.067 0.054,0.135 0,0.351 -0.039,1.174 -0.039,1.31 0,0.094 -0.055,0.147 -0.109,0.147 -0.054,0 -0.081,-0.039 -0.095,-0.2 l -0.013,-0.122 c -0.041,-0.351 -0.3,-0.607 -1.431,-0.634 L 90.2,21.02 Z m -6.49,0 c 0,1.107 0,2.012 0.054,2.484 0.041,0.338 0.081,0.554 0.432,0.607 a 4.644,4.644 0 0 0 0.54,0.055 0.092,0.092 0 0 1 0.095,0.094 c 0,0.054 -0.054,0.1 -0.19,0.1 -0.661,0 -1.431,-0.041 -1.485,-0.041 -0.054,0 -0.81,0.041 -1.175,0.041 -0.121,0 -0.188,-0.028 -0.188,-0.1 a 0.091,0.091 0 0 1 0.094,-0.094 1.645,1.645 0 0 0 0.365,-0.055 c 0.23,-0.053 0.27,-0.269 0.31,-0.607 0.055,-0.472 0.067,-1.377 0.067,-2.484 v -2.025 c 0,-1.782 0,-2.106 -0.026,-2.47 -0.027,-0.392 -0.121,-0.567 -0.378,-0.621 A 2.137,2.137 0 0 0 81.86,20.683 0.1,0.1 0 0 1 81.766,20.589 c 0,-0.068 0.054,-0.095 0.189,-0.095 0.391,0 1.134,0.027 1.2,0.027 0.066,0 0.824,-0.027 1.188,-0.027 0.135,0 0.189,0.027 0.189,0.095 a 0.115,0.115 0 0 1 -0.094,0.094 1.325,1.325 0 0 0 -0.3,0.027 c -0.324,0.068 -0.391,0.23 -0.419,0.635 -0.013,0.364 -0.013,0.688 -0.013,2.47 z m -8.074,3.173 c -0.163,-0.082 -0.175,-0.122 -0.175,-0.433 0,-0.566 0.054,-1.025 0.067,-1.215 0,-0.121 0.028,-0.189 0.094,-0.189 0.066,0 0.109,0.042 0.109,0.135 a 1.536,1.536 0 0 0 1.917,1.553 c 1.174,0 1.781,-0.661 1.781,-1.525 0,-0.823 -0.445,-1.215 -1.5,-2 l -0.541,-0.405 c -1.281,-0.959 -1.7,-1.661 -1.7,-2.457 0,-1.35 1.066,-2.16 2.633,-2.16 a 5.769,5.769 0 0 1 1.228,0.135 1.544,1.544 0 0 0 0.419,0.054 c 0.095,0 0.121,0.014 0.121,0.082 a 12.144,12.144 0 0 0 -0.054,1.215 c 0,0.175 -0.014,0.256 -0.094,0.256 -0.08,0 -0.095,-0.055 -0.108,-0.148 a 2.144,2.144 0 0 0 -0.176,-0.567 c -0.081,-0.136 -0.472,-0.567 -1.539,-0.567 -0.864,0 -1.579,0.431 -1.579,1.241 0,0.729 0.364,1.148 1.539,1.944 l 0.337,0.23 c 1.444,0.986 1.944,1.782 1.944,2.767 a 2.235,2.235 0 0 1 -1.107,1.958 3.645,3.645 0 0 1 -1.89,0.405 4.371,4.371 0 0 1 -1.726,-0.309 z m -7.683,-5.198 c 0,-1.782 0,-2.106 -0.027,-2.47 -0.027,-0.392 -0.095,-0.581 -0.486,-0.635 a 3.951,3.951 0 0 0 -0.405,-0.027 0.115,0.115 0 0 1 -0.094,-0.094 c 0,-0.068 0.054,-0.095 0.188,-0.095 0.54,0 1.337,0.027 1.4,0.027 0.123,0 1.122,-0.027 1.486,-0.027 a 3.883,3.883 0 0 1 2.214,0.5 2.01,2.01 0 0 1 0.823,1.566 3.35,3.35 0 0 1 -1.452,2.619 c 0.972,1.214 1.8,2.254 2.485,2.97 a 2.246,2.246 0 0 0 1.741,0.837 0.1,0.1 0 0 1 0.108,0.094 c 0,0.067 -0.067,0.1 -0.283,0.1 h -0.743 a 2.383,2.383 0 0 1 -1.269,-0.23 6.07,6.07 0 0 1 -1.62,-1.688 c -0.5,-0.62 -1.026,-1.362 -1.282,-1.674 a 0.183,0.183 0 0 0 -0.162,-0.067 l -1.513,-0.027 c -0.053,0 -0.081,0.027 -0.081,0.094 v 0.271 c 0,1.106 0,2 0.054,2.47 0.041,0.338 0.108,0.554 0.473,0.607 a 4.171,4.171 0 0 0 0.526,0.055 0.084,0.084 0 0 1 0.095,0.094 c 0,0.054 -0.054,0.1 -0.189,0.1 -0.648,0 -1.405,-0.041 -1.459,-0.041 -0.013,0 -0.81,0.041 -1.174,0.041 -0.121,0 -0.188,-0.028 -0.188,-0.1 a 0.09,0.09 0 0 1 0.093,-0.094 1.637,1.637 0 0 0 0.365,-0.055 c 0.23,-0.053 0.256,-0.269 0.311,-0.607 a 23.6,23.6 0 0 0 0.067,-2.484 z m 1.026,0.972 a 0.17,0.17 0 0 0 0.081,0.148 4.01,4.01 0 0 0 1.309,0.176 1.545,1.545 0 0 0 0.892,-0.2 2.051,2.051 0 0 0 0.715,-1.756 1.982,1.982 0 0 0 -2.051,-2.255 5.3,5.3 0 0 0 -0.851,0.067 0.148,0.148 0 0 0 -0.095,0.136 z m -7.387,-0.972 c 0,-1.782 0,-2.106 -0.026,-2.47 -0.027,-0.392 -0.1,-0.581 -0.486,-0.635 a 3.951,3.951 0 0 0 -0.405,-0.027 0.115,0.115 0 0 1 -0.094,-0.094 c 0,-0.068 0.054,-0.095 0.188,-0.095 0.54,0 1.31,0.027 1.378,0.027 0.068,0 2.564,0.014 2.834,0 0.23,-0.014 0.446,-0.054 0.541,-0.068 0.053,-0.013 0.107,-0.054 0.161,-0.054 0.054,0 0.055,0.054 0.055,0.108 0,0.082 -0.068,0.217 -0.095,0.541 -0.014,0.107 -0.04,0.62 -0.068,0.756 -0.013,0.054 -0.053,0.121 -0.107,0.121 -0.069,0 -0.095,-0.054 -0.095,-0.149 a 1.254,1.254 0 0 0 -0.067,-0.4 c -0.082,-0.19 -0.2,-0.27 -0.851,-0.352 -0.2,-0.026 -1.579,-0.04 -1.715,-0.04 -0.054,0 -0.067,0.04 -0.067,0.122 v 3.114 c 0,0.081 0,0.122 0.067,0.122 0.149,0 1.715,0 1.985,-0.028 0.27,-0.028 0.46,-0.04 0.581,-0.161 0.081,-0.082 0.135,-0.149 0.176,-0.149 0.041,0 0.066,0.027 0.066,0.095 0,0.068 -0.066,0.256 -0.094,0.634 -0.027,0.23 -0.055,0.661 -0.055,0.742 0,0.081 -0.026,0.216 -0.107,0.216 -0.053,0 -0.081,-0.04 -0.081,-0.108 a 1.012,1.012 0 0 0 -0.054,-0.377 c -0.041,-0.162 -0.148,-0.3 -0.607,-0.351 -0.325,-0.041 -1.594,-0.054 -1.8,-0.054 -0.068,0 -0.081,0.039 -0.081,0.081 v 0.958 c 0,0.392 -0.013,1.728 0,1.957 0.028,0.77 0.243,0.919 1.418,0.919 a 3.933,3.933 0 0 0 1.187,-0.122 0.87,0.87 0 0 0 0.541,-0.8 c 0.026,-0.135 0.054,-0.175 0.121,-0.175 0.067,0 0.081,0.095 0.081,0.175 a 9.417,9.417 0 0 1 -0.162,1.108 c -0.081,0.3 -0.2,0.3 -0.661,0.3 -0.892,0 -1.58,-0.026 -2.066,-0.04 -0.486,-0.014 -0.81,-0.027 -0.985,-0.027 -0.028,0 -0.257,0 -0.513,0.013 -0.23,0.014 -0.5,0.028 -0.689,0.028 -0.121,0 -0.189,-0.028 -0.189,-0.1 a 0.091,0.091 0 0 1 0.094,-0.094 3.214,3.214 0 0 0 0.365,-0.055 c 0.23,-0.04 0.256,-0.269 0.311,-0.607 a 23.954,23.954 0 0 0 0.066,-2.484 z m -6.21,3.861 c 0.689,-1.539 2.24,-5.454 2.5,-6.277 a 1.983,1.983 0 0 0 0.108,-0.433 0.241,0.241 0 0 0 -0.162,-0.242 1.362,1.362 0 0 0 -0.405,-0.041 c -0.068,0 -0.135,-0.04 -0.135,-0.094 0,-0.054 0.081,-0.095 0.27,-0.095 0.473,0 1.012,0.027 1.16,0.027 0.068,0 0.582,-0.027 0.933,-0.027 0.121,0 0.188,0.027 0.188,0.081 0,0.054 -0.04,0.108 -0.135,0.108 a 1.1,1.1 0 0 0 -0.567,0.136 c -0.161,0.107 -0.351,0.269 -0.662,1.052 -0.135,0.324 -0.714,1.7 -1.323,3.105 -0.728,1.674 -1.255,2.916 -1.525,3.483 -0.324,0.688 -0.392,0.864 -0.513,0.864 -0.121,0 -0.216,-0.148 -0.446,-0.7 l -2.915,-7.034 c -0.27,-0.647 -0.432,-0.768 -0.824,-0.863 A 2.269,2.269 0 0 0 50.47,20.685 0.1,0.1 0 0 1 50.376,20.577 c 0,-0.068 0.121,-0.081 0.31,-0.081 0.567,0 1.243,0.027 1.39,0.027 0.122,0 0.648,-0.027 1.108,-0.027 0.215,0 0.324,0.027 0.324,0.081 a 0.111,0.111 0 0 1 -0.122,0.108 1.514,1.514 0 0 0 -0.432,0.053 0.19,0.19 0 0 0 -0.135,0.2 4.842,4.842 0 0 0 0.324,0.958 z M 48.6,25.84 c 0,1.107 0,2.012 0.055,2.484 0.04,0.338 0.08,0.554 0.432,0.607 a 4.6,4.6 0 0 0 0.54,0.055 0.091,0.091 0 0 1 0.094,0.094 c 0,0.054 -0.054,0.1 -0.189,0.1 -0.662,0 -1.432,-0.041 -1.486,-0.041 -0.054,0 -0.809,0.041 -1.174,0.041 -0.122,0 -0.188,-0.028 -0.188,-0.1 a 0.09,0.09 0 0 1 0.093,-0.094 1.645,1.645 0 0 0 0.365,-0.055 c 0.23,-0.053 0.27,-0.269 0.31,-0.607 0.055,-0.472 0.068,-1.377 0.068,-2.484 v -2.025 c 0,-1.782 0,-2.106 -0.027,-2.47 -0.027,-0.392 -0.121,-0.567 -0.378,-0.621 A 2.137,2.137 0 0 0 46.75,20.683 0.1,0.1 0 0 1 46.656,20.589 c 0,-0.068 0.054,-0.095 0.189,-0.095 0.392,0 1.134,0.027 1.2,0.027 0.066,0 0.824,-0.027 1.189,-0.027 0.134,0 0.188,0.027 0.188,0.095 a 0.115,0.115 0 0 1 -0.093,0.094 1.328,1.328 0 0 0 -0.3,0.027 c -0.323,0.068 -0.391,0.23 -0.419,0.635 -0.013,0.364 -0.013,0.688 -0.013,2.47 z m -11.554,1.769 c 0.026,0.945 0.135,1.228 0.459,1.309 a 2.829,2.829 0 0 0 0.593,0.068 0.092,0.092 0 0 1 0.095,0.094 c 0,0.067 -0.081,0.1 -0.216,0.1 -0.675,0 -1.148,-0.041 -1.255,-0.041 -0.107,0 -0.607,0.041 -1.148,0.041 -0.121,0 -0.189,-0.014 -0.189,-0.1 a 0.092,0.092 0 0 1 0.095,-0.094 1.879,1.879 0 0 0 0.486,-0.068 c 0.3,-0.081 0.337,-0.392 0.337,-1.431 v -6.575 c 0,-0.459 0.068,-0.58 0.163,-0.58 0.134,0 0.337,0.229 0.458,0.351 0.189,0.19 1.917,2.024 3.753,3.915 1.174,1.214 2.443,2.578 2.809,2.957 L 43.364,21.8 c -0.014,-0.743 -0.081,-1 -0.446,-1.068 a 3.965,3.965 0 0 0 -0.58,-0.053 0.1,0.1 0 0 1 -0.095,-0.108 c 0,-0.068 0.095,-0.081 0.229,-0.081 0.541,0 1.108,0.027 1.243,0.027 0.135,0 0.527,-0.027 1.012,-0.027 0.122,0 0.217,0.013 0.217,0.081 a 0.135,0.135 0 0 1 -0.135,0.108 1.336,1.336 0 0 0 -0.283,0.027 c -0.393,0.081 -0.419,0.31 -0.419,1 L 44.08,28.43 c 0,0.755 -0.014,0.823 -0.095,0.823 -0.122,0 -0.244,-0.095 -0.9,-0.7 -0.122,-0.109 -1.836,-1.8 -3.092,-3.1 C 38.612,24 37.275,22.6 36.912,22.2 Z M 26.082,22.883 c 0,-2.105 0,-2.484 -0.026,-2.915 -0.028,-0.459 -0.136,-0.676 -0.581,-0.77 a 2.529,2.529 0 0 0 -0.459,-0.04 c -0.054,0 -0.108,-0.028 -0.108,-0.082 0,-0.081 0.067,-0.107 0.215,-0.107 0.609,0 1.432,0.04 1.553,0.04 0.121,0 0.932,-0.04 1.337,-0.04 0.148,0 0.215,0.026 0.215,0.107 0,0.054 -0.053,0.082 -0.107,0.082 a 2,2 0 0 0 -0.338,0.04 c -0.364,0.054 -0.473,0.3 -0.5,0.77 -0.027,0.431 -0.027,0.81 -0.027,2.915 v 1.89 c 0,1.945 0.432,2.782 1.013,3.335 a 2.64,2.64 0 0 0 2.037,0.743 2.832,2.832 0 0 0 2.12,-0.973 5.234,5.234 0 0 0 0.784,-3.307 v -1.688 c 0,-2.105 0,-2.484 -0.028,-2.915 -0.027,-0.459 -0.134,-0.676 -0.58,-0.77 a 2.532,2.532 0 0 0 -0.46,-0.04 c -0.054,0 -0.108,-0.028 -0.108,-0.082 0,-0.081 0.069,-0.107 0.217,-0.107 0.607,0 1.35,0.04 1.431,0.04 0.081,0 0.729,-0.04 1.134,-0.04 0.148,0 0.217,0.026 0.217,0.107 0,0.054 -0.055,0.082 -0.109,0.082 a 1.985,1.985 0 0 0 -0.337,0.04 c -0.365,0.081 -0.473,0.3 -0.5,0.77 -0.026,0.431 -0.026,0.81 -0.026,2.915 v 1.446 c 0,1.457 -0.163,3.077 -1.243,4.036 a 3.952,3.952 0 0 1 -2.781,1 4.142,4.142 0 0 1 -2.781,-0.958 c -0.662,-0.635 -1.175,-1.58 -1.175,-3.55 z m 119.04,14.082 c 0,-1.436 0,-1.7 -0.022,-1.991 -0.022,-0.315 -0.076,-0.468 -0.392,-0.513 -0.076,-0.009 -0.239,-0.021 -0.327,-0.021 a 0.092,0.092 0 0 1 -0.075,-0.076 c 0,-0.054 0.044,-0.076 0.152,-0.076 0.436,0 1.056,0.022 1.11,0.022 0.054,0 2.068,0.011 2.286,0 0.185,-0.012 0.359,-0.044 0.434,-0.055 0.045,-0.01 0.088,-0.043 0.132,-0.043 0.044,0 0.043,0.043 0.043,0.086 0,0.066 -0.054,0.175 -0.076,0.437 -0.011,0.087 -0.033,0.5 -0.054,0.608 -0.011,0.044 -0.045,0.1 -0.088,0.1 -0.043,0 -0.076,-0.043 -0.076,-0.12 a 1,1 0 0 0 -0.054,-0.327 c -0.066,-0.152 -0.163,-0.217 -0.686,-0.283 -0.163,-0.022 -1.273,-0.032 -1.382,-0.032 -0.044,0 -0.054,0.032 -0.054,0.1 v 2.514 c 0,0.065 0,0.1 0.054,0.1 0.12,0 1.382,0 1.6,-0.021 0.218,-0.021 0.369,-0.033 0.467,-0.13 0.066,-0.066 0.109,-0.12 0.142,-0.12 0.033,0 0.054,0.022 0.054,0.076 a 5.135,5.135 0 0 0 -0.076,0.512 c -0.022,0.185 -0.044,0.533 -0.044,0.6 0,0.067 -0.022,0.174 -0.087,0.174 -0.043,0 -0.065,-0.033 -0.065,-0.087 a 0.833,0.833 0 0 0 -0.043,-0.3 c -0.034,-0.13 -0.12,-0.239 -0.49,-0.283 -0.262,-0.032 -1.285,-0.043 -1.448,-0.043 a 0.057,0.057 0 0 0 -0.065,0.065 V 38.6 c 0,0.317 -0.011,1.393 0,1.578 0.022,0.621 0.195,0.741 1.143,0.741 a 3.182,3.182 0 0 0 0.957,-0.1 0.7,0.7 0 0 0 0.436,-0.643 c 0.021,-0.108 0.043,-0.141 0.1,-0.141 0.057,0 0.065,0.076 0.065,0.141 a 7.547,7.547 0 0 1 -0.131,0.893 c -0.065,0.24 -0.163,0.24 -0.533,0.24 -0.719,0 -1.273,-0.022 -1.665,-0.032 -0.392,-0.01 -0.653,-0.023 -0.795,-0.023 -0.021,0 -0.206,0 -0.414,0.011 -0.184,0.012 -0.4,0.022 -0.554,0.022 -0.1,0 -0.153,-0.022 -0.153,-0.076 a 0.074,0.074 0 0 1 0.076,-0.076 2.71,2.71 0 0 0 0.294,-0.044 c 0.186,-0.033 0.207,-0.218 0.251,-0.49 a 19.038,19.038 0 0 0 0.054,-2 z m -8.45,3.059 c 0.022,0.761 0.109,0.99 0.371,1.056 a 2.292,2.292 0 0 0 0.478,0.054 0.075,0.075 0 0 1 0.076,0.076 c 0,0.054 -0.065,0.076 -0.175,0.076 -0.543,0 -0.925,-0.033 -1.011,-0.033 -0.086,0 -0.489,0.033 -0.926,0.033 -0.1,0 -0.152,-0.01 -0.152,-0.076 a 0.075,0.075 0 0 1 0.076,-0.076 1.527,1.527 0 0 0 0.392,-0.054 c 0.24,-0.066 0.272,-0.317 0.272,-1.154 v -5.3 c 0,-0.371 0.055,-0.468 0.131,-0.468 0.109,0 0.272,0.184 0.37,0.282 0.152,0.153 1.545,1.633 3.026,3.157 0.946,0.979 1.97,2.078 2.263,2.383 l -0.1,-4.637 c -0.011,-0.6 -0.065,-0.805 -0.359,-0.859 a 3.167,3.167 0 0 0 -0.468,-0.044 0.075,0.075 0 0 1 -0.076,-0.086 c 0,-0.056 0.076,-0.066 0.185,-0.066 0.435,0 0.892,0.022 1,0.022 0.108,0 0.425,-0.022 0.816,-0.022 0.1,0 0.175,0.01 0.175,0.066 a 0.108,0.108 0 0 1 -0.109,0.086 1.124,1.124 0 0 0 -0.229,0.021 c -0.315,0.066 -0.337,0.251 -0.337,0.806 l -0.021,5.42 c 0,0.61 -0.012,0.665 -0.076,0.665 -0.1,0 -0.2,-0.076 -0.73,-0.567 -0.1,-0.086 -1.481,-1.447 -2.493,-2.5 -1.109,-1.164 -2.187,-2.3 -2.481,-2.623 z M 133.121,38.6 c 0,0.893 0,1.622 0.044,2 0.032,0.272 0.065,0.447 0.348,0.49 a 4.112,4.112 0 0 0 0.435,0.044 0.073,0.073 0 0 1 0.076,0.076 c 0,0.043 -0.043,0.076 -0.151,0.076 -0.534,0 -1.154,-0.033 -1.2,-0.033 -0.046,0 -0.652,0.033 -0.947,0.033 -0.1,0 -0.152,-0.022 -0.152,-0.076 a 0.074,0.074 0 0 1 0.076,-0.076 1.432,1.432 0 0 0 0.294,-0.044 c 0.184,-0.043 0.217,-0.218 0.25,-0.49 0.043,-0.381 0.055,-1.11 0.055,-2 v -1.635 c 0,-1.436 0,-1.7 -0.022,-1.991 -0.022,-0.315 -0.1,-0.457 -0.305,-0.5 a 1.806,1.806 0 0 0 -0.294,-0.033 0.08,0.08 0 0 1 -0.075,-0.076 c 0,-0.054 0.043,-0.076 0.151,-0.076 0.317,0 0.914,0.022 0.969,0.022 0.055,0 0.664,-0.022 0.958,-0.022 0.108,0 0.152,0.022 0.152,0.076 a 0.092,0.092 0 0 1 -0.077,0.076 1.109,1.109 0 0 0 -0.239,0.021 c -0.261,0.056 -0.315,0.186 -0.338,0.513 -0.01,0.293 -0.01,0.555 -0.01,1.991 z m -8.503,1.815 a 3.468,3.468 0 0 1 -1.165,-2.743 3.652,3.652 0 0 1 1.077,-2.524 3.955,3.955 0 0 1 2.918,-0.99 9.424,9.424 0 0 1 1.393,0.108 6.759,6.759 0 0 0 0.979,0.142 c 0.1,0 0.12,0.044 0.12,0.1 0,0.076 -0.022,0.184 -0.044,0.522 -0.01,0.3 -0.01,0.816 -0.022,0.948 -0.012,0.132 -0.054,0.2 -0.108,0.2 -0.054,0 -0.076,-0.066 -0.076,-0.2 a 1.207,1.207 0 0 0 -0.4,-0.926 3.112,3.112 0 0 0 -1.883,-0.512 2.951,2.951 0 0 0 -2.155,0.642 3.027,3.027 0 0 0 -0.86,2.417 3.362,3.362 0 0 0 3.451,3.351 2.028,2.028 0 0 0 1.578,-0.434 1.725,1.725 0 0 0 0.369,-0.773 c 0.022,-0.1 0.033,-0.131 0.1,-0.131 0.043,0 0.086,0.065 0.086,0.131 a 9.692,9.692 0 0 1 -0.228,1.186 c -0.054,0.174 -0.077,0.207 -0.24,0.272 a 5.638,5.638 0 0 1 -1.73,0.207 4.513,4.513 0 0 1 -3.16,-0.993 z M 121.329,38.6 c 0,0.893 0,1.622 0.043,2 0.033,0.272 0.066,0.447 0.348,0.49 a 4.128,4.128 0 0 0 0.436,0.044 0.073,0.073 0 0 1 0.076,0.076 c 0,0.043 -0.044,0.076 -0.153,0.076 -0.532,0 -1.153,-0.033 -1.2,-0.033 -0.047,0 -0.653,0.033 -0.947,0.033 -0.1,0 -0.153,-0.022 -0.153,-0.076 a 0.074,0.074 0 0 1 0.076,-0.076 1.432,1.432 0 0 0 0.3,-0.044 c 0.185,-0.043 0.216,-0.218 0.25,-0.49 0.043,-0.381 0.054,-1.11 0.054,-2 v -1.635 c 0,-1.436 0,-1.7 -0.022,-1.991 -0.022,-0.315 -0.1,-0.457 -0.3,-0.5 a 1.818,1.818 0 0 0 -0.294,-0.033 0.081,0.081 0 0 1 -0.076,-0.076 c 0,-0.054 0.043,-0.076 0.153,-0.076 0.315,0 0.913,0.022 0.968,0.022 0.055,0 0.664,-0.022 0.957,-0.022 0.109,0 0.152,0.022 0.152,0.076 a 0.091,0.091 0 0 1 -0.076,0.076 1.1,1.1 0 0 0 -0.239,0.021 c -0.262,0.056 -0.315,0.186 -0.337,0.513 -0.011,0.293 -0.011,0.555 -0.011,1.991 z m -9.582,-1.635 c 0,-1.436 0,-1.7 -0.023,-1.991 -0.022,-0.315 -0.076,-0.468 -0.391,-0.513 -0.077,-0.009 -0.24,-0.021 -0.328,-0.021 a 0.092,0.092 0 0 1 -0.075,-0.076 c 0,-0.054 0.044,-0.076 0.152,-0.076 0.436,0 1.056,0.022 1.11,0.022 0.109,0 0.719,-0.022 1.285,-0.022 0.958,0 2.709,-0.087 3.842,1.055 a 3.257,3.257 0 0 1 0.936,2.351 3.7,3.7 0 0 1 -1.034,2.6 3.846,3.846 0 0 1 -2.906,1.067 c -0.414,0 -0.925,-0.032 -1.339,-0.054 -0.414,-0.022 -0.74,-0.055 -0.784,-0.055 -0.021,0 -0.2,0.011 -0.391,0.011 -0.191,0 -0.425,0.022 -0.577,0.022 -0.1,0 -0.153,-0.022 -0.153,-0.076 a 0.074,0.074 0 0 1 0.076,-0.076 1.442,1.442 0 0 0 0.295,-0.044 c 0.184,-0.043 0.206,-0.218 0.25,-0.49 a 18.694,18.694 0 0 0 0.055,-2 z m 0.87,1 c 0,0.98 0,1.84 0.01,2.014 a 1.742,1.742 0 0 0 0.11,0.663 c 0.119,0.175 0.457,0.371 1.588,0.371 a 3.21,3.21 0 0 0 2.243,-0.839 3.114,3.114 0 0 0 0.751,-2.2 3.208,3.208 0 0 0 -0.9,-2.318 3.954,3.954 0 0 0 -3.1,-1.033 2.652,2.652 0 0 0 -0.577,0.064 0.162,0.162 0 0 0 -0.12,0.185 z m -6.87,-1 c 0,-1.436 0,-1.7 -0.022,-1.991 -0.022,-0.315 -0.076,-0.468 -0.392,-0.513 -0.076,-0.009 -0.239,-0.021 -0.327,-0.021 a 0.092,0.092 0 0 1 -0.076,-0.076 c 0,-0.054 0.044,-0.076 0.153,-0.076 0.435,0 1.056,0.022 1.11,0.022 0.054,0 2.068,0.011 2.286,0 0.185,-0.012 0.358,-0.044 0.434,-0.055 0.045,-0.01 0.088,-0.043 0.131,-0.043 0.043,0 0.044,0.043 0.044,0.086 0,0.066 -0.054,0.175 -0.076,0.437 -0.011,0.087 -0.033,0.5 -0.054,0.608 -0.011,0.044 -0.045,0.1 -0.088,0.1 -0.043,0 -0.077,-0.043 -0.077,-0.12 a 1,1 0 0 0 -0.053,-0.327 c -0.066,-0.152 -0.163,-0.217 -0.686,-0.283 -0.163,-0.022 -1.274,-0.032 -1.382,-0.032 -0.044,0 -0.055,0.032 -0.055,0.1 v 2.514 c 0,0.065 0,0.1 0.055,0.1 0.12,0 1.382,0 1.6,-0.021 0.218,-0.021 0.37,-0.033 0.468,-0.13 0.066,-0.066 0.109,-0.12 0.141,-0.12 0.032,0 0.054,0.022 0.054,0.076 a 5.135,5.135 0 0 0 -0.076,0.512 c -0.022,0.185 -0.043,0.533 -0.043,0.6 0,0.067 -0.023,0.174 -0.087,0.174 -0.043,0 -0.065,-0.033 -0.065,-0.087 a 0.833,0.833 0 0 0 -0.043,-0.3 c -0.034,-0.13 -0.12,-0.239 -0.491,-0.283 -0.261,-0.032 -1.284,-0.043 -1.447,-0.043 a 0.058,0.058 0 0 0 -0.066,0.065 V 38.6 c 0,0.317 -0.01,1.393 0,1.578 0.023,0.621 0.2,0.741 1.144,0.741 a 3.186,3.186 0 0 0 0.957,-0.1 0.7,0.7 0 0 0 0.436,-0.643 c 0.021,-0.108 0.043,-0.141 0.1,-0.141 0.057,0 0.066,0.076 0.066,0.141 a 7.763,7.763 0 0 1 -0.131,0.893 c -0.065,0.24 -0.163,0.24 -0.533,0.24 -0.719,0 -1.273,-0.022 -1.665,-0.032 -0.392,-0.01 -0.653,-0.023 -0.8,-0.023 -0.021,0 -0.207,0 -0.414,0.011 -0.184,0.012 -0.4,0.022 -0.554,0.022 -0.1,0 -0.153,-0.022 -0.153,-0.076 a 0.074,0.074 0 0 1 0.076,-0.076 2.747,2.747 0 0 0 0.294,-0.044 c 0.185,-0.033 0.207,-0.218 0.251,-0.49 a 19.038,19.038 0 0 0 0.054,-2 z m -3.087,2.918 c 0.043,0.391 0.12,1 0.588,1.152 a 2.341,2.341 0 0 0 0.708,0.1 c 0.054,0 0.086,0.011 0.086,0.054 0,0.065 -0.1,0.1 -0.228,0.1 -0.24,0 -1.415,-0.033 -1.818,-0.066 -0.25,-0.021 -0.3,-0.053 -0.3,-0.109 0,-0.056 0.022,-0.064 0.076,-0.076 0.054,-0.012 0.066,-0.195 0.043,-0.392 l -0.521,-5.615 h -0.033 l -2.671,5.656 c -0.229,0.48 -0.262,0.577 -0.36,0.577 -0.076,0 -0.13,-0.109 -0.337,-0.5 -0.282,-0.532 -1.218,-2.415 -1.273,-2.524 -0.1,-0.2 -1.318,-2.808 -1.437,-3.1 h -0.044 l -0.434,5.05 c -0.012,0.174 -0.012,0.37 -0.012,0.555 a 0.35,0.35 0 0 0 0.283,0.338 2.049,2.049 0 0 0 0.414,0.054 c 0.044,0 0.088,0.021 0.088,0.054 0,0.076 -0.066,0.1 -0.2,0.1 -0.4,0 -0.924,-0.033 -1.012,-0.033 -0.088,0 -0.621,0.033 -0.914,0.033 -0.109,0 -0.185,-0.022 -0.185,-0.1 0,-0.033 0.054,-0.054 0.109,-0.054 a 1.38,1.38 0 0 0 0.326,-0.033 c 0.36,-0.066 0.392,-0.49 0.436,-0.9 l 0.784,-7.1 c 0.01,-0.12 0.053,-0.2 0.119,-0.2 0.066,0 0.109,0.043 0.163,0.163 l 3.33,6.846 3.2,-6.835 c 0.043,-0.1 0.086,-0.174 0.163,-0.174 0.077,0 0.108,0.087 0.129,0.294 z M 84.949,36.965 c 0,-1.436 0,-1.7 -0.023,-1.991 -0.022,-0.315 -0.075,-0.468 -0.391,-0.513 -0.076,-0.009 -0.24,-0.021 -0.327,-0.021 a 0.092,0.092 0 0 1 -0.076,-0.076 c 0,-0.054 0.044,-0.076 0.152,-0.076 0.436,0 1.034,0.022 1.089,0.022 0.184,0 2.264,0.011 2.481,0 a 2.1,2.1 0 0 0 0.436,-0.044 c 0.054,-0.011 0.1,-0.054 0.13,-0.054 0.03,0 0.065,0.043 0.065,0.086 0,0.066 -0.043,0.175 -0.076,0.437 -0.01,0.087 -0.022,0.5 -0.043,0.608 -0.011,0.044 -0.044,0.1 -0.087,0.1 -0.043,0 -0.076,-0.043 -0.076,-0.109 A 1,1 0 0 0 88.115,34.986 0.718,0.718 0 0 0 87.463,34.713 L 85.9,34.69 c -0.054,0 -0.076,0.022 -0.076,0.1 v 2.524 c 0,0.055 0,0.088 0.066,0.088 l 1.306,-0.012 c 0.163,0 0.3,0 0.435,-0.01 0.228,-0.022 0.359,-0.055 0.445,-0.163 0.044,-0.055 0.088,-0.1 0.12,-0.1 0.032,0 0.055,0.032 0.055,0.076 a 3.664,3.664 0 0 0 -0.087,0.512 c -0.022,0.185 -0.032,0.555 -0.032,0.619 0,0.088 -0.022,0.186 -0.088,0.186 -0.066,0 -0.065,-0.044 -0.065,-0.087 a 1.261,1.261 0 0 0 -0.066,-0.338 c -0.043,-0.13 -0.2,-0.25 -0.49,-0.293 -0.239,-0.033 -1.37,-0.022 -1.533,-0.022 -0.055,0 -0.066,0.022 -0.066,0.086 v 0.74 c 0,0.915 0,1.644 0.043,2 0.033,0.272 0.087,0.447 0.349,0.49 a 4.112,4.112 0 0 0 0.435,0.044 0.073,0.073 0 0 1 0.076,0.076 c 0,0.043 -0.043,0.076 -0.152,0.076 -0.533,0 -1.153,-0.033 -1.2,-0.033 -0.047,0 -0.653,0.033 -0.947,0.033 -0.1,0 -0.152,-0.022 -0.152,-0.076 a 0.073,0.073 0 0 1 0.075,-0.076 2.728,2.728 0 0 0 0.3,-0.044 c 0.185,-0.033 0.207,-0.218 0.25,-0.49 a 18.694,18.694 0 0 0 0.055,-2 z m -5.795,-2.807 c 2.154,0 3.787,1.316 3.787,3.471 a 3.706,3.706 0 0 1 -3.841,3.777 3.548,3.548 0 0 1 -3.744,-3.635 3.664,3.664 0 0 1 3.798,-3.613 z m 0.217,6.867 c 0.859,0 2.591,-0.457 2.591,-3.134 0,-2.22 -1.35,-3.385 -2.863,-3.385 -1.6,0 -2.754,1 -2.754,3.015 0,2.154 1.296,3.504 3.026,3.504 z M 67.95,38.62 c 0,1.36 0.021,1.915 0.195,2.079 0.153,0.152 0.523,0.217 1.273,0.217 0.5,0 0.926,-0.011 1.155,-0.283 a 1.143,1.143 0 0 0 0.228,-0.523 c 0.01,-0.064 0.043,-0.12 0.1,-0.12 0.057,0 0.065,0.044 0.065,0.142 a 5.739,5.739 0 0 1 -0.142,0.925 c -0.064,0.219 -0.1,0.251 -0.609,0.251 -0.685,0 -1.219,-0.011 -1.664,-0.032 -0.445,-0.021 -0.763,-0.023 -1.045,-0.023 -0.044,0 -0.207,0 -0.393,0.011 -0.186,0.011 -0.4,0.022 -0.555,0.022 -0.1,0 -0.152,-0.022 -0.152,-0.076 a 0.074,0.074 0 0 1 0.076,-0.076 1.422,1.422 0 0 0 0.294,-0.044 c 0.185,-0.043 0.206,-0.218 0.25,-0.49 a 18.694,18.694 0 0 0 0.055,-2 v -1.635 c 0,-1.436 0,-1.7 -0.022,-1.991 -0.022,-0.315 -0.077,-0.468 -0.391,-0.513 -0.077,-0.009 -0.24,-0.021 -0.328,-0.021 a 0.091,0.091 0 0 1 -0.075,-0.076 c 0,-0.054 0.043,-0.076 0.152,-0.076 0.436,0 1.033,0.022 1.089,0.022 0.056,0 0.761,-0.022 1.055,-0.022 0.1,0 0.153,0.022 0.153,0.076 0,0.033 -0.044,0.066 -0.077,0.066 -0.065,0 -0.207,0.01 -0.315,0.022 -0.284,0.054 -0.338,0.2 -0.36,0.522 -0.01,0.293 -0.01,0.555 -0.01,1.991 z m -6.665,-4.462 c 2.154,0 3.787,1.316 3.787,3.471 a 3.707,3.707 0 0 1 -3.843,3.777 3.548,3.548 0 0 1 -3.743,-3.635 3.663,3.663 0 0 1 3.799,-3.613 z m 0.217,6.867 c 0.859,0 2.59,-0.457 2.59,-3.134 0,-2.22 -1.35,-3.385 -2.863,-3.385 -1.6,0 -2.753,1 -2.753,3.015 0,2.154 1.296,3.504 3.024,3.504 z m -9.015,-6.867 c 2.154,0 3.787,1.316 3.787,3.471 a 3.707,3.707 0 0 1 -3.842,3.777 3.548,3.548 0 0 1 -3.744,-3.635 3.663,3.663 0 0 1 3.799,-3.613 z m 0.217,6.867 c 0.859,0 2.59,-0.457 2.59,-3.134 0,-2.22 -1.35,-3.385 -2.862,-3.385 -1.6,0 -2.754,1 -2.754,3.015 0,2.154 1.296,3.504 3.022,3.504 z M 46.55,38.6 c 0,0.893 0.011,1.622 0.054,2 0.033,0.272 0.054,0.447 0.348,0.49 a 3.935,3.935 0 0 0 0.425,0.044 0.076,0.076 0 0 1 0.086,0.076 c 0,0.043 -0.054,0.076 -0.163,0.076 -0.521,0 -1.131,-0.033 -1.186,-0.033 -0.055,0 -0.664,0.033 -0.946,0.033 -0.109,0 -0.153,-0.022 -0.153,-0.076 a 0.074,0.074 0 0 1 0.076,-0.076 1.321,1.321 0 0 0 0.283,-0.044 c 0.2,-0.043 0.229,-0.228 0.262,-0.5 0.043,-0.38 0.043,-1.077 0.043,-1.969 v -0.926 c 0,-0.043 -0.021,-0.054 -0.054,-0.054 h -3.994 c -0.033,0 -0.055,0.011 -0.055,0.054 v 0.926 c 0,0.892 0,1.6 0.044,1.98 0.032,0.272 0.065,0.447 0.348,0.49 a 4.087,4.087 0 0 0 0.435,0.044 0.073,0.073 0 0 1 0.076,0.076 c 0,0.043 -0.043,0.076 -0.151,0.076 -0.534,0 -1.144,-0.033 -1.187,-0.033 -0.043,0 -0.664,0.033 -0.958,0.033 -0.1,0 -0.152,-0.022 -0.152,-0.076 a 0.074,0.074 0 0 1 0.076,-0.076 1.432,1.432 0 0 0 0.294,-0.044 c 0.184,-0.043 0.206,-0.218 0.249,-0.49 a 18.361,18.361 0 0 0 0.056,-2 v -1.636 c 0,-1.436 0,-1.7 -0.022,-1.991 -0.022,-0.315 -0.077,-0.468 -0.392,-0.513 -0.076,-0.009 -0.239,-0.021 -0.327,-0.021 a 0.092,0.092 0 0 1 -0.076,-0.076 c 0,-0.054 0.044,-0.076 0.152,-0.076 0.436,0 1.045,0.022 1.1,0.022 0.055,0 0.653,-0.022 0.946,-0.022 0.109,0 0.153,0.022 0.153,0.076 a 0.092,0.092 0 0 1 -0.077,0.076 1.109,1.109 0 0 0 -0.239,0.021 c -0.261,0.056 -0.315,0.186 -0.338,0.513 -0.01,0.293 -0.01,0.577 -0.01,2.013 v 0.2 c 0,0.055 0.022,0.055 0.055,0.055 h 3.994 c 0.033,0 0.054,0 0.054,-0.055 v -0.2 c 0,-1.436 -0.011,-1.72 -0.021,-2.013 C 45.636,34.659 45.592,34.506 45.277,34.461 45.2,34.452 45.037,34.44 44.949,34.44 a 0.081,0.081 0 0 1 -0.075,-0.076 c 0,-0.054 0.043,-0.076 0.152,-0.076 0.424,0 1.045,0.022 1.088,0.022 0.043,0 0.665,-0.022 0.947,-0.022 0.11,0 0.163,0.022 0.163,0.076 a 0.092,0.092 0 0 1 -0.087,0.076 1.157,1.157 0 0 0 -0.239,0.021 c -0.251,0.056 -0.3,0.186 -0.327,0.513 -0.021,0.293 -0.021,0.555 -0.021,1.991 z m -13.478,1.815 a 3.468,3.468 0 0 1 -1.165,-2.743 3.65,3.65 0 0 1 1.078,-2.524 3.949,3.949 0 0 1 2.917,-0.99 9.414,9.414 0 0 1 1.393,0.108 6.778,6.778 0 0 0 0.979,0.142 c 0.1,0 0.12,0.044 0.12,0.1 0,0.076 -0.021,0.184 -0.043,0.522 -0.012,0.3 -0.012,0.816 -0.023,0.948 -0.011,0.132 -0.054,0.2 -0.108,0.2 -0.054,0 -0.076,-0.066 -0.076,-0.2 a 1.207,1.207 0 0 0 -0.4,-0.926 3.108,3.108 0 0 0 -1.883,-0.512 2.951,2.951 0 0 0 -2.155,0.642 3.026,3.026 0 0 0 -0.859,2.417 3.361,3.361 0 0 0 3.449,3.351 2.024,2.024 0 0 0 1.578,-0.434 1.718,1.718 0 0 0 0.37,-0.773 c 0.022,-0.1 0.033,-0.131 0.1,-0.131 0.044,0 0.088,0.065 0.088,0.131 a 9.738,9.738 0 0 1 -0.229,1.186 c -0.054,0.174 -0.076,0.207 -0.239,0.272 a 5.649,5.649 0 0 1 -1.731,0.207 4.515,4.515 0 0 1 -3.161,-0.993 z m -6.729,0.73 c -0.153,-0.077 -0.163,-0.12 -0.163,-0.414 0,-0.544 0.043,-0.979 0.054,-1.153 0.011,-0.12 0.032,-0.175 0.087,-0.175 0.055,0 0.076,0.033 0.076,0.12 a 1.956,1.956 0 0 0 0.032,0.4 1.482,1.482 0 0 0 1.612,1.109 1.452,1.452 0 0 0 1.559,-1.444 c 0,-0.75 -0.316,-1.186 -1.252,-1.959 l -0.489,-0.4 c -1.155,-0.947 -1.415,-1.621 -1.415,-2.361 a 1.993,1.993 0 0 1 2.253,-1.959 4.242,4.242 0 0 1 1.012,0.108 1.758,1.758 0 0 0 0.381,0.055 c 0.087,0 0.109,0.022 0.109,0.076 0,0.054 -0.045,0.414 -0.045,1.153 0,0.175 -0.021,0.251 -0.075,0.251 -0.054,0 -0.076,-0.054 -0.088,-0.141 a 1.921,1.921 0 0 0 -0.14,-0.544 C 29.785,33.747 29.491,33.29 28.49,33.29 a 1.238,1.238 0 0 0 -1.339,1.262 c 0,0.621 0.283,1.013 1.328,1.829 l 0.3,0.239 c 1.284,1.012 1.588,1.687 1.588,2.557 a 2.254,2.254 0 0 1 -0.925,1.808 2.863,2.863 0 0 1 -1.642,0.457 3.313,3.313 0 0 1 -1.457,-0.297 z" />
      </g>
    </g>
    <g
       id="g5277"
       style="fill:#bada55;fill-opacity:0">
      <path
         d="M26.626,46.825h.986V52.66h-.986Z"
         fill="#bcbec0"
         id="path5225"
         style="fill:#bada55;fill-opacity:0" />
      <path
         d="M33.606,46.825h.985V52.66H33.522L30.216,48.4V52.66h-.985V46.825h.985l3.39,4.357Z"
         fill="#bcbec0"
         id="path5227"
         style="fill:#bada55;fill-opacity:0" />
      <path
         d="M37.976,47.593a1.288,1.288,0,0,0-.7.175.586.586,0,0,0-.276.53.616.616,0,0,0,.276.543,4.161,4.161,0,0,0,1.173.405,3.233,3.233,0,0,1,1.352.609,1.445,1.445,0,0,1,.455,1.156,1.531,1.531,0,0,1-.576,1.24,2.3,2.3,0,0,1-1.511.476,3.546,3.546,0,0,1-2.429-.943l.617-.743a2.783,2.783,0,0,0,1.837.768,1.253,1.253,0,0,0,.756-.2.64.64,0,0,0,.279-.542.607.607,0,0,0-.263-.526,2.741,2.741,0,0,0-.906-.343,8.208,8.208,0,0,1-.976-.283,2.22,2.22,0,0,1-.593-.339,1.411,1.411,0,0,1-.518-1.2,1.462,1.462,0,0,1,.589-1.248,2.371,2.371,0,0,1,1.457-.438,3.5,3.5,0,0,1,1.11.183,2.91,2.91,0,0,1,.952.518l-.526.743a2,2,0,0,0-.7-.384A2.712,2.712,0,0,0,37.976,47.593Z"
         fill="#bcbec0"
         id="path5229"
         style="fill:#bada55;fill-opacity:0" />
      <path
         d="M43.674,47.726V52.66h-.985V47.726h-1.77v-.9h4.525v.9Z"
         fill="#bcbec0"
         id="path5231"
         style="fill:#bada55;fill-opacity:0" />
      <path
         d="M46.512,46.825H47.5V52.66h-.985Z"
         fill="#bcbec0"
         id="path5233"
         style="fill:#bada55;fill-opacity:0" />
      <path
         d="M51.321,47.726V52.66h-.985V47.726h-1.77v-.9h4.525v.9Z"
         fill="#bcbec0"
         id="path5235"
         style="fill:#bada55;fill-opacity:0" />
      <path
         d="M55.47,51.325a1.494,1.494,0,0,0,2.17,0,1.882,1.882,0,0,0,.4-1.269V46.825h.985V50.1a2.6,2.6,0,0,1-.693,1.941,2.662,2.662,0,0,1-3.556,0,2.6,2.6,0,0,1-.693-1.941V46.825h.985v3.231A1.887,1.887,0,0,0,55.47,51.325Z"
         fill="#bcbec0"
         id="path5237"
         style="fill:#bada55;fill-opacity:0" />
      <path
         d="M62.775,47.726V52.66h-.986V47.726h-1.77v-.9h4.525v.9Z"
         fill="#bcbec0"
         id="path5239"
         style="fill:#bada55;fill-opacity:0" />
      <path
         d="M69.712,46.825v.926H66.6V49.3h2.8v.877H66.6v1.561h3.214v.926h-4.2V46.825Z"
         fill="#bcbec0"
         id="path5241"
         style="fill:#bada55;fill-opacity:0" />
      <path
         d="M74.345,47.743v1.6h2.588v.91H74.345v2.4H73.36V46.825h3.891l-.009.918Z"
         fill="#bcbec0"
         id="path5243"
         style="fill:#bada55;fill-opacity:0" />
      <path
         d="M83.286,51.855a3.2,3.2,0,0,1-4.374,0,3.064,3.064,0,0,1,0-4.308,3.2,3.2,0,0,1,4.374,0,3.064,3.064,0,0,1,0,4.308ZM82.564,48.2a2.045,2.045,0,0,0-2.93,0,2.179,2.179,0,0,0,0,3,2.045,2.045,0,0,0,2.93,0,2.179,2.179,0,0,0,0-3Z"
         fill="#bcbec0"
         id="path5245"
         style="fill:#bada55;fill-opacity:0" />
      <path
         d="M90.074,48.72a1.7,1.7,0,0,1-1.261,1.82l1.528,2.12H89.088L87.694,50.7H86.4V52.66h-.985V46.825h2.171a3.145,3.145,0,0,1,1.911.45A1.72,1.72,0,0,1,90.074,48.72Zm-1.311.826a1.04,1.04,0,0,0,.3-.83.891.891,0,0,0-.309-.785,2.058,2.058,0,0,0-1.1-.213H86.4v2.087h1.228A1.8,1.8,0,0,0,88.763,49.546Z"
         fill="#bcbec0"
         id="path5247"
         style="fill:#bada55;fill-opacity:0" />
      <path
         d="M97.821,49.822h.985v1.995a3.029,3.029,0,0,1-2.363.91,2.977,2.977,0,0,1-2.166-.852,2.878,2.878,0,0,1-.872-2.153,2.908,2.908,0,0,1,.889-2.171,2.961,2.961,0,0,1,2.149-.868,3.059,3.059,0,0,1,2.1.734l-.526.752a2.042,2.042,0,0,0-.689-.4,2.6,2.6,0,0,0-.8-.113,2.073,2.073,0,0,0-1.486.572,2.055,2.055,0,0,0,1.4,3.561,2.529,2.529,0,0,0,1.39-.359Z"
         fill="#bcbec0"
         id="path5249"
         style="fill:#bada55;fill-opacity:0" />
      <path
         d="M104.2,46.825v.926h-3.113V49.3h2.8v.877h-2.8v1.561H104.3v.926h-4.2V46.825Z"
         fill="#bcbec0"
         id="path5251"
         style="fill:#bada55;fill-opacity:0" />
      <path
         d="M109.935,46.825h.985V52.66h-1.069L106.545,48.4V52.66h-.985V46.825h.985l3.39,4.357Z"
         fill="#bcbec0"
         id="path5253"
         style="fill:#bada55;fill-opacity:0" />
      <path
         d="M117.423,51.855a3.2,3.2,0,0,1-4.375,0,3.064,3.064,0,0,1,0-4.308,3.2,3.2,0,0,1,4.375,0,3.064,3.064,0,0,1,0,4.308ZM116.7,48.2a2.045,2.045,0,0,0-2.93,0,2.179,2.179,0,0,0,0,3,2.045,2.045,0,0,0,2.93,0,2.179,2.179,0,0,0,0-3Z"
         fill="#bcbec0"
         id="path5255"
         style="fill:#bada55;fill-opacity:0" />
      <path
         d="M120.537,52.66h-.985V46.825h1.536l1.762,3.664,1.761-3.664h1.528V52.66h-.985V48.1l-2.037,4.049h-.551L120.537,48.1Z"
         fill="#bcbec0"
         id="path5257"
         style="fill:#bada55;fill-opacity:0" />
      <path
         d="M131.858,46.825v.926h-3.115V49.3h2.8v.877h-2.8v1.561h3.215v.926h-4.2V46.825Z"
         fill="#bcbec0"
         id="path5259"
         style="fill:#bada55;fill-opacity:0" />
      <path
         d="M137.271,47.593a1.29,1.29,0,0,0-.7.175.586.586,0,0,0-.276.53.616.616,0,0,0,.276.543,4.173,4.173,0,0,0,1.173.405,3.233,3.233,0,0,1,1.352.609,1.445,1.445,0,0,1,.455,1.156,1.531,1.531,0,0,1-.576,1.24,2.3,2.3,0,0,1-1.511.476,3.55,3.55,0,0,1-2.43-.943l.619-.743a2.779,2.779,0,0,0,1.836.768,1.253,1.253,0,0,0,.756-.2.641.641,0,0,0,.28-.542.609.609,0,0,0-.263-.526,2.759,2.759,0,0,0-.906-.343,8.178,8.178,0,0,1-.977-.283,2.22,2.22,0,0,1-.593-.339,1.411,1.411,0,0,1-.518-1.2,1.464,1.464,0,0,1,.589-1.248,2.373,2.373,0,0,1,1.457-.438,3.5,3.5,0,0,1,1.11.183,2.91,2.91,0,0,1,.952.518l-.526.743a1.986,1.986,0,0,0-.7-.384A2.708,2.708,0,0,0,137.271,47.593Z"
         fill="#bcbec0"
         id="path5261"
         style="fill:#bada55;fill-opacity:0" />
      <path
         d="M143.428,51.767a2.063,2.063,0,0,0,.877-.171,3.024,3.024,0,0,0,.768-.547l.634.651a2.92,2.92,0,0,1-2.25,1.027,3.013,3.013,0,0,1-2.195-.852,2.878,2.878,0,0,1-.872-2.153,2.908,2.908,0,0,1,.889-2.171,3.08,3.08,0,0,1,2.245-.868,2.937,2.937,0,0,1,2.267,1l-.627.684a2.716,2.716,0,0,0-.788-.559,2.209,2.209,0,0,0-.873-.159,2.076,2.076,0,0,0-1.486.572,1.93,1.93,0,0,0-.6,1.461,2.02,2.02,0,0,0,.6,1.486A1.934,1.934,0,0,0,143.428,51.767Z"
         fill="#bcbec0"
         id="path5263"
         style="fill:#bada55;fill-opacity:0" />
      <path
         d="M146.91,46.825h.985V52.66h-.985Z"
         fill="#bcbec0"
         id="path5265"
         style="fill:#bada55;fill-opacity:0" />
      <path
         d="M153.614,46.825v.926H150.5V49.3h2.8v.877h-2.8v1.561h3.215v.926h-4.2V46.825Z"
         fill="#bcbec0"
         id="path5267"
         style="fill:#bada55;fill-opacity:0" />
      <path
         d="M159.349,46.825h.985V52.66h-1.069L155.959,48.4V52.66h-.985V46.825h.985l3.39,4.357Z"
         fill="#bcbec0"
         id="path5269"
         style="fill:#bada55;fill-opacity:0" />
      <path
         d="M164.616,51.767a2.063,2.063,0,0,0,.877-.171,3.024,3.024,0,0,0,.768-.547l.635.651a2.923,2.923,0,0,1-2.251,1.027,3.013,3.013,0,0,1-2.2-.852,2.878,2.878,0,0,1-.872-2.153,2.908,2.908,0,0,1,.889-2.171,3.08,3.08,0,0,1,2.245-.868,2.937,2.937,0,0,1,2.267,1l-.627.684a2.716,2.716,0,0,0-.788-.559,2.209,2.209,0,0,0-.873-.159,2.076,2.076,0,0,0-1.486.572,1.93,1.93,0,0,0-.6,1.461,2.02,2.02,0,0,0,.6,1.486A1.934,1.934,0,0,0,164.616,51.767Z"
         fill="#bcbec0"
         id="path5271"
         style="fill:#bada55;fill-opacity:0" />
      <path
         d="M172.2,46.825v.926h-3.114V49.3h2.8v.877h-2.8v1.561H172.3v.926h-4.2V46.825Z"
         fill="#bcbec0"
         id="path5273"
         style="fill:#bada55;fill-opacity:0" />
      <path
         d="M175.323,47.593a1.29,1.29,0,0,0-.705.175.586.586,0,0,0-.276.53.616.616,0,0,0,.276.543,4.173,4.173,0,0,0,1.173.405,3.233,3.233,0,0,1,1.352.609,1.442,1.442,0,0,1,.455,1.156,1.531,1.531,0,0,1-.576,1.24,2.3,2.3,0,0,1-1.511.476,3.546,3.546,0,0,1-2.429-.943l.617-.743a2.783,2.783,0,0,0,1.837.768,1.253,1.253,0,0,0,.756-.2.64.64,0,0,0,.279-.542.607.607,0,0,0-.263-.526,2.743,2.743,0,0,0-.905-.343,8.178,8.178,0,0,1-.977-.283,2.22,2.22,0,0,1-.593-.339,1.411,1.411,0,0,1-.517-1.2,1.461,1.461,0,0,1,.588-1.248,2.371,2.371,0,0,1,1.457-.438,3.5,3.5,0,0,1,1.11.183,2.9,2.9,0,0,1,.951.518l-.526.743a1.977,1.977,0,0,0-.7-.384A2.7,2.7,0,0,0,175.323,47.593Z"
         fill="#bcbec0"
         id="path5275"
         style="fill:#bada55;fill-opacity:0" />
    </g>
  </g>
</svg>
