<svg xmlns="http://www.w3.org/2000/svg" width="54.465" height="136.723" viewBox="0 0 54.465 136.723">
  <title>umb-graphic</title>
  <g>
    <g>
      <path d="M7.447,57.711v47.834q3.78,2.121,7.67,3.99l.145-57.316S9.738,50.973,7.447,57.711Z" fill="#a7a9ac"/>
      <path d="M23.141,57.711V113.1q3.782,1.526,7.656,2.8l.16-63.685S25.434,50.973,23.141,57.711Z" fill="#a7a9ac"/>
      <path d="M38.84,57.711v60.564q3.784.983,7.641,1.723l.173-67.779S41.127,50.973,38.84,57.711Z" fill="#a7a9ac"/>
    </g>
    <path d="M0,0V8.494c19.426,2.389,37.887,9.531,54.465,20.055V27.291C37.887,14.566,19.426,4.967,0,0Z" fill="#a7a9ac"/>
    <path d="M13.516,33.434s4.765-2.524,13.6-2.524a39.836,39.836,0,0,1,16.766,3.51,42.971,42.971,0,0,1,10.578,6.791V34.762C37.887,24.238,19.426,17.094,0,14.7V41.109A44.567,44.567,0,0,1,13.516,33.434Z" fill="#a7a9ac"/>
    <polygon points="27.291 37.264 4.361 47.779 50.486 47.779 27.291 37.264" fill="#a7a9ac"/>
    <path d="M0,109.43c16.578,12.724,35.047,22.324,54.465,27.293v-8.494C35.047,125.838,16.578,118.691,0,108.172Z" fill="#a7a9ac"/>
  </g>
</svg>
