<?xml version="1.0" encoding="UTF-8" standalone="no"?>
<svg
   xmlns:dc="http://purl.org/dc/elements/1.1/"
   xmlns:cc="http://creativecommons.org/ns#"
   xmlns:rdf="http://www.w3.org/1999/02/22-rdf-syntax-ns#"
   xmlns:svg="http://www.w3.org/2000/svg"
   xmlns="http://www.w3.org/2000/svg"
   xmlns:sodipodi="http://sodipodi.sourceforge.net/DTD/sodipodi-0.dtd"
   xmlns:inkscape="http://www.inkscape.org/namespaces/inkscape"
   width="189.023"
   height="52.727"
   viewBox="0 0 189.023 52.727"
   version="1.1"
   id="svg5281"
   sodipodi:docname="som_igs_logo.svg"
   inkscape:version="0.92.2 5c3e80d, 2017-08-06">
  <metadata
     id="metadata5287">
    <rdf:RDF>
      <cc:Work
         rdf:about="">
        <dc:format>image/svg+xml</dc:format>
        <dc:type
           rdf:resource="http://purl.org/dc/dcmitype/StillImage" />
      </cc:Work>
    </rdf:RDF>
  </metadata>
  <defs
     id="defs5285" />
  <sodipodi:namedview
     pagecolor="#ffffff"
     bordercolor="#666666"
     borderopacity="1"
     objecttolerance="10"
     gridtolerance="10"
     guidetolerance="10"
     inkscape:pageopacity="0"
     inkscape:pageshadow="2"
     inkscape:window-width="1206"
     inkscape:window-height="742"
     id="namedview5283"
     showgrid="false"
     inkscape:zoom="1.5236241"
     inkscape:cx="-22.971548"
     inkscape:cy="26.3635"
     inkscape:window-x="238"
     inkscape:window-y="67"
     inkscape:window-maximized="0"
     inkscape:current-layer="svg5281" />
  <title
     id="title5121">gray-som-logo</title>
  <g
     id="g5279"
     style="fill:#ffffff;fill-opacity:0.98571426">
    <g
       id="g5223"
       style="fill:#ffffff;fill-opacity:0.98571426">
      <g
         id="g5155"
         style="fill:#ffffff;fill-opacity:0.98571426">
        <path
           d="M26.343,41.145c-.153-.077-.163-.12-.163-.414,0-.544.043-.979.054-1.153.011-.12.032-.175.087-.175s.076.033.076.12a1.956,1.956,0,0,0,.032.4,1.482,1.482,0,0,0,1.612,1.109A1.452,1.452,0,0,0,29.6,39.588c0-.75-.316-1.186-1.252-1.959l-.489-.4c-1.155-.947-1.415-1.621-1.415-2.361a1.993,1.993,0,0,1,2.253-1.959,4.242,4.242,0,0,1,1.012.108,1.758,1.758,0,0,0,.381.055c.087,0,.109.022.109.076s-.045.414-.045,1.153c0,.175-.021.251-.075.251s-.076-.054-.088-.141a1.921,1.921,0,0,0-.14-.544c-.066-.12-.36-.577-1.361-.577a1.238,1.238,0,0,0-1.339,1.262c0,.621.283,1.013,1.328,1.829l.3.239c1.284,1.012,1.588,1.687,1.588,2.557a2.254,2.254,0,0,1-.925,1.808,2.863,2.863,0,0,1-1.642.457A3.313,3.313,0,0,1,26.343,41.145Z"
           fill="#bcbec0"
           id="path5123"
           style="fill:#ffffff;fill-opacity:0.98571426" />
        <path
           d="M33.072,40.415a3.468,3.468,0,0,1-1.165-2.743,3.65,3.65,0,0,1,1.078-2.524,3.949,3.949,0,0,1,2.917-.99,9.414,9.414,0,0,1,1.393.108,6.778,6.778,0,0,0,.979.142c.1,0,.12.044.12.1,0,.076-.021.184-.043.522-.012.3-.012.816-.023.948s-.054.2-.108.2-.076-.066-.076-.2a1.207,1.207,0,0,0-.4-.926,3.108,3.108,0,0,0-1.883-.512,2.951,2.951,0,0,0-2.155.642,3.026,3.026,0,0,0-.859,2.417,3.361,3.361,0,0,0,3.449,3.351,2.024,2.024,0,0,0,1.578-.434,1.718,1.718,0,0,0,.37-.773c.022-.1.033-.131.1-.131.044,0,.088.065.088.131a9.738,9.738,0,0,1-.229,1.186c-.054.174-.076.207-.239.272a5.649,5.649,0,0,1-1.731.207A4.515,4.515,0,0,1,33.072,40.415Z"
           fill="#bcbec0"
           id="path5125"
           style="fill:#ffffff;fill-opacity:0.98571426" />
        <path
           d="M46.55,38.6c0,.893.011,1.622.054,2,.033.272.054.447.348.49a3.935,3.935,0,0,0,.425.044.076.076,0,0,1,.086.076c0,.043-.054.076-.163.076-.521,0-1.131-.033-1.186-.033s-.664.033-.946.033c-.109,0-.153-.022-.153-.076a.074.074,0,0,1,.076-.076,1.321,1.321,0,0,0,.283-.044c.2-.043.229-.228.262-.5.043-.38.043-1.077.043-1.969v-.926c0-.043-.021-.054-.054-.054H41.631c-.033,0-.055.011-.055.054v.926c0,.892,0,1.6.044,1.98.032.272.065.447.348.49a4.087,4.087,0,0,0,.435.044.073.073,0,0,1,.076.076c0,.043-.043.076-.151.076-.534,0-1.144-.033-1.187-.033s-.664.033-.958.033c-.1,0-.152-.022-.152-.076a.074.074,0,0,1,.076-.076,1.432,1.432,0,0,0,.294-.044c.184-.043.206-.218.249-.49a18.361,18.361,0,0,0,.056-2V36.965c0-1.436,0-1.7-.022-1.991-.022-.315-.077-.468-.392-.513-.076-.009-.239-.021-.327-.021a.092.092,0,0,1-.076-.076c0-.054.044-.076.152-.076.436,0,1.045.022,1.1.022s.653-.022.946-.022c.109,0,.153.022.153.076a.092.092,0,0,1-.077.076,1.109,1.109,0,0,0-.239.021c-.261.056-.315.186-.338.513-.01.293-.01.577-.01,2.013v.2c0,.055.022.055.055.055h3.994c.033,0,.054,0,.054-.055v-.2c0-1.436-.011-1.72-.021-2.013-.022-.315-.066-.468-.381-.513-.077-.009-.24-.021-.328-.021a.081.081,0,0,1-.075-.076c0-.054.043-.076.152-.076.424,0,1.045.022,1.088.022s.665-.022.947-.022c.11,0,.163.022.163.076a.092.092,0,0,1-.087.076,1.157,1.157,0,0,0-.239.021c-.251.056-.3.186-.327.513-.021.293-.021.555-.021,1.991Z"
           fill="#bcbec0"
           id="path5127"
           style="fill:#ffffff;fill-opacity:0.98571426" />
        <path
           d="M52.487,34.158c2.154,0,3.787,1.316,3.787,3.471a3.707,3.707,0,0,1-3.842,3.777,3.548,3.548,0,0,1-3.744-3.635A3.663,3.663,0,0,1,52.487,34.158Zm.217,6.867c.859,0,2.59-.457,2.59-3.134,0-2.22-1.35-3.385-2.862-3.385-1.6,0-2.754,1-2.754,3.015C49.678,39.675,50.974,41.025,52.7,41.025Z"
           fill="#bcbec0"
           id="path5129"
           style="fill:#ffffff;fill-opacity:0.98571426" />
        <path
           d="M61.285,34.158c2.154,0,3.787,1.316,3.787,3.471a3.707,3.707,0,0,1-3.843,3.777,3.548,3.548,0,0,1-3.743-3.635A3.663,3.663,0,0,1,61.285,34.158Zm.217,6.867c.859,0,2.59-.457,2.59-3.134,0-2.22-1.35-3.385-2.863-3.385-1.6,0-2.753,1-2.753,3.015C58.476,39.675,59.772,41.025,61.5,41.025Z"
           fill="#bcbec0"
           id="path5131"
           style="fill:#ffffff;fill-opacity:0.98571426" />
        <path
           d="M67.95,38.62c0,1.36.021,1.915.195,2.079.153.152.523.217,1.273.217.5,0,.926-.011,1.155-.283a1.143,1.143,0,0,0,.228-.523c.01-.064.043-.12.1-.12s.065.044.065.142a5.739,5.739,0,0,1-.142.925c-.064.219-.1.251-.609.251-.685,0-1.219-.011-1.664-.032s-.763-.023-1.045-.023c-.044,0-.207,0-.393.011s-.4.022-.555.022c-.1,0-.152-.022-.152-.076a.074.074,0,0,1,.076-.076,1.422,1.422,0,0,0,.294-.044c.185-.043.206-.218.25-.49a18.694,18.694,0,0,0,.055-2V36.965c0-1.436,0-1.7-.022-1.991-.022-.315-.077-.468-.391-.513-.077-.009-.24-.021-.328-.021a.091.091,0,0,1-.075-.076c0-.054.043-.076.152-.076.436,0,1.033.022,1.089.022s.761-.022,1.055-.022c.1,0,.153.022.153.076,0,.033-.044.066-.077.066-.065,0-.207.01-.315.022-.284.054-.338.2-.36.522-.01.293-.01.555-.01,1.991Z"
           fill="#bcbec0"
           id="path5133"
           style="fill:#ffffff;fill-opacity:0.98571426" />
        <path
           d="M79.154,34.158c2.154,0,3.787,1.316,3.787,3.471A3.706,3.706,0,0,1,79.1,41.406a3.548,3.548,0,0,1-3.744-3.635A3.664,3.664,0,0,1,79.154,34.158Zm.217,6.867c.859,0,2.591-.457,2.591-3.134,0-2.22-1.35-3.385-2.863-3.385-1.6,0-2.754,1-2.754,3.015C76.345,39.675,77.641,41.025,79.371,41.025Z"
           fill="#bcbec0"
           id="path5135"
           style="fill:#ffffff;fill-opacity:0.98571426" />
        <path
           d="M84.949,36.965c0-1.436,0-1.7-.023-1.991-.022-.315-.075-.468-.391-.513-.076-.009-.24-.021-.327-.021a.092.092,0,0,1-.076-.076c0-.054.044-.076.152-.076.436,0,1.034.022,1.089.022.184,0,2.264.011,2.481,0a2.1,2.1,0,0,0,.436-.044c.054-.011.1-.054.13-.054s.065.043.065.086c0,.066-.043.175-.076.437-.01.087-.022.5-.043.608-.011.044-.044.1-.087.1s-.076-.043-.076-.109a1,1,0,0,0-.088-.348.718.718,0,0,0-.652-.273L85.9,34.69c-.054,0-.076.022-.076.1v2.524c0,.055,0,.088.066.088l1.306-.012c.163,0,.3,0,.435-.01.228-.022.359-.055.445-.163.044-.055.088-.1.12-.1s.055.032.055.076a3.664,3.664,0,0,0-.087.512c-.022.185-.032.555-.032.619,0,.088-.022.186-.088.186s-.065-.044-.065-.087a1.261,1.261,0,0,0-.066-.338c-.043-.13-.2-.25-.49-.293-.239-.033-1.37-.022-1.533-.022-.055,0-.066.022-.066.086v.74c0,.915,0,1.644.043,2,.033.272.087.447.349.49a4.112,4.112,0,0,0,.435.044.073.073,0,0,1,.076.076c0,.043-.043.076-.152.076-.533,0-1.153-.033-1.2-.033s-.653.033-.947.033c-.1,0-.152-.022-.152-.076a.073.073,0,0,1,.075-.076,2.728,2.728,0,0,0,.3-.044c.185-.033.207-.218.25-.49a18.694,18.694,0,0,0,.055-2Z"
           fill="#bcbec0"
           id="path5137"
           style="fill:#ffffff;fill-opacity:0.98571426" />
        <path
           d="M102.66,39.883c.043.391.12,1,.588,1.152a2.341,2.341,0,0,0,.708.1c.054,0,.086.011.086.054,0,.065-.1.1-.228.1-.24,0-1.415-.033-1.818-.066-.25-.021-.3-.053-.3-.109s.022-.064.076-.076.066-.195.043-.392l-.521-5.615h-.033L98.59,40.687c-.229.48-.262.577-.36.577-.076,0-.13-.109-.337-.5-.282-.532-1.218-2.415-1.273-2.524-.1-.2-1.318-2.808-1.437-3.1h-.044l-.434,5.05c-.012.174-.012.37-.012.555a.35.35,0,0,0,.283.338,2.049,2.049,0,0,0,.414.054c.044,0,.088.021.088.054,0,.076-.066.1-.2.1-.4,0-.924-.033-1.012-.033s-.621.033-.914.033c-.109,0-.185-.022-.185-.1,0-.033.054-.054.109-.054a1.38,1.38,0,0,0,.326-.033c.36-.066.392-.49.436-.9l.784-7.1c.01-.12.053-.2.119-.2s.109.043.163.163l3.33,6.846,3.2-6.835c.043-.1.086-.174.163-.174s.108.087.129.294Z"
           fill="#bcbec0"
           id="path5139"
           style="fill:#ffffff;fill-opacity:0.98571426" />
        <path
           d="M105.747,36.965c0-1.436,0-1.7-.022-1.991-.022-.315-.076-.468-.392-.513-.076-.009-.239-.021-.327-.021a.092.092,0,0,1-.076-.076c0-.054.044-.076.153-.076.435,0,1.056.022,1.11.022s2.068.011,2.286,0c.185-.012.358-.044.434-.055.045-.01.088-.043.131-.043s.044.043.044.086c0,.066-.054.175-.076.437-.011.087-.033.5-.054.608-.011.044-.045.1-.088.1s-.077-.043-.077-.12a1,1,0,0,0-.053-.327c-.066-.152-.163-.217-.686-.283-.163-.022-1.274-.032-1.382-.032-.044,0-.055.032-.055.1v2.514c0,.065,0,.1.055.1.12,0,1.382,0,1.6-.021s.37-.033.468-.13c.066-.066.109-.12.141-.12s.054.022.054.076a5.135,5.135,0,0,0-.076.512c-.022.185-.043.533-.043.6s-.023.174-.087.174c-.043,0-.065-.033-.065-.087a.833.833,0,0,0-.043-.3c-.034-.13-.12-.239-.491-.283-.261-.032-1.284-.043-1.447-.043a.058.058,0,0,0-.066.065V38.6c0,.317-.01,1.393,0,1.578.023.621.2.741,1.144.741a3.186,3.186,0,0,0,.957-.1.7.7,0,0,0,.436-.643c.021-.108.043-.141.1-.141s.066.076.066.141a7.763,7.763,0,0,1-.131.893c-.065.24-.163.24-.533.24-.719,0-1.273-.022-1.665-.032s-.653-.023-.8-.023c-.021,0-.207,0-.414.011-.184.012-.4.022-.554.022-.1,0-.153-.022-.153-.076a.074.074,0,0,1,.076-.076,2.747,2.747,0,0,0,.294-.044c.185-.033.207-.218.251-.49a19.038,19.038,0,0,0,.054-2Z"
           fill="#bcbec0"
           id="path5141"
           style="fill:#ffffff;fill-opacity:0.98571426" />
        <path
           d="M111.747,36.965c0-1.436,0-1.7-.023-1.991-.022-.315-.076-.468-.391-.513-.077-.009-.24-.021-.328-.021a.092.092,0,0,1-.075-.076c0-.054.044-.076.152-.076.436,0,1.056.022,1.11.022.109,0,.719-.022,1.285-.022.958,0,2.709-.087,3.842,1.055a3.257,3.257,0,0,1,.936,2.351,3.7,3.7,0,0,1-1.034,2.6,3.846,3.846,0,0,1-2.906,1.067c-.414,0-.925-.032-1.339-.054s-.74-.055-.784-.055c-.021,0-.2.011-.391.011s-.425.022-.577.022c-.1,0-.153-.022-.153-.076a.074.074,0,0,1,.076-.076,1.442,1.442,0,0,0,.295-.044c.184-.043.206-.218.25-.49a18.694,18.694,0,0,0,.055-2Zm.87,1c0,.98,0,1.84.01,2.014a1.742,1.742,0,0,0,.11.663c.119.175.457.371,1.588.371a3.21,3.21,0,0,0,2.243-.839,3.114,3.114,0,0,0,.751-2.2,3.208,3.208,0,0,0-.9-2.318,3.954,3.954,0,0,0-3.1-1.033,2.652,2.652,0,0,0-.577.064.162.162,0,0,0-.12.185Z"
           fill="#bcbec0"
           id="path5143"
           style="fill:#ffffff;fill-opacity:0.98571426" />
        <path
           d="M121.329,38.6c0,.893,0,1.622.043,2,.033.272.066.447.348.49a4.128,4.128,0,0,0,.436.044.073.073,0,0,1,.076.076c0,.043-.044.076-.153.076-.532,0-1.153-.033-1.2-.033s-.653.033-.947.033c-.1,0-.153-.022-.153-.076a.074.074,0,0,1,.076-.076,1.432,1.432,0,0,0,.3-.044c.185-.043.216-.218.25-.49.043-.381.054-1.11.054-2V36.965c0-1.436,0-1.7-.022-1.991-.022-.315-.1-.457-.3-.5a1.818,1.818,0,0,0-.294-.033.081.081,0,0,1-.076-.076c0-.054.043-.076.153-.076.315,0,.913.022.968.022s.664-.022.957-.022c.109,0,.152.022.152.076a.091.091,0,0,1-.076.076,1.1,1.1,0,0,0-.239.021c-.262.056-.315.186-.337.513-.011.293-.011.555-.011,1.991Z"
           fill="#bcbec0"
           id="path5145"
           style="fill:#ffffff;fill-opacity:0.98571426" />
        <path
           d="M124.618,40.415a3.468,3.468,0,0,1-1.165-2.743,3.652,3.652,0,0,1,1.077-2.524,3.955,3.955,0,0,1,2.918-.99,9.424,9.424,0,0,1,1.393.108,6.759,6.759,0,0,0,.979.142c.1,0,.12.044.12.1,0,.076-.022.184-.044.522-.01.3-.01.816-.022.948s-.054.2-.108.2-.076-.066-.076-.2a1.207,1.207,0,0,0-.4-.926,3.112,3.112,0,0,0-1.883-.512,2.951,2.951,0,0,0-2.155.642,3.027,3.027,0,0,0-.86,2.417,3.362,3.362,0,0,0,3.451,3.351,2.028,2.028,0,0,0,1.578-.434,1.725,1.725,0,0,0,.369-.773c.022-.1.033-.131.1-.131.043,0,.086.065.086.131a9.692,9.692,0,0,1-.228,1.186c-.054.174-.077.207-.24.272a5.638,5.638,0,0,1-1.73.207A4.513,4.513,0,0,1,124.618,40.415Z"
           fill="#bcbec0"
           id="path5147"
           style="fill:#ffffff;fill-opacity:0.98571426" />
        <path
           d="M133.121,38.6c0,.893,0,1.622.044,2,.032.272.065.447.348.49a4.112,4.112,0,0,0,.435.044.073.073,0,0,1,.076.076c0,.043-.043.076-.151.076-.534,0-1.154-.033-1.2-.033s-.652.033-.947.033c-.1,0-.152-.022-.152-.076a.074.074,0,0,1,.076-.076,1.432,1.432,0,0,0,.294-.044c.184-.043.217-.218.25-.49.043-.381.055-1.11.055-2V36.965c0-1.436,0-1.7-.022-1.991-.022-.315-.1-.457-.305-.5a1.806,1.806,0,0,0-.294-.033.08.08,0,0,1-.075-.076c0-.054.043-.076.151-.076.317,0,.914.022.969.022s.664-.022.958-.022c.108,0,.152.022.152.076a.092.092,0,0,1-.077.076,1.109,1.109,0,0,0-.239.021c-.261.056-.315.186-.338.513-.01.293-.01.555-.01,1.991Z"
           fill="#bcbec0"
           id="path5149"
           style="fill:#ffffff;fill-opacity:0.98571426" />
        <path
           d="M136.672,40.024c.022.761.109.99.371,1.056a2.292,2.292,0,0,0,.478.054.075.075,0,0,1,.076.076c0,.054-.065.076-.175.076-.543,0-.925-.033-1.011-.033s-.489.033-.926.033c-.1,0-.152-.01-.152-.076a.075.075,0,0,1,.076-.076,1.527,1.527,0,0,0,.392-.054c.24-.066.272-.317.272-1.154v-5.3c0-.371.055-.468.131-.468.109,0,.272.184.37.282.152.153,1.545,1.633,3.026,3.157.946.979,1.97,2.078,2.263,2.383l-.1-4.637c-.011-.6-.065-.805-.359-.859a3.167,3.167,0,0,0-.468-.044.075.075,0,0,1-.076-.086c0-.056.076-.066.185-.066.435,0,.892.022,1,.022s.425-.022.816-.022c.1,0,.175.01.175.066a.108.108,0,0,1-.109.086,1.124,1.124,0,0,0-.229.021c-.315.066-.337.251-.337.806l-.021,5.42c0,.61-.012.665-.076.665-.1,0-.2-.076-.73-.567-.1-.086-1.481-1.447-2.493-2.5-1.109-1.164-2.187-2.3-2.481-2.623Z"
           fill="#bcbec0"
           id="path5151"
           style="fill:#ffffff;fill-opacity:0.98571426" />
        <path
           d="M145.122,36.965c0-1.436,0-1.7-.022-1.991-.022-.315-.076-.468-.392-.513-.076-.009-.239-.021-.327-.021a.092.092,0,0,1-.075-.076c0-.054.044-.076.152-.076.436,0,1.056.022,1.11.022s2.068.011,2.286,0c.185-.012.359-.044.434-.055.045-.01.088-.043.132-.043s.043.043.043.086c0,.066-.054.175-.076.437-.011.087-.033.5-.054.608-.011.044-.045.1-.088.1s-.076-.043-.076-.12a1,1,0,0,0-.054-.327c-.066-.152-.163-.217-.686-.283-.163-.022-1.273-.032-1.382-.032-.044,0-.054.032-.054.1v2.514c0,.065,0,.1.054.1.12,0,1.382,0,1.6-.021s.369-.033.467-.13c.066-.066.109-.12.142-.12s.054.022.054.076a5.135,5.135,0,0,0-.076.512c-.022.185-.044.533-.044.6s-.022.174-.087.174c-.043,0-.065-.033-.065-.087a.833.833,0,0,0-.043-.3c-.034-.13-.12-.239-.49-.283-.262-.032-1.285-.043-1.448-.043a.057.057,0,0,0-.065.065V38.6c0,.317-.011,1.393,0,1.578.022.621.195.741,1.143.741a3.182,3.182,0,0,0,.957-.1.7.7,0,0,0,.436-.643c.021-.108.043-.141.1-.141s.065.076.065.141a7.547,7.547,0,0,1-.131.893c-.065.24-.163.24-.533.24-.719,0-1.273-.022-1.665-.032s-.653-.023-.795-.023c-.021,0-.206,0-.414.011-.184.012-.4.022-.554.022-.1,0-.153-.022-.153-.076a.074.074,0,0,1,.076-.076,2.71,2.71,0,0,0,.294-.044c.186-.033.207-.218.251-.49a19.038,19.038,0,0,0,.054-2Z"
           fill="#bcbec0"
           id="path5153"
           style="fill:#ffffff;fill-opacity:0.98571426" />
      </g>
      <g
         id="g5203"
         style="fill:#ffffff;fill-opacity:0.98571426">
        <g
           id="g5177"
           style="fill:#ffffff;fill-opacity:0.98571426">
          <path
             d="M26.082,22.883c0-2.105,0-2.484-.026-2.915-.028-.459-.136-.676-.581-.77a2.529,2.529,0,0,0-.459-.04c-.054,0-.108-.028-.108-.082,0-.081.067-.107.215-.107.609,0,1.432.04,1.553.04s.932-.04,1.337-.04c.148,0,.215.026.215.107,0,.054-.053.082-.107.082a2,2,0,0,0-.338.04c-.364.054-.473.3-.5.77-.027.431-.027.81-.027,2.915v1.89c0,1.945.432,2.782,1.013,3.335a2.64,2.64,0,0,0,2.037.743,2.832,2.832,0,0,0,2.12-.973,5.234,5.234,0,0,0,.784-3.307V22.883c0-2.105,0-2.484-.028-2.915-.027-.459-.134-.676-.58-.77a2.532,2.532,0,0,0-.46-.04c-.054,0-.108-.028-.108-.082,0-.081.069-.107.217-.107.607,0,1.35.04,1.431.04s.729-.04,1.134-.04c.148,0,.217.026.217.107,0,.054-.055.082-.109.082a1.985,1.985,0,0,0-.337.04c-.365.081-.473.3-.5.77-.026.431-.026.81-.026,2.915v1.446c0,1.457-.163,3.077-1.243,4.036a3.952,3.952,0,0,1-2.781,1,4.142,4.142,0,0,1-2.781-.958c-.662-.635-1.175-1.58-1.175-3.55Z"
             fill="#bcbec0"
             id="path5157"
             style="fill:#ffffff;fill-opacity:0.98571426" />
          <path
             d="M37.046,27.609c.026.945.135,1.228.459,1.309a2.829,2.829,0,0,0,.593.068.092.092,0,0,1,.095.094c0,.067-.081.1-.216.1-.675,0-1.148-.041-1.255-.041s-.607.041-1.148.041c-.121,0-.189-.014-.189-.1a.092.092,0,0,1,.095-.094,1.879,1.879,0,0,0,.486-.068c.3-.081.337-.392.337-1.431V20.912c0-.459.068-.58.163-.58.134,0,.337.229.458.351.189.19,1.917,2.024,3.753,3.915,1.174,1.214,2.443,2.578,2.809,2.957L43.364,21.8c-.014-.743-.081-1-.446-1.068a3.965,3.965,0,0,0-.58-.053.1.1,0,0,1-.095-.108c0-.068.095-.081.229-.081.541,0,1.108.027,1.243.027s.527-.027,1.012-.027c.122,0,.217.013.217.081a.135.135,0,0,1-.135.108,1.336,1.336,0,0,0-.283.027c-.393.081-.419.31-.419,1l-.027,6.724c0,.755-.014.823-.095.823-.122,0-.244-.095-.9-.7-.122-.109-1.836-1.8-3.092-3.1C38.612,24,37.275,22.6,36.912,22.2Z"
             fill="#bcbec0"
             id="path5159"
             style="fill:#ffffff;fill-opacity:0.98571426" />
          <path
             d="M48.6,25.84c0,1.107,0,2.012.055,2.484.04.338.08.554.432.607a4.6,4.6,0,0,0,.54.055.091.091,0,0,1,.094.094c0,.054-.054.1-.189.1-.662,0-1.432-.041-1.486-.041s-.809.041-1.174.041c-.122,0-.188-.028-.188-.1a.09.09,0,0,1,.093-.094,1.645,1.645,0,0,0,.365-.055c.23-.053.27-.269.31-.607.055-.472.068-1.377.068-2.484V23.815c0-1.782,0-2.106-.027-2.47-.027-.392-.121-.567-.378-.621a2.137,2.137,0,0,0-.365-.041.1.1,0,0,1-.094-.094c0-.068.054-.095.189-.095.392,0,1.134.027,1.2.027s.824-.027,1.189-.027c.134,0,.188.027.188.095a.115.115,0,0,1-.093.094,1.328,1.328,0,0,0-.3.027c-.323.068-.391.23-.419.635-.013.364-.013.688-.013,2.47Z"
             fill="#bcbec0"
             id="path5161"
             style="fill:#ffffff;fill-opacity:0.98571426" />
          <path
             d="M55.382,27.676c.689-1.539,2.24-5.454,2.5-6.277a1.983,1.983,0,0,0,.108-.433.241.241,0,0,0-.162-.242,1.362,1.362,0,0,0-.405-.041c-.068,0-.135-.04-.135-.094s.081-.095.27-.095c.473,0,1.012.027,1.16.027.068,0,.582-.027.933-.027.121,0,.188.027.188.081s-.04.108-.135.108a1.1,1.1,0,0,0-.567.136c-.161.107-.351.269-.662,1.052-.135.324-.714,1.7-1.323,3.105-.728,1.674-1.255,2.916-1.525,3.483-.324.688-.392.864-.513.864s-.216-.148-.446-.7l-2.915-7.034c-.27-.647-.432-.768-.824-.863a2.269,2.269,0,0,0-.459-.041.1.1,0,0,1-.094-.108c0-.068.121-.081.31-.081.567,0,1.243.027,1.39.027.122,0,.648-.027,1.108-.027.215,0,.324.027.324.081a.111.111,0,0,1-.122.108,1.514,1.514,0,0,0-.432.053.19.19,0,0,0-.135.2,4.842,4.842,0,0,0,.324.958Z"
             fill="#bcbec0"
             id="path5163"
             style="fill:#ffffff;fill-opacity:0.98571426" />
          <path
             d="M61.592,23.815c0-1.782,0-2.106-.026-2.47-.027-.392-.1-.581-.486-.635a3.951,3.951,0,0,0-.405-.027.115.115,0,0,1-.094-.094c0-.068.054-.095.188-.095.54,0,1.31.027,1.378.027s2.564.014,2.834,0c.23-.014.446-.054.541-.068.053-.013.107-.054.161-.054s.055.054.055.108c0,.082-.068.217-.095.541-.014.107-.04.62-.068.756-.013.054-.053.121-.107.121-.069,0-.095-.054-.095-.149a1.254,1.254,0,0,0-.067-.4c-.082-.19-.2-.27-.851-.352-.2-.026-1.579-.04-1.715-.04-.054,0-.067.04-.067.122V24.22c0,.081,0,.122.067.122.149,0,1.715,0,1.985-.028s.46-.04.581-.161c.081-.082.135-.149.176-.149s.066.027.066.095-.066.256-.094.634c-.027.23-.055.661-.055.742s-.026.216-.107.216c-.053,0-.081-.04-.081-.108a1.012,1.012,0,0,0-.054-.377c-.041-.162-.148-.3-.607-.351-.325-.041-1.594-.054-1.8-.054-.068,0-.081.039-.081.081v.958c0,.392-.013,1.728,0,1.957.028.77.243.919,1.418.919a3.933,3.933,0,0,0,1.187-.122.87.87,0,0,0,.541-.8c.026-.135.054-.175.121-.175s.081.095.081.175a9.417,9.417,0,0,1-.162,1.108c-.081.3-.2.3-.661.3-.892,0-1.58-.026-2.066-.04s-.81-.027-.985-.027c-.028,0-.257,0-.513.013-.23.014-.5.028-.689.028-.121,0-.189-.028-.189-.1a.091.091,0,0,1,.094-.094,3.214,3.214,0,0,0,.365-.055c.23-.04.256-.269.311-.607a23.954,23.954,0,0,0,.066-2.484Z"
             fill="#bcbec0"
             id="path5165"
             style="fill:#ffffff;fill-opacity:0.98571426" />
          <path
             d="M67.953,23.815c0-1.782,0-2.106-.027-2.47-.027-.392-.095-.581-.486-.635a3.951,3.951,0,0,0-.405-.027.115.115,0,0,1-.094-.094c0-.068.054-.095.188-.095.54,0,1.337.027,1.4.027.123,0,1.122-.027,1.486-.027a3.883,3.883,0,0,1,2.214.5,2.01,2.01,0,0,1,.823,1.566A3.35,3.35,0,0,1,71.6,25.179c.972,1.214,1.8,2.254,2.485,2.97a2.246,2.246,0,0,0,1.741.837.1.1,0,0,1,.108.094c0,.067-.067.1-.283.1h-.743a2.383,2.383,0,0,1-1.269-.23,6.07,6.07,0,0,1-1.62-1.688c-.5-.62-1.026-1.362-1.282-1.674a.183.183,0,0,0-.162-.067l-1.513-.027c-.053,0-.081.027-.081.094v.271c0,1.106,0,2,.054,2.47.041.338.108.554.473.607a4.171,4.171,0,0,0,.526.055.084.084,0,0,1,.095.094c0,.054-.054.1-.189.1-.648,0-1.405-.041-1.459-.041-.013,0-.81.041-1.174.041-.121,0-.188-.028-.188-.1a.09.09,0,0,1,.093-.094,1.637,1.637,0,0,0,.365-.055c.23-.053.256-.269.311-.607a23.6,23.6,0,0,0,.067-2.484Zm1.026.972a.17.17,0,0,0,.081.148,4.01,4.01,0,0,0,1.309.176,1.545,1.545,0,0,0,.892-.2,2.051,2.051,0,0,0,.715-1.756A1.982,1.982,0,0,0,69.925,20.9a5.3,5.3,0,0,0-.851.067.148.148,0,0,0-.095.136Z"
             fill="#bcbec0"
             id="path5167"
             style="fill:#ffffff;fill-opacity:0.98571426" />
          <path
             d="M75.636,29.013c-.163-.082-.175-.122-.175-.433,0-.566.054-1.025.067-1.215,0-.121.028-.189.094-.189s.109.042.109.135a1.536,1.536,0,0,0,1.917,1.553c1.174,0,1.781-.661,1.781-1.525,0-.823-.445-1.215-1.5-2l-.541-.405c-1.281-.959-1.7-1.661-1.7-2.457,0-1.35,1.066-2.16,2.633-2.16a5.769,5.769,0,0,1,1.228.135,1.544,1.544,0,0,0,.419.054c.095,0,.121.014.121.082a12.144,12.144,0,0,0-.054,1.215c0,.175-.014.256-.094.256s-.095-.055-.108-.148a2.144,2.144,0,0,0-.176-.567c-.081-.136-.472-.567-1.539-.567-.864,0-1.579.431-1.579,1.241,0,.729.364,1.148,1.539,1.944l.337.23c1.444.986,1.944,1.782,1.944,2.767a2.235,2.235,0,0,1-1.107,1.958,3.645,3.645,0,0,1-1.89.405A4.371,4.371,0,0,1,75.636,29.013Z"
             fill="#bcbec0"
             id="path5169"
             style="fill:#ffffff;fill-opacity:0.98571426" />
          <path
             d="M83.71,25.84c0,1.107,0,2.012.054,2.484.041.338.081.554.432.607a4.644,4.644,0,0,0,.54.055.092.092,0,0,1,.095.094c0,.054-.054.1-.19.1-.661,0-1.431-.041-1.485-.041s-.81.041-1.175.041c-.121,0-.188-.028-.188-.1a.091.091,0,0,1,.094-.094,1.645,1.645,0,0,0,.365-.055c.23-.053.27-.269.31-.607.055-.472.067-1.377.067-2.484V23.815c0-1.782,0-2.106-.026-2.47-.027-.392-.121-.567-.378-.621a2.137,2.137,0,0,0-.365-.041.1.1,0,0,1-.094-.094c0-.068.054-.095.189-.095.391,0,1.134.027,1.2.027s.824-.027,1.188-.027c.135,0,.189.027.189.095a.115.115,0,0,1-.094.094,1.325,1.325,0,0,0-.3.027c-.324.068-.391.23-.419.635-.013.364-.013.688-.013,2.47Z"
             fill="#bcbec0"
             id="path5171"
             style="fill:#ffffff;fill-opacity:0.98571426" />
          <path
             d="M90.2,25.84c0,1.107,0,2.012.054,2.484.041.338.095.554.459.607a4.365,4.365,0,0,0,.54.055.084.084,0,0,1,.095.094c0,.054-.055.1-.19.1-.647,0-1.4-.041-1.472-.041-.053,0-.876.041-1.227.041-.135,0-.189-.028-.189-.1,0-.041.026-.08.094-.08a1.591,1.591,0,0,0,.351-.055c.243-.054.311-.283.351-.621.055-.472.055-1.377.055-2.484V21.02l-1.715.028c-.743.013-1.027.094-1.2.364a1.767,1.767,0,0,0-.188.364c-.028.095-.068.108-.122.108a.09.09,0,0,1-.082-.094c0-.122.243-1.147.257-1.242.027-.068.081-.216.122-.216a4.022,4.022,0,0,0,.526.135c.338.04.8.054.931.054h4.483a5.93,5.93,0,0,0,.851-.054c.175-.027.283-.054.336-.054s.054.067.054.135c0,.351-.039,1.174-.039,1.31,0,.094-.055.147-.109.147s-.081-.039-.095-.2l-.013-.122c-.041-.351-.3-.607-1.431-.634L90.2,21.02Z"
             fill="#bcbec0"
             id="path5173"
             style="fill:#ffffff;fill-opacity:0.98571426" />
          <path
             d="M98.008,26.191a2.038,2.038,0,0,0-.257-1.174c-.093-.177-1.7-2.728-2.105-3.335a2.993,2.993,0,0,0-.784-.837,1.152,1.152,0,0,0-.5-.162.119.119,0,0,1-.121-.108c0-.054.041-.081.149-.081.23,0,1.12.027,1.174.027.082,0,.567-.027,1.027-.027.135,0,.162.027.162.081s-.081.081-.189.122a.2.2,0,0,0-.149.188.942.942,0,0,0,.162.446l2.16,3.578c.243-.487,1.728-2.943,1.944-3.322a1.217,1.217,0,0,0,.2-.593c0-.163-.054-.258-.189-.3-.108-.027-.176-.082-.176-.136s.068-.067.19-.067c.31,0,.728.027.823.027.08,0,.931-.027,1.16-.027.081,0,.149.027.149.067a.138.138,0,0,1-.149.122,1.229,1.229,0,0,0-.553.148,2.074,2.074,0,0,0-.594.568c-.392.459-2.066,3.159-2.309,3.645a2.3,2.3,0,0,0-.148,1.147v.985c0,.189,0,.676.041,1.148.027.338.107.554.458.607a4.4,4.4,0,0,0,.541.055.09.09,0,0,1,.094.094c0,.054-.068.1-.189.1-.662,0-1.431-.041-1.5-.041s-.809.041-1.16.041c-.136,0-.19-.028-.19-.1a.092.092,0,0,1,.095-.094,1.535,1.535,0,0,0,.351-.055c.243-.053.324-.269.351-.607.027-.472.027-.959.027-1.148Z"
             fill="#bcbec0"
             id="path5175"
             style="fill:#ffffff;fill-opacity:0.98571426" />
        </g>
        <g
           id="g5195"
           style="fill:#ffffff;fill-opacity:0.98571426">
          <path
             d="M127.1,27.445c.053.483.147,1.234.723,1.422a2.93,2.93,0,0,0,.872.12c.066,0,.107.013.107.067,0,.08-.121.12-.282.12-.295,0-1.742-.04-2.238-.08-.308-.028-.376-.067-.376-.135,0-.053.027-.079.095-.092s.08-.242.052-.483l-.643-6.917h-.04l-3.283,6.971c-.282.589-.323.709-.443.709-.094,0-.161-.133-.415-.617-.349-.656-1.5-2.974-1.568-3.109-.121-.241-1.622-3.458-1.77-3.82h-.053l-.536,6.22c-.013.215-.013.456-.013.683a.428.428,0,0,0,.348.416,2.509,2.509,0,0,0,.509.067c.054,0,.107.027.107.067,0,.093-.08.12-.241.12-.5,0-1.14-.04-1.247-.04s-.763.04-1.126.04c-.133,0-.228-.027-.228-.12,0-.04.068-.067.134-.067a1.694,1.694,0,0,0,.4-.041c.442-.079.483-.6.536-1.112l.965-8.739c.013-.147.067-.242.148-.242s.133.054.2.2l4.1,8.431,3.94-8.418c.054-.12.108-.215.2-.215s.135.108.161.363Z"
             fill="#bcbec0"
             id="path5179"
             style="fill:#ffffff;fill-opacity:0.98571426" />
          <path
             d="M132.992,20.784c.146-.375.2-.442.281-.442.121,0,.161.16.282.415.214.482,2.1,5.187,2.828,6.916.429,1.019.751,1.166,1,1.247a1.662,1.662,0,0,0,.469.067c.067,0,.148.027.148.094s-.134.093-.268.093c-.175,0-1.045,0-1.864-.027-.227-.013-.415-.013-.415-.081,0-.052.026-.052.081-.079a.215.215,0,0,0,.107-.308l-1.059-2.614c-.026-.054-.04-.067-.107-.067h-2.721a.124.124,0,0,0-.121.094l-.67,1.823a2.353,2.353,0,0,0-.174.764c0,.227.2.308.4.308h.107c.095,0,.121.04.121.094s-.066.093-.173.093c-.282,0-.926-.04-1.059-.04s-.711.04-1.194.04c-.148,0-.227-.027-.227-.093a.1.1,0,0,1,.107-.094,3.127,3.127,0,0,0,.348-.028c.537-.066.764-.468.992-1.044Zm1.313,4.744c.054,0,.054-.026.041-.079l-1.166-3.125c-.068-.173-.134-.173-.2,0l-1.1,3.125c-.012.053,0,.079.04.079Z"
             fill="#bcbec0"
             id="path5181"
             style="fill:#ffffff;fill-opacity:0.98571426" />
          <path
             d="M139.025,23.854c0-1.771,0-2.092-.026-2.453-.027-.39-.094-.577-.482-.631a3.937,3.937,0,0,0-.4-.026.115.115,0,0,1-.093-.094c0-.067.054-.094.188-.094.536,0,1.326.027,1.393.027.121,0,1.113-.027,1.475-.027a3.856,3.856,0,0,1,2.2.5,2,2,0,0,1,.818,1.554,3.333,3.333,0,0,1-1.448,2.6c.964,1.207,1.783,2.238,2.466,2.949a2.236,2.236,0,0,0,1.729.831.1.1,0,0,1,.107.094c0,.066-.067.093-.281.093h-.737a2.362,2.362,0,0,1-1.26-.228,5.99,5.99,0,0,1-1.608-1.675c-.5-.616-1.02-1.354-1.274-1.662a.18.18,0,0,0-.16-.067l-1.5-.027c-.055,0-.081.027-.081.094v.269c0,1.1,0,1.983.053,2.451.04.336.107.551.469.6a4.5,4.5,0,0,0,.524.054.083.083,0,0,1,.092.094c0,.053-.053.093-.187.093-.643,0-1.394-.04-1.447-.04-.014,0-.8.04-1.167.04-.12,0-.187-.027-.187-.093a.091.091,0,0,1,.095-.094,1.752,1.752,0,0,0,.361-.054c.228-.053.254-.268.308-.6a23.581,23.581,0,0,0,.066-2.465Zm1.02.964a.166.166,0,0,0,.081.148,3.983,3.983,0,0,0,1.3.174,1.53,1.53,0,0,0,.885-.2,2.035,2.035,0,0,0,.71-1.743,1.969,1.969,0,0,0-2.037-2.238,5.127,5.127,0,0,0-.845.067.147.147,0,0,0-.093.135Z"
             fill="#bcbec0"
             id="path5183"
             style="fill:#ffffff;fill-opacity:0.98571426" />
          <path
             d="M148.868,26.212a2.033,2.033,0,0,0-.255-1.166c-.094-.174-1.689-2.707-2.091-3.311a2.992,2.992,0,0,0-.777-.831,1.165,1.165,0,0,0-.5-.16.119.119,0,0,1-.12-.108c0-.053.04-.08.147-.08.227,0,1.113.027,1.166.027.081,0,.563-.027,1.019-.027.134,0,.161.027.161.08s-.08.081-.188.121a.2.2,0,0,0-.147.188.934.934,0,0,0,.161.442l2.144,3.552c.241-.483,1.716-2.922,1.93-3.3a1.211,1.211,0,0,0,.2-.589c0-.162-.053-.256-.187-.3-.107-.026-.175-.08-.175-.134s.068-.067.188-.067c.308,0,.724.027.817.027s.926-.027,1.153-.027c.08,0,.148.027.148.067a.137.137,0,0,1-.148.121,1.208,1.208,0,0,0-.549.147,2.029,2.029,0,0,0-.59.563c-.389.456-2.05,3.137-2.292,3.619a2.28,2.28,0,0,0-.148,1.139v.979c0,.187,0,.67.041,1.138.026.336.107.551.455.6a4.719,4.719,0,0,0,.537.054.091.091,0,0,1,.093.094c0,.053-.066.093-.187.093-.657,0-1.421-.04-1.488-.04s-.8.04-1.153.04c-.134,0-.188-.027-.188-.093a.091.091,0,0,1,.095-.094,1.614,1.614,0,0,0,.348-.054c.242-.053.321-.268.349-.6.027-.468.027-.951.027-1.138Z"
             fill="#bcbec0"
             id="path5185"
             style="fill:#ffffff;fill-opacity:0.98571426" />
          <path
             d="M156.322,25.89c0,1.676.027,2.36.242,2.561.187.187.643.267,1.567.267.617,0,1.14-.013,1.421-.348a1.385,1.385,0,0,0,.282-.643c.013-.081.054-.147.121-.147s.08.053.08.173a7.074,7.074,0,0,1-.175,1.14c-.08.268-.12.308-.75.308-.845,0-1.5-.014-2.051-.04s-.938-.027-1.286-.027c-.054,0-.255,0-.482.013s-.5.027-.685.027c-.12,0-.187-.027-.187-.093a.091.091,0,0,1,.094-.094,1.742,1.742,0,0,0,.361-.054c.229-.053.255-.268.31-.6a23.943,23.943,0,0,0,.065-2.465v-2.01c0-1.771,0-2.092-.026-2.453-.027-.39-.094-.577-.482-.631a3.918,3.918,0,0,0-.4-.026.115.115,0,0,1-.093-.094c0-.067.054-.094.188-.094.536,0,1.273.027,1.34.027s.938-.027,1.3-.027c.121,0,.189.027.189.094,0,.04-.054.081-.095.081-.08,0-.254.013-.387.026-.35.067-.417.241-.444.644-.013.361-.013.682-.013,2.453Z"
             fill="#bcbec0"
             id="path5187"
             style="fill:#ffffff;fill-opacity:0.98571426" />
          <path
             d="M164.608,20.784c.148-.375.2-.442.282-.442.121,0,.16.16.281.415.215.482,2.105,5.187,2.829,6.916.429,1.019.75,1.166,1,1.247a1.657,1.657,0,0,0,.469.067c.067,0,.148.027.148.094s-.134.093-.269.093c-.174,0-1.045,0-1.862-.027-.229-.013-.416-.013-.416-.081,0-.052.026-.052.08-.079a.213.213,0,0,0,.107-.308L166.2,26.065c-.026-.054-.039-.067-.107-.067h-2.72a.126.126,0,0,0-.122.094l-.669,1.823a2.332,2.332,0,0,0-.175.764c0,.227.2.308.4.308h.107c.094,0,.121.04.121.094s-.067.093-.174.093c-.281,0-.925-.04-1.059-.04s-.71.04-1.192.04c-.148,0-.228-.027-.228-.093a.1.1,0,0,1,.107-.094,3.146,3.146,0,0,0,.348-.028c.536-.066.764-.468.992-1.044Zm1.314,4.744c.054,0,.054-.026.04-.079L164.8,22.324c-.068-.173-.134-.173-.2,0l-1.1,3.125c-.013.053,0,.079.04.079Z"
             fill="#bcbec0"
             id="path5189"
             style="fill:#ffffff;fill-opacity:0.98571426" />
          <path
             d="M171.675,27.619c.027.939.134,1.22.455,1.3a2.852,2.852,0,0,0,.59.067.092.092,0,0,1,.095.094c0,.066-.081.093-.215.093-.671,0-1.139-.04-1.247-.04s-.6.04-1.139.04c-.121,0-.187-.013-.187-.093a.091.091,0,0,1,.094-.094,1.888,1.888,0,0,0,.482-.067c.295-.081.334-.39.334-1.421V20.972c0-.456.068-.577.162-.577.133,0,.335.228.455.349.188.188,1.9,2.01,3.726,3.887,1.166,1.206,2.426,2.56,2.789,2.935l-.122-5.71c-.013-.737-.08-.992-.442-1.059a3.785,3.785,0,0,0-.576-.053c-.08,0-.094-.067-.094-.108,0-.067.094-.08.228-.08.536,0,1.1.027,1.233.027s.523-.027,1.006-.027c.12,0,.214.013.214.08a.133.133,0,0,1-.134.108,1.372,1.372,0,0,0-.282.026c-.388.081-.415.309-.415.992l-.027,6.676c0,.749-.014.817-.094.817-.12,0-.241-.094-.9-.7-.121-.107-1.823-1.783-3.07-3.083-1.367-1.435-2.694-2.827-3.055-3.23Z"
             fill="#bcbec0"
             id="path5191"
             style="fill:#ffffff;fill-opacity:0.98571426" />
          <path
             d="M181.007,23.854c0-1.771,0-2.092-.027-2.453-.026-.39-.093-.577-.482-.631a3.9,3.9,0,0,0-.4-.026A.115.115,0,0,1,180,20.65c0-.067.054-.094.188-.094.537,0,1.3.027,1.367.027.134,0,.885-.027,1.581-.027,1.18,0,3.338-.107,4.732,1.3a4,4,0,0,1,1.153,2.895,4.564,4.564,0,0,1-1.274,3.2,4.74,4.74,0,0,1-3.578,1.313c-.51,0-1.14-.04-1.649-.067s-.911-.067-.965-.067c-.027,0-.241.013-.482.013s-.524.027-.711.027c-.121,0-.188-.027-.188-.093a.091.091,0,0,1,.095-.094,1.742,1.742,0,0,0,.361-.054c.228-.053.255-.268.309-.6a23.581,23.581,0,0,0,.066-2.465Zm1.072,1.232c0,1.207,0,2.265.014,2.48a2.168,2.168,0,0,0,.134.818c.147.214.563.455,1.957.455a3.955,3.955,0,0,0,2.761-1.032,3.835,3.835,0,0,0,.925-2.708,3.948,3.948,0,0,0-1.113-2.854,4.869,4.869,0,0,0-3.82-1.273,3.036,3.036,0,0,0-.71.081.2.2,0,0,0-.148.227Z"
             fill="#bcbec0"
             id="path5193"
             style="fill:#ffffff;fill-opacity:0.98571426" />
        </g>
        <g
           id="g5201"
           style="fill:#ffffff;fill-opacity:0.98571426">
          <path
             d="M108.679,24.935a3.189,3.189,0,0,1-.408,1.528,3.1,3.1,0,0,1-1.141,1.2,2.74,2.74,0,0,1-1.421.442,1.545,1.545,0,0,1-1.15-.45,1.585,1.585,0,0,1-.445-1.166,3.039,3.039,0,0,1,.434-1.518,3.3,3.3,0,0,1,1.164-1.205,2.714,2.714,0,0,1,1.408-.443,1.5,1.5,0,0,1,1.12.448A1.592,1.592,0,0,1,108.679,24.935Zm-.854-.356a1.046,1.046,0,0,0-.234-.733.786.786,0,0,0-.6-.255q-.756,0-1.392,1.084a4.218,4.218,0,0,0-.637,2.154,1.064,1.064,0,0,0,.248.754.813.813,0,0,0,.623.265q.726,0,1.362-1.079A4.261,4.261,0,0,0,107.825,24.579Z"
             fill="#bcbec0"
             id="path5197"
             style="fill:#ffffff;fill-opacity:0.98571426" />
          <path
             d="M111.99,23.447l-.092.339h-.752l-.566,2.25a13.48,13.48,0,0,1-.756,2.3,3.984,3.984,0,0,1-1.164,1.585,1.635,1.635,0,0,1-.947.334.779.779,0,0,1-.526-.185.408.408,0,0,1-.159-.334.375.375,0,0,1,.131-.286.457.457,0,0,1,.322-.121.332.332,0,0,1,.234.088.266.266,0,0,1,.095.2.286.286,0,0,1-.108.212c-.055.048-.083.083-.083.107a.087.087,0,0,0,.037.073.235.235,0,0,0,.144.036.952.952,0,0,0,.466-.139,1.353,1.353,0,0,0,.435-.415,3.134,3.134,0,0,0,.36-.8q.073-.215.386-1.426l.9-3.485h-.9l.072-.339a2,2,0,0,0,.6-.06.721.721,0,0,0,.311-.226,3.362,3.362,0,0,0,.368-.625,5.089,5.089,0,0,1,.582-.958,2.816,2.816,0,0,1,.8-.687,1.658,1.658,0,0,1,.79-.23.95.95,0,0,1,.629.2.562.562,0,0,1,.236.429.426.426,0,0,1-.118.3.4.4,0,0,1-.3.123.371.371,0,0,1-.261-.093.292.292,0,0,1-.1-.221.442.442,0,0,1,.067-.2.44.44,0,0,0,.067-.162.129.129,0,0,0-.046-.108.32.32,0,0,0-.2-.052.909.909,0,0,0-.581.206,2.338,2.338,0,0,0-.619.856c-.092.2-.263.7-.509,1.508Z"
             fill="#bcbec0"
             id="path5199"
             style="fill:#ffffff;fill-opacity:0.98571426" />
        </g>
      </g>
      <g
         id="g5221"
         style="fill:#ffffff;fill-opacity:0.98571426">
        <g
           id="g5211"
           style="fill:#ffffff;fill-opacity:0.98571426">
          <path
             d="M2.7,20.948V38.31q1.373.771,2.784,1.449l.053-20.8S3.535,18.5,2.7,20.948Z"
             fill="#bcbec0"
             id="path5205"
             style="fill:#ffffff;fill-opacity:0.98571426" />
          <path
             d="M8.4,20.948v20.1c.915.37,1.843.707,2.779,1.018l.058-23.116S9.232,18.5,8.4,20.948Z"
             fill="#bcbec0"
             id="path5207"
             style="fill:#ffffff;fill-opacity:0.98571426" />
          <path
             d="M14.1,20.948V42.931q1.374.357,2.773.625l.063-24.6S14.928,18.5,14.1,20.948Z"
             fill="#bcbec0"
             id="path5209"
             style="fill:#ffffff;fill-opacity:0.98571426" />
        </g>
        <path
           d="M0,0V3.083a47.875,47.875,0,0,1,19.769,7.28V9.906A55.228,55.228,0,0,0,0,0Z"
           fill="#bcbec0"
           id="path5213"
           style="fill:#ffffff;fill-opacity:0.98571426" />
        <path
           d="M4.906,12.136a11.353,11.353,0,0,1,4.938-.916,14.466,14.466,0,0,1,6.086,1.274,15.582,15.582,0,0,1,3.839,2.465V12.618A47.891,47.891,0,0,0,0,5.337v9.585A16.172,16.172,0,0,1,4.906,12.136Z"
           fill="#bcbec0"
           id="path5215"
           style="fill:#ffffff;fill-opacity:0.98571426" />
        <polygon
           points="9.906 13.526 1.583 17.343 18.325 17.343 9.906 13.526"
           fill="#bcbec0"
           id="polygon5217"
           style="fill:#ffffff;fill-opacity:0.98571426" />
        <path
           d="M0,39.72a55.271,55.271,0,0,0,19.769,9.907V46.544A47.933,47.933,0,0,1,0,39.264Z"
           fill="#bcbec0"
           id="path5219"
           style="fill:#ffffff;fill-opacity:0.98571426" />
      </g>
    </g>
    <g
       id="g5277"
       style="fill:#ffffff;fill-opacity:0.98571426">
      <path
         d="M26.626,46.825h.986V52.66h-.986Z"
         fill="#bcbec0"
         id="path5225"
         style="fill:#ffffff;fill-opacity:0.98571426" />
      <path
         d="M33.606,46.825h.985V52.66H33.522L30.216,48.4V52.66h-.985V46.825h.985l3.39,4.357Z"
         fill="#bcbec0"
         id="path5227"
         style="fill:#ffffff;fill-opacity:0.98571426" />
      <path
         d="M37.976,47.593a1.288,1.288,0,0,0-.7.175.586.586,0,0,0-.276.53.616.616,0,0,0,.276.543,4.161,4.161,0,0,0,1.173.405,3.233,3.233,0,0,1,1.352.609,1.445,1.445,0,0,1,.455,1.156,1.531,1.531,0,0,1-.576,1.24,2.3,2.3,0,0,1-1.511.476,3.546,3.546,0,0,1-2.429-.943l.617-.743a2.783,2.783,0,0,0,1.837.768,1.253,1.253,0,0,0,.756-.2.64.64,0,0,0,.279-.542.607.607,0,0,0-.263-.526,2.741,2.741,0,0,0-.906-.343,8.208,8.208,0,0,1-.976-.283,2.22,2.22,0,0,1-.593-.339,1.411,1.411,0,0,1-.518-1.2,1.462,1.462,0,0,1,.589-1.248,2.371,2.371,0,0,1,1.457-.438,3.5,3.5,0,0,1,1.11.183,2.91,2.91,0,0,1,.952.518l-.526.743a2,2,0,0,0-.7-.384A2.712,2.712,0,0,0,37.976,47.593Z"
         fill="#bcbec0"
         id="path5229"
         style="fill:#ffffff;fill-opacity:0.98571426" />
      <path
         d="M43.674,47.726V52.66h-.985V47.726h-1.77v-.9h4.525v.9Z"
         fill="#bcbec0"
         id="path5231"
         style="fill:#ffffff;fill-opacity:0.98571426" />
      <path
         d="M46.512,46.825H47.5V52.66h-.985Z"
         fill="#bcbec0"
         id="path5233"
         style="fill:#ffffff;fill-opacity:0.98571426" />
      <path
         d="M51.321,47.726V52.66h-.985V47.726h-1.77v-.9h4.525v.9Z"
         fill="#bcbec0"
         id="path5235"
         style="fill:#ffffff;fill-opacity:0.98571426" />
      <path
         d="M55.47,51.325a1.494,1.494,0,0,0,2.17,0,1.882,1.882,0,0,0,.4-1.269V46.825h.985V50.1a2.6,2.6,0,0,1-.693,1.941,2.662,2.662,0,0,1-3.556,0,2.6,2.6,0,0,1-.693-1.941V46.825h.985v3.231A1.887,1.887,0,0,0,55.47,51.325Z"
         fill="#bcbec0"
         id="path5237"
         style="fill:#ffffff;fill-opacity:0.98571426" />
      <path
         d="M62.775,47.726V52.66h-.986V47.726h-1.77v-.9h4.525v.9Z"
         fill="#bcbec0"
         id="path5239"
         style="fill:#ffffff;fill-opacity:0.98571426" />
      <path
         d="M69.712,46.825v.926H66.6V49.3h2.8v.877H66.6v1.561h3.214v.926h-4.2V46.825Z"
         fill="#bcbec0"
         id="path5241"
         style="fill:#ffffff;fill-opacity:0.98571426" />
      <path
         d="M74.345,47.743v1.6h2.588v.91H74.345v2.4H73.36V46.825h3.891l-.009.918Z"
         fill="#bcbec0"
         id="path5243"
         style="fill:#ffffff;fill-opacity:0.98571426" />
      <path
         d="M83.286,51.855a3.2,3.2,0,0,1-4.374,0,3.064,3.064,0,0,1,0-4.308,3.2,3.2,0,0,1,4.374,0,3.064,3.064,0,0,1,0,4.308ZM82.564,48.2a2.045,2.045,0,0,0-2.93,0,2.179,2.179,0,0,0,0,3,2.045,2.045,0,0,0,2.93,0,2.179,2.179,0,0,0,0-3Z"
         fill="#bcbec0"
         id="path5245"
         style="fill:#ffffff;fill-opacity:0.98571426" />
      <path
         d="M90.074,48.72a1.7,1.7,0,0,1-1.261,1.82l1.528,2.12H89.088L87.694,50.7H86.4V52.66h-.985V46.825h2.171a3.145,3.145,0,0,1,1.911.45A1.72,1.72,0,0,1,90.074,48.72Zm-1.311.826a1.04,1.04,0,0,0,.3-.83.891.891,0,0,0-.309-.785,2.058,2.058,0,0,0-1.1-.213H86.4v2.087h1.228A1.8,1.8,0,0,0,88.763,49.546Z"
         fill="#bcbec0"
         id="path5247"
         style="fill:#ffffff;fill-opacity:0.98571426" />
      <path
         d="M97.821,49.822h.985v1.995a3.029,3.029,0,0,1-2.363.91,2.977,2.977,0,0,1-2.166-.852,2.878,2.878,0,0,1-.872-2.153,2.908,2.908,0,0,1,.889-2.171,2.961,2.961,0,0,1,2.149-.868,3.059,3.059,0,0,1,2.1.734l-.526.752a2.042,2.042,0,0,0-.689-.4,2.6,2.6,0,0,0-.8-.113,2.073,2.073,0,0,0-1.486.572,2.055,2.055,0,0,0,1.4,3.561,2.529,2.529,0,0,0,1.39-.359Z"
         fill="#bcbec0"
         id="path5249"
         style="fill:#ffffff;fill-opacity:0.98571426" />
      <path
         d="M104.2,46.825v.926h-3.113V49.3h2.8v.877h-2.8v1.561H104.3v.926h-4.2V46.825Z"
         fill="#bcbec0"
         id="path5251"
         style="fill:#ffffff;fill-opacity:0.98571426" />
      <path
         d="M109.935,46.825h.985V52.66h-1.069L106.545,48.4V52.66h-.985V46.825h.985l3.39,4.357Z"
         fill="#bcbec0"
         id="path5253"
         style="fill:#ffffff;fill-opacity:0.98571426" />
      <path
         d="M117.423,51.855a3.2,3.2,0,0,1-4.375,0,3.064,3.064,0,0,1,0-4.308,3.2,3.2,0,0,1,4.375,0,3.064,3.064,0,0,1,0,4.308ZM116.7,48.2a2.045,2.045,0,0,0-2.93,0,2.179,2.179,0,0,0,0,3,2.045,2.045,0,0,0,2.93,0,2.179,2.179,0,0,0,0-3Z"
         fill="#bcbec0"
         id="path5255"
         style="fill:#ffffff;fill-opacity:0.98571426" />
      <path
         d="M120.537,52.66h-.985V46.825h1.536l1.762,3.664,1.761-3.664h1.528V52.66h-.985V48.1l-2.037,4.049h-.551L120.537,48.1Z"
         fill="#bcbec0"
         id="path5257"
         style="fill:#ffffff;fill-opacity:0.98571426" />
      <path
         d="M131.858,46.825v.926h-3.115V49.3h2.8v.877h-2.8v1.561h3.215v.926h-4.2V46.825Z"
         fill="#bcbec0"
         id="path5259"
         style="fill:#ffffff;fill-opacity:0.98571426" />
      <path
         d="M137.271,47.593a1.29,1.29,0,0,0-.7.175.586.586,0,0,0-.276.53.616.616,0,0,0,.276.543,4.173,4.173,0,0,0,1.173.405,3.233,3.233,0,0,1,1.352.609,1.445,1.445,0,0,1,.455,1.156,1.531,1.531,0,0,1-.576,1.24,2.3,2.3,0,0,1-1.511.476,3.55,3.55,0,0,1-2.43-.943l.619-.743a2.779,2.779,0,0,0,1.836.768,1.253,1.253,0,0,0,.756-.2.641.641,0,0,0,.28-.542.609.609,0,0,0-.263-.526,2.759,2.759,0,0,0-.906-.343,8.178,8.178,0,0,1-.977-.283,2.22,2.22,0,0,1-.593-.339,1.411,1.411,0,0,1-.518-1.2,1.464,1.464,0,0,1,.589-1.248,2.373,2.373,0,0,1,1.457-.438,3.5,3.5,0,0,1,1.11.183,2.91,2.91,0,0,1,.952.518l-.526.743a1.986,1.986,0,0,0-.7-.384A2.708,2.708,0,0,0,137.271,47.593Z"
         fill="#bcbec0"
         id="path5261"
         style="fill:#ffffff;fill-opacity:0.98571426" />
      <path
         d="M143.428,51.767a2.063,2.063,0,0,0,.877-.171,3.024,3.024,0,0,0,.768-.547l.634.651a2.92,2.92,0,0,1-2.25,1.027,3.013,3.013,0,0,1-2.195-.852,2.878,2.878,0,0,1-.872-2.153,2.908,2.908,0,0,1,.889-2.171,3.08,3.08,0,0,1,2.245-.868,2.937,2.937,0,0,1,2.267,1l-.627.684a2.716,2.716,0,0,0-.788-.559,2.209,2.209,0,0,0-.873-.159,2.076,2.076,0,0,0-1.486.572,1.93,1.93,0,0,0-.6,1.461,2.02,2.02,0,0,0,.6,1.486A1.934,1.934,0,0,0,143.428,51.767Z"
         fill="#bcbec0"
         id="path5263"
         style="fill:#ffffff;fill-opacity:0.98571426" />
      <path
         d="M146.91,46.825h.985V52.66h-.985Z"
         fill="#bcbec0"
         id="path5265"
         style="fill:#ffffff;fill-opacity:0.98571426" />
      <path
         d="M153.614,46.825v.926H150.5V49.3h2.8v.877h-2.8v1.561h3.215v.926h-4.2V46.825Z"
         fill="#bcbec0"
         id="path5267"
         style="fill:#ffffff;fill-opacity:0.98571426" />
      <path
         d="M159.349,46.825h.985V52.66h-1.069L155.959,48.4V52.66h-.985V46.825h.985l3.39,4.357Z"
         fill="#bcbec0"
         id="path5269"
         style="fill:#ffffff;fill-opacity:0.98571426" />
      <path
         d="M164.616,51.767a2.063,2.063,0,0,0,.877-.171,3.024,3.024,0,0,0,.768-.547l.635.651a2.923,2.923,0,0,1-2.251,1.027,3.013,3.013,0,0,1-2.2-.852,2.878,2.878,0,0,1-.872-2.153,2.908,2.908,0,0,1,.889-2.171,3.08,3.08,0,0,1,2.245-.868,2.937,2.937,0,0,1,2.267,1l-.627.684a2.716,2.716,0,0,0-.788-.559,2.209,2.209,0,0,0-.873-.159,2.076,2.076,0,0,0-1.486.572,1.93,1.93,0,0,0-.6,1.461,2.02,2.02,0,0,0,.6,1.486A1.934,1.934,0,0,0,164.616,51.767Z"
         fill="#bcbec0"
         id="path5271"
         style="fill:#ffffff;fill-opacity:0.98571426" />
      <path
         d="M172.2,46.825v.926h-3.114V49.3h2.8v.877h-2.8v1.561H172.3v.926h-4.2V46.825Z"
         fill="#bcbec0"
         id="path5273"
         style="fill:#ffffff;fill-opacity:0.98571426" />
      <path
         d="M175.323,47.593a1.29,1.29,0,0,0-.705.175.586.586,0,0,0-.276.53.616.616,0,0,0,.276.543,4.173,4.173,0,0,0,1.173.405,3.233,3.233,0,0,1,1.352.609,1.442,1.442,0,0,1,.455,1.156,1.531,1.531,0,0,1-.576,1.24,2.3,2.3,0,0,1-1.511.476,3.546,3.546,0,0,1-2.429-.943l.617-.743a2.783,2.783,0,0,0,1.837.768,1.253,1.253,0,0,0,.756-.2.64.64,0,0,0,.279-.542.607.607,0,0,0-.263-.526,2.743,2.743,0,0,0-.905-.343,8.178,8.178,0,0,1-.977-.283,2.22,2.22,0,0,1-.593-.339,1.411,1.411,0,0,1-.517-1.2,1.461,1.461,0,0,1,.588-1.248,2.371,2.371,0,0,1,1.457-.438,3.5,3.5,0,0,1,1.11.183,2.9,2.9,0,0,1,.951.518l-.526.743a1.977,1.977,0,0,0-.7-.384A2.7,2.7,0,0,0,175.323,47.593Z"
         fill="#bcbec0"
         id="path5275"
         style="fill:#ffffff;fill-opacity:0.98571426" />
    </g>
  </g>
</svg>
